<mxfile host="app.diagrams.net" agent="Mozilla/5.0 (X11; Linux x86_64) AppleWebKit/537.36 (KHTML, like Gecko) Chrome/127.0.0.0 Safari/537.36" version="24.7.7">
  <diagram name="PÃ¡gina-1" id="EpQAqCqvgGd0dOWg3ju4">
    <mxGraphModel dx="1119" dy="611" grid="1" gridSize="10" guides="1" tooltips="1" connect="1" arrows="1" fold="1" page="1" pageScale="1" pageWidth="827" pageHeight="1169" math="0" shadow="0">
      <root>
        <mxCell id="0" />
        <mxCell id="1" parent="0" />
        <mxCell id="nPLDPghtRgDBbKn_ZtEC-9" value="" style="group" vertex="1" connectable="0" parent="1">
          <mxGeometry x="60" y="30" width="740" height="680" as="geometry" />
        </mxCell>
        <mxCell id="nPLDPghtRgDBbKn_ZtEC-8" value="" style="rounded=0;whiteSpace=wrap;html=1;fillColor=#d5e8d4;strokeColor=#82b366;gradientColor=#97d077;" vertex="1" parent="nPLDPghtRgDBbKn_ZtEC-9">
          <mxGeometry y="10" width="460" height="270" as="geometry" />
        </mxCell>
        <mxCell id="nPLDPghtRgDBbKn_ZtEC-1" value="Classe Carro" style="text;strokeColor=none;fillColor=none;html=1;fontSize=27;fontStyle=1;verticalAlign=middle;align=center;" vertex="1" parent="nPLDPghtRgDBbKn_ZtEC-9">
          <mxGeometry x="20" width="190" height="90" as="geometry" />
        </mxCell>
        <mxCell id="nPLDPghtRgDBbKn_ZtEC-2" value="" style="shape=image;verticalLabelPosition=bottom;labelBackgroundColor=default;verticalAlign=top;aspect=fixed;imageAspect=0;image=data:image/png,iVBORw0KGgoAAAANSUhEUgAAAgAAAAIACAYAAAD0eNT6AAAAAXNSR0IArs4c6QAAIABJREFUeAHsXQV8FNfXjSdoYSdAXdEQLEI8BAguCSQQ3N3d3bVY0eJQnJZCS5FSoDgkSMJuoDgU2v6rSCma+30v7bbLsklmZmdmZ2cOv1+YlZH3zrt7z3l2r4sL/gEBIAAEgAAQAAJAAAgAASAABIAAEAACQAAIAAEgAASAABAAAkAACAABIAAEgAAQAAJAAAgAASAABIAAEAACQAAIAAEgAASAABAAAkAACAABIAAEgAAQAAJAAAgAASAABIAAEAACQAAIAAEgAASAABAAAkAACAABIAAEgAAQAAJAAAgAASAABIAAEAACQAAIAAEgAASAABAAAkAACAABIAAEgAAQAAJAAAgAASAABIAAEAACQAAIAAEgAASAABAAAkAACAABIAAEgAAQAAJAAAgAASAABIAAEAACQAAIAAEgAASAABAAAkAACAABIAAEgAAQAAJAAAgAASAABIAAEAACQAAIAAEgAASAABAAAkAACAABIAAEgAAQAAJAAAgAASAABIAAEAACQAAIAAEgAASAABAAAkAACAABIAAEgAAQAAJAAAgAASAABIAAEAACQAAIAAEgAASAABAAAkAACAABIAAEgAAQAAJAAAgAASAABIAAEAACQAAIAAEgAASAABAAAkAACAABIAAEgAAQAAJAAAgAASAABIAAEAACQAAIAAEgAASAABAAAkAACAABIAAEgAAQAAJAAAgAASAABIAAEAACQAAIAAEgAASAABAAAkAACAABIAAEgAAQAAJAAAgAASAABIAAEAACQAAIAAEgAASAABAAAkAACAABIAAEgAAQAAJAAAgAASAABIAAEAACQAAIAAEgAASAABAAAkAACAABIAAEgAAQAAJAAAgAASAABIAAEAACQAAIAAEgAASAABAAAkAACAABIAAEgAAQAAJAAAgAASAABIAAEAACQAAIAAEgAASAABAAAkBAJQjQuSJ5yOQbQCYuloyGRpTu25FM3CAycpPJxC0kk+8GMnG7ycSdIBP3HZl8fyYT94RM3H0ycTfJxKWSyXCQTNw2MnEryeQ7i9INo8jI9SIT15LSfevShYIRdOGV91RSZRQDCAABIAAEgIC+ECBjobxkLBRFJkNvMnGrycQZycQ9JxNHCv39TkbuGzIaZlC6bzNK40oRubjpqxVQWyAABIAAEAACMiJAF3zzUbpvJTIZ+lI6t5aMXLrCZM9XVDwgE3eEjNw8MhrakbFQeUp28ZQRGtwaCAABIAAEgIB2EGA9aTIViiYT9xGZuItk4jIU6tXzJXoh5z3KnHJI54ZSWuEPtNNKqAkQAAJAAAgAAQkQIHJxJWPBSErn5pKJu+PEhJ+TOEghEzcY6wgkMBrcAggAASAABJwTgUzSTzeEk4mbTSbutoZJ37YoSOdOktF3AJkKvOOcLYhSAwEgAASAABDgiUAm6ZsMoWTy/ZDSuVu6I/2sFykez1zjkGZ4iyeUOA0IAAEgAASAgPoR+GeL3kAycTdA+tnuVMggk+8hSvetp/5WRQmBABAAAkAACGSBAF0y5CcjN4xM3C8g/myJ39Y0wWkycfFs1CQLePExEAACQAAIAAF1IUBnChSgdMNoMnG/gfgFE7+VGPA9R0ZDIoSAumwcpQECQAAIAAELBCg9H0cmbgKZuLsgfnuJ/6Xrz5PJkISAQxYGh5dAAAgAASDgWAToXJHCZOKm/hNW16oH+xKR4fusFwPmjA0LhGT0bU7k4u7YVsfTgQAQAAJAQLcI0EXujcwV/SbuT/T4FRc6LEhSKwgB3f78UHEgAASAgPII/L2qP3Oo/y8Qv+LEbz1KYKJ0Q3XlrQBPBAJAAAgAAd0gkLmP38i10GXgHnuG7ZW41shtJ2OhoroxRlQUCAABIAAElEGAjFxFMnHH0ON3eI/fegTA8v3jzLUYF3zzKWMVeAoQAAJAAAhoFgEy+b5GJm6VkyflsSRJPbz+gYyGttg6qNmfJSoGBIAAEJAPAbpU1JtYFjsTdx+9flX3+rMTNKco3RAmn5XgzkAACAABIKApBMjENSCj4QqI32mJ/0VRkM6tZTs2NGWkqAwQAAJAAAhIhwCZCvpTOrcPxK8R4n9x8eEDMnEj6Nq7PtJZDO4EBIAAEAACTo3APxH85v8/QTwD+WuS/C1HBK5RuiHBqQ0WhQcCQAAIAAH7EKD9Lh5k5HoiZr/mSd9SAJhf76cLBcvaZ0G4GggAASAABJwOATIZqpGJM6LHr0vyN4sANuKzkI0AOZ0Bo8BAAAgAASAgDAEWLIbSuc9B/LomfrMAMB9/IyPXi40ICbMmnA0EgAAQAAKqR4Au+Ob7J2EPCxZjdvw4AgtLGzAirLDqf8ooIBAAAkCAHwJ/h+81tCUT9wOIH8KHlw2wESKEFeb3A8NZQAAIAAE1IkDphnAycad4OX30hC17wnht4hBWWI0/apQJCAABIJAdAnTO8CYZuU9A/OjxS2ADP1A61wZhhbP7xeE7IAAEgICDEaBbb+Yik2Ekmbg/JXD86AVjVOQ/G0jnTiKssIN/4Hg8EAACQMAWAmQ0NCITdx3Ej16/jDaQQQgrbOvnh8+AABAAAsojQMZC5clkOCij0/+vF4geMbD42wZYWOHhCCus/O8dTwQCQAAIuNClVwuR0bCYTNxzkD96/Q6yAYQVhi8CAkAACCiFACW7eJLJ0JdM3B8OcvroBWMk5EUbMHLfIKywUh4AzwECQECXCJCpUG0ycRdA/Ojxq9AGWFjhBQgrrEvXhEoDASAgFwJ0wbcEmXx3qtDpv9gTRM8YeJg4Fla4J8IKy+UNcF8gAAR0gQBdKfgKmXw/JBP3BOSPXr+T2YCRJZzSxQ8VlQQCQAAISIUAkYsbpft2IhP3Pydz+ugBYxTkRRtgYYXTCn8g1W8D9wECQAAIaBYBMhWKJpPhDIgfPX4N2QALKzyFJaTS7A8XFQMCQAAIiEWATAXeoXTfTRpy+i/2BNEzBh4sIRXCCot1EbgOCAABrSFAya/nJpPvODJxD0H+6PXrwgZYWGGTIVRrv2XUBwgAASDAGwFK921G6dwtXTh9jABgBOBFG8ggE7eGLvi+zvsHgxOBABAAAs6OAF3wDSITdwTEjx4/bIBDWGFnd2goPxAAAjkjQMZCr1I6t5xMHOv9oEcIDGAD/9qA71VK5xrm/CvCGUAACAABJ0KAjC5e/z/HP4hM3D0QP4QPbCAbG2BhhdMLlnGinzeKCgSAABCwjQAZfeuTibsEp5+N0/+3F4hzYCeZNsDCCs9HWGHbPgWfAgEgoHIEyGjwIxO3Bw4dpA4bEG0DCCuscj+H4gEBIGCBAKW+UpDSubn/ny/9KRy/aMePuXGMiljawHkycbEWPzO8BAJAAAioBwEiF/f/D93bjUzcLyB+ED9sQBYb2IawwurxeSgJEAACLi4uZOSqkolLg9OXxelb9gTxGiMDjzLDChsL5YXzAQJAAAg4DAH6rsj7ZOI+BfGD+GEDitvAHUrnWhO5uDrMAeDBQAAI6A8BMhbKS0ZuEpk41htBrxQYwAYcZwMnEFZYfz4YNQYCiiPAehuZvQ4TdwfED+EDG1CNDWSQkVuBbYOKu0Q8EAjoAwHWyyATdwJOXzVOH71ux/W6VYq9789MoOvDI6GWQAAIyI4AS1aSmbQE4XtV6vQhSCBKrWwgndtHpkLFZHcOeAAQAALaRICuvevz/3v5h5MpM1kJyA+9TdiAc9nAIzIZRrIw3Nr0UKgVEAACsiBA6YYEMnHX0LOy6lk5FwGAsNFezAZMlG4Il8VR4KZAAAhoBwG6ULAsmbj9IH4QP2xAUzbwjIy+Y1iwLu14K9QECAABSRCgi/l8ycQtJBPHkpCg5wgMYAPatIEjlF7gXUmcBm4CBICAcyNA+108yGToTSbudxA/hA9sQBc2cJfSfZs5t+dC6YEAELALAUo31MicH9RmTwc9WLQrbCB7G1hDF3zz2eVEcDEQAALOhQDbHkQmbgd6e7ro7YEEsydBfeNjNFwhY6EKzuXBUFogAAQEI0CXDPkp3TCdTNxjkD/IHzYAG/jHBv4ko6GxYIeCC4AAEFA/AkQubmQytKd07ic4fTh92ABsIAsbmIDEQur35yghEOCNABkLRpKJS8niB6/v4U8MDaP9YQPWNrCNJfri7WBwIhAAAupDgNIMb5HJsB7Ej94ebAA2INAG0liab/V5NZQICACBbBGgW2/monTDaDJxDwX+6K17AniP3iFsQL828Aul+8Zk62zwJRAAAupBgEyGJDJxN0H86PHBBmADEtjAIzJx8erxcCgJEAACLyFAJt8AMvkekuAHjx6ffnt8aHu0vS0beEbpXJuXnA4+AAJAwLEI0Lkihcnk+zGZuOcgf/T4YAOwAZlsIIPSDf0c6+3wdCAABDIRoGQXTzL6DiATd1emH7ytngA+Qw8RNqBvG5gAFwwEgIADEaB037pk4r4D8aO3BxuADTjABhawuCIOdIF4NBDQHwKUxpUiI7fLAT949Pr03etD+6P9rW1gFQIG6Y+DUGMHIEBnChQgEzebTNxTkD96fLAB2IBKbGC+A9whHgkE9IEAkYs7GX27kMn3Z6E/+IzzHD06VYDuHcxPv+7JRz/vzEs/7chDP2zLQ7e35KZbG3PRjU986NpaH7qxPhfd2pSLbm/Nnfk9O4+dz667f+gVepxSkDKMcLpC2wDnw2Y0bwNGbrI+vDFqCQQURIAF4CCT77nsHMjzNEMmQTPCvrHOhy4t9aLzcz3o9BQ3OjHGRdK/k2Nd6MxUNzLO88h8Dnve/77MSw+OvEIZ5w3Ww4N4jyFj2IBebCCdG6Kga8SjgIB2EaD0Au+SkdtiTfzPzhno7v78dOez3HR5uTedm+lOJ8ZKS/JiRQMTB6mz3OnyCu/M8rFyPk+FKLBuQ7zHiICGbaCbdr0yagYEZEaAzhXJQyZuApm4v5iTYEP4dw/kzxyqZ71uRrJiCdoR150c50Km+Z70/ZbcdP/bVzCFoJfeIOqp15GPDDJyLWR2k7g9ENAWAmwlLfvhkIn7/q8TBTJ70BcWedKp8a5ORfg5iYzkCa50cYkX/fh5nsw1BRruCemVAFBviJ+nZDTU1JaHRm2AgEwIkJGr+OhkgZQfPstN5+d4aIrwcxIEbHSArV14ehZTBRBDmBrQkA38wbYry+QycVsg4PwI/LAtr9+tjbmOMhLMiSi1/j2bKri42It++SovPcO6AfSi0YvWgg1cpvR8nPN7atQACEiIwPW1uZqZFnheZqSndWIXUz82TXB9rQ+xqRAN9YhQF5C6Hm1gPwtXLqH7xK2AgPMhkLzYxfPqKu9pabPd/xBDinq9ho0K/LE/vx4dJ+oMwaANGzAaFjufx0aJgYAECNzZ5PP2peXeO85MdXuqVxKXot6pH7pnrhVgMQ8wKoC5ctiAk9mAkeslgTvFLYCAcyBweXXewpeWeu1OnuiaIQUB4h5/T5ew4EY/bs+TuT0SJOBkJIAevZ7F6zMyGao5h/dGKYGASASMm1zyXlnuvTllsutzkLZ8axzOTnfLXDBICE2sZ1JB3Z1LVP1IaYWLiHStuAwIqBcBNsd/eZX3Egz1y0f6tgRV2ix3+v3rfCAC5yICtJde24tlMSUXV/V6cpQMCAhE4MqqXP3OTnd/ZIug1PTZtyM9aPcwH9o2KB9t6Geglb0L08Lub9CHnd+hiR2K0sg2pWhAyzLUp3l5GtGmFE3r9B4t7vE6re9noJ1DctPhUe6q3bVg/MgjMx8CpgUwLQAbULkNpBv6CXSxOB0IqA+BW594F0tf4HlJTSTPynJolDut68vRpA5FqXNSENWsXY38ohtR0Ygmdv+VqZRAEdXqUu06sdSkQST1blaePur2ZqawUAMOV1Z4I8KgXnuXqLezjKw8JpNvgPo8OkoEBHgicHW19+KUSY6f59833JuW9SpCo9qWpFYJYVSpem0qHplkN9GLEQthsfWodWIYTWhfjDb1L0jHRjsmjDGLI8BSGiM7ocp7giBsZyFsOcp5keU94elucRoQUAcCtzf6xJ6f6/GrI3u72wfnpeFtSlFsrRoOIXq+4sA/OpHi6lWmgS3L0Mc9X6Mjo6RPT5xdO7CFgr/txfoADIlDCKnSBozcCnV4dZQCCPBA4MpK788clZxn+6C8NLy1H8XWVDfpZycOysc0oO5NA2hj/4KKriVIX+BJD48hqqAqSQCjAHL0rp3nnulcQx6uF6cAAcchcGOrz/um+V4/ZNfblOO7zwflyyT9qk5M+lkJgio1a9LYdsXp6+HeiogBlkaZhRdG0iH0hiGEVGUDd+hKwVcc593xZCCQDQI31vt0VHJr3+FRbplz6FokfVtioERk48zFhGw3wlEF1gykTHL9O5AQ4gc4Ty8RowTabqt0w6JsXDC+AgLKI0BjXNwuL/f+kvUc5ejdW9+TbbEb1744BVeJU/W8vi0Sl+qzwMrx1KtZeWLTHdb4SP0+dZY73UWOAW0TC4SDLO2bYeTo15Nv0c8n35Pq/hl0oWCE8l4eTwQCNhC4vjX3a8Z5Hv+TmnRs3Y9t2WND4UE6Jn5rAcF2MbRMCKctAwrILgS++9iLHp3C+gAMi6tqWFwqYpXsPhkmjr5YX4W6DRtETfpMpaZ9p2f+VWo2hKo270H9hzWitN0l7XmeiYwuXjbcMT4CAsoi8N1Sr+O2yFrKzxjxj2lbgoIqx+u2x29N/Nbvi0U0ocbxUfRJX05WIXBynCvd3JCLnqUi0RCEAISAtQ0sWdCAmvSe9C/pm8mfHRN6TKGAuEFUvv7AzL/2fVrSie1lxAmBdMMoZT09ngYErBC4vj5XOCMEKcne8l6HRrrT6LYliA13WxMe3mcdqIhtJ1zeq4hs7cLaiCUa+nlnXnHOC8PNwE1jNnDws1Bq3neMTeK3FAE12o39VwAwIRAQN4B2rQ8WYw+P6CJX0sol4y0QUA6B9IWe1ywJW8rXs7u8TQEgfruED4tqyBYMHh8j39oM4zyEFbbuBeK9fkYGbh0uSt2G9suR+C1FQFjjYS+IgMD4/nRgawUxImC/ct4eTwICFgjcWOfTQkrCN9+LbXVr3jDCLuLD6MCLowNVatSkOV3epuMy7hy4stKbnpwuKMaJ4RqN9Yb1IIAepxah8VPaUFLv/+b4LUk+u9dsKqCCxVQAGwmo2LAfnfrCX8RvwZBk4ZbxEggog8D5OR6/mUlbquOC7m9guF+CHARZCaDIanVknRZAWGH99Hz1QPJZ1XH98prUpPdEQb1+a0FQve2LUwFMBNRo2Y0enHlVmAhI524hTLAynIen/IPAtdU+Y6UifXaf/SM8qW1iKHr9MpK/WRRI2W5Z3evsdHeEFUavXhiROQFeKTvLU+v+I+wifkshENpo6AtTAUwETJ1aRwxuE0BOQEARBIybXLzOzZAune/Snq9Sxar1Qf4KkD8TAVmRthyfpy9EWOGsepH43HlGS34++Tb1HdmTmvSZJhn5MyHQsPvkl6YC2KLA83tKCBUBjyit8AeKEAAeom8Erqz0WiMFWRwc6ZGZftfcM8XxxXl7ufCQou2E3ANhhZ2H6CBKXmyrZ+cL0YezmlJS7ymSEr/lKEC1NmNeGgVI6tKe2LMFtYeR265vZkLtZUfg6ro8RU5PdnsuhABsncsy3YXH1kWvX6Fev6WYsNUeSnyGsMIvkosg5+4Ew+Naq88X62Ooae/xshG/WQQ06TOdQhNfngpYtShGmABgNmI01JSdBPAA/SJwaan3QSnIgm1LYxHsLIkJr7U5AmBtLwgrDCGgZrFw4Rs/6jBwsOzEbxYA7BjfddJLowChCX3p9pF3hIqAi4gQqF9+lrXm32/KU/7UBOmC/rB0tyB9ZUjfEmdrQnbUe4QVhhBQkxC4f/p1Gjauk+Tz/JZEn93ryCYjXhIB3Qc2FSoA2PmDZCUC3FyfCFxY5HlBSrJgW9IsiQmvlREDYtpweqf3aN9wL8kXELIokrc2IqywmohQj2Vh4XuTek9WtNdvLQYadJv8kgBguwJERAm8Tybf1/TJUqi1LAjcXJc7XupMfzVqV4MAcJI1APXqVqFyMQ1pXLvisqQhPjPVjX7+CmGF9Ui+jqwz3/C91mQt1/uopi+PAlRt1oPupbwmdCRgjSxEgJvqEwE5sv2xxDXo9SvT67fEWcwIABMA5ntEV69Ni3u8LvloACsXCyv84PArQp0dzsciQUE2ICZ8r1ykb3lfti2Q9fqt/8ZNqC+ofpmiCimD9UnWUtf6+ie5BoghjZyuGdiyzL+kYiYXHOUXBDm1i63vLQWAuY0S6leiTwfml0UIIKww1gfIMTJgT/heS6KW83V0s5EvCYAKcQPp9E4/oSLgNJGLm9R8gPvpCAEa4+KW+qH7Q1ukYO9nLOyvmUxwlJ/4zRiLaTdbAoDdr0RkEnVrEijL+gAWVvjOp7kp4zzSDstBhnq7pxThe+UkfvO9WZ4A6xEA9r5Bh470JE1obADfzjqiK1RVagSurPJeJIYw+Fyza2guCAAnWgNgFhC2jnKuD0BYYYwG2CNWpA7fayZqOY8xzV8eBWAiYMm8qkJHAX6h1FcKSs0LuJ8OELj2WYECZ6a6PeND5mLPCUS6X8VFkJi2ymoEwFoMyLk+AGGFIQSECIG/w/f2cNi2PnsEQmJPli3w5bUALGPg9W/fFyoCPtIBXaGKUiNwebn3LjFkIeSaZkj7qykBYBYEcq0PQFhhiICcRMAzo6/s4XvtIXe+11ZuMcrmVEDHvi2ECoBndKFgWan5AffTMALfb/AunjzBNUMImYs5d17XtxQnQDNJ6fUopp34jgBYYirn+gCEFYYQsCUElArfy5fE7TmvUc+pLyUKMq8N+HxNqEARYDioYbpC1aRG4OISr7NiiELoNYdGuZN/dCJEgIJrAYS2ETtfjAAwiwG2PmBC+2J0fLR0USTNdcgMK3wgv0BnCPK0RZ7O/JkjwvfaQ+58r63S0vYoQKUmvej3U28ItHvfJlLzBO6nQQRurPOudnKciyzbu8yO2/LYOjEMAkDDAsAsBGrWrkZbBhSQxa7+DitcUKBDhBBwZtJnZX9wxrHhe/kSudjzErPYEcBGAoaPaSDM3tO5W3SuSB4NUhaqJCUCpvkety0JWu7Xi3q8DgGgAwHAhECJyMbUr0VZYiM/UtsVwgrrS9AsWej48L1iiV3IdbaiA5qnAo5vLyNMBBi5SVJyBe6lMQSurfXuIrVjzul+x0a7UhTyAigmgnJqD1vf2zMFYB4BsDxGxNalZb2KSC4CWNkRVljbQkBt4XuFkLmYc21lCjQLgHptO9Pj1MJCRMAjSiv8gcZoC9WRCoG0We73bRGA3J/N6PyuYgRoSUR6fC2mLaUWAGbc2ySG0t5h3rIIAYQV1pYQUGv4XjGkLvSasMbDbO4IYEJg3qzqQgQAO3eHVHyB+2gIgWurvT8UQw5SXHN0tCuxXqGZGHCULzKgmPaSSwCwdmZpoVm2QTHl4nMNwgo7txBwhvC9Qgld6Pl1Ok7IUgAENehPl/YXFSgCCtXWEHWhKvYicGeHS+6z09ye8HGocp0zreP7EAAKrAUQ035yCgCz2KtfrwptG5RPFiGAsMLOKQKcJXyvUEIXc35wwyFZioDWPVtThlFQG39HRhcve3kD12sEgcvLvT8VQwxSXsNGAWJq1IIIkFkEiGkzJQQAEwKlohrTkFal6cgoN1mEwNkZ7vTb3nwCe0uCHCvuLUFmQmcM3yuG1IVcU6Pt2CwFAJsK2LwiQqjtDdYIfaEa9iBwZ6vPOymT5A/6w4d41vczZCaYMfcKcZR+KoBPO1ifo5QAMLd3peq1aXWfQrKIAFY3hBVWp6hx5vC9QshczLlJvadRQPygLEVAZOPe9POJt4SIgPt0wfd1e7gD12oAge8+9jph7fAd+b5/i7IYBZBxFEBM2yotAJgQKBbRhDolBdP+EV6yCIHMsMKf+NCzc8g26Oh4AFoJ3yuG2IVcU6XV6CwFABsFGDg8UYgAIErn1mqAwlAFsQhcX58rnO2fFkMKcl3Dhn8xFSB9z9/cuxbTbo4QAObyBlWOJxYrQky5+Vxzeoob/bob0wKOEgEpO/2pae/RJIQI9XouSxJk3gKY1fHbT8sLEwHGgpFi+QPXOTkC6Qs9r/Fxkkqfs7l/AYQIlmkUQExbOlIAmIUAGw04ONJDNiFwYZEnPTqFaIJKCYEfj71NQ0YmZBJaYPwgqtFuLDXpMx1CoG/2GEQ3G5GtCKjZqis9PFtEgAgwnCFycXNyKkPxhSJwY51PCzFkoNQ1S3q+hvUAMogAMe2nBgHAhADbKrqmj69sIuDUeFe682luyjivzjlypchZzuewwDUsr31oQt+XiKxiwhCq13kiREA2IiC7wEDmUYGZ02sJEAAckdG3i1D+wPlOjsD5OR6/iyEDJa/B1kDppwLEtJ9aBAATAcUjkzLDCR8dLc9OAYYPSzJ0/9tXhDlRCVa/y0m8arj3no1BVKt115eI30xc5mNkk+GU0GMKhEAWQiC7wEAMw4D4AWTaW1yI/f5CxvwGJ6c0FJ8vAldWem8WQwSOuGZQS38sCpRwJEBMG6pJAJinBKrWrEFbB7wi22gAw+nm+lwYDZBA2FzcV4za92mZI/GbBQA7VogbSFVajqbGvadBCFgJgbqdsg4MZMawade29Py8rxARMJ8vf+A8J0XgxqbcgcZ5Hv8TQwKOvGZwq9IQARKJADHtqEYBwIQAixswum0JOj5GvuyVabM96OHxAkIcKc79RzSwlLUTJtajgLgBgsjfTGLsGNhgMNVsNw4iwEoEBCdkHRjIjN+aJdFCbPEZnS9czkmpDcXOCYGrq70XJ09Ux35/MSQ0rdN7WBMggQgQg71aBYB5NICV78sheWQbDWBrA37akUeIM9X1uc/OF6K1S6IpKqm3aOI3k5j5GJI4lOp3wfoA8w6IGu3G5YhteGIf+uHoOwJs0fA5ahhXAAAgAElEQVRtTjyC750Mgavr8hQxfeTxgxjHr7ZrlvZ8lfwrJWI0wA4hIKZN1S4AmBAoUymBZsiYU4DhdnGJFz09g50C2a0nOLKtLMW375QjOZmJXeiRpcfF+oDpxAIDsd0TOeHXa3ATAQKAI0r3bepkFIfiZoXA9xu8i6fOcn8gxumr9ZotAwpQlZo1IQJEigAx7eoMAsA8GtC0QSR9PVyeDIMMOxY34I9v8gtzqhLMo2dHumr47sa37xEjm5wISYrvK8QNoqqtRmeSoLlHrMcjw4APnns3Bgqx1+/pXJE8WXEKPncSBG6tzxVydob7YzEOX+3XsBXgg1qWwZSACBEgpm2dSQAwIRDIggd1ly940ImxLpnbBdVAvI4uw4Mzr9KHM2pScIP+vMiID2HxPSeowWCq1V6/6wMSe07NXCyZE16xzbvT/dOv8RcBRm6yk9AcimkLgVuf5K59ZqrbMzHO3pmu2di/IFWpgdEAc++Xz1FM+zqbADDj0LFxMB0a6S7b2oDLK7zpeZo+Qwk/N/rSZ6vDqGqzHooTvzXhhTYaSnFdJulyoWB0s5G88J84qR5/AWDiHpOxUFFb3ILPVI4A6/mfnuz2XIyjd8Zr2GjAmLYlqGylhpgW4DEiIKaNnVUAMCHAwkp/NjC/bCLg/FwPenJaX+sCznzlR2ybmTURO/o9Wx+QqLP4AQ26TebVDmxb5bldpQSIAMMXKqc6FM8agTvr8vmmfuj+UIyTd/Zr2Lxv56SgzEAx5h4gji8HEhLTzs4sAJgN+Ecn0qwu78gmAs5MdaMHh7UfOIiF7x06qiEvwnGUGMhcH9BaX+sDwpOG8WqTxI4d6GlaIQEiwLeONcfgvUoRoDEubqb5Ht+LcfBauoYtEoyrVxmjAVmMBohpa2cXAGYh2CUpiA6PkieCINsq+MuuvAKcq/OEG84ufK+jiD6n57L1AbU7jNfFtACfwEBmvJbNryLERi+R0cVLpZSHYlkicGmp90Exzl2r18zv9mZm7Hiz88fx79EAMe2tFQHAbKBarer0xWD5Ygbc3ppbiINV/bl8w/eaCUZtR7Y+gMXP1/ouAZZHgQ/2IQn96Nahd/nbXTo3xJJn8FqFCFxbm6uPGMeu9WtYauGRbUohdoDFaICYNteSAGAigK0XWdj9DdmmBFgIYUevzrf3+WLC9/IhIEedwxbLsXS6WhUCLFoiX2y79G8mxD7v00XuDRXSHorEEPjfJpe8Wt3uJ4asbF2zZ5gPdWhckYpFJul+asAWPjl9pjUBYB4N6t2sPB0d7SqLELi6ypsyjM4zzG8WDFKE7+VLREqfx9YHxLYeQ0l9tJdfgNUpMH4wbxHwxScV+YsAI/cJ2FalCFxe5rk3JweO7/+OFc+2DdatW1XXIkCMLWhVADAhUKdOVdo1NJcsIuC7pV6Ucd45tgnKEb5XaYLn+7zghoOpTkftrQ9g4oYvBpWb9qQ/kl8XIAIKRamUAvVbrJsbfaLZ4iMxTl3P18zt+haFxdbTpRAQ0+5aFgBMBARUbkAszLQYbHK6Jn2hJz1LVbcIYOF7G3ToyJs8+JKM2s9jaXXju2lnfUCjXiwwUM7hgc3tMnpcPH8BkG44S+Tirl+2VWHNtRLjPycnKsf3h0e509DWflQ6Wl+5BcRgqXUBwEQAmx5iqaePyzAlwGIFPD2rPhGgZPheM+mo8Vip+Uhq1HOqJtYHsLoIwfjUF/78RYCJ66pCGtRnkW6sy11PjDPHNS+mjmXDv20TQ6mYxUI58xyxFo9i2l8PAsDc1vH1KtPeYdLnEjDO81DNSAAL3zvLQeF7hZCTkucGxA+iam3GUBMnXx/QoDu/wEBmbOPadSK2zdO8BiSH46+Uno/TJ+OqrNYXFnuaxDhzXPOiADDjsb6fgWrVjtX8tIC5vkKOehIATAgEV4mjNX18JZ8SSF/g6dA1AWoK32smILUdgxsOoTodJzj1aEBE0nBBowAL5lTjKwDYeQtVRoX6K86tLd7FMPdvm8iFEJutc1nEuIpV62tWCNiqc06f6U0AMBFQKqoxsbUiOWEj9Pvvlng5ZHcAywvfvJv6wveqTQCYy8Oi67Ewu864bbBe54mCBABL5HT1wAd8RcBzMhYqrz/WVVGNr6zw3i3U8eB8/oKBJZBh88F+UY00JwTE2IEeBQATAWxdwLh2xSUXAZeXexMpuEWQ7emv1qK7IFIwE6HejzEtRhFbXOdsQoBvYCBz+7br3UqAMPU9pCI61F9Rzkx1eyrGkeMa/iKAYbVzSG5qlRCmKREgxgb0KgDM6wL6NC9Hx8cIs52ccL62xodvj8uu845vL0MRjfqA/OsPFI0BWx9Qve1Yp1ofwNIkm8md7/HTVWH8bc3o21x/zKuCGmPxn7SOOCdHzb5n88HVa1XXhBDgU1/rc/QuAJgQaJMYSizzpDU29ry/uUHeiIGHPitHQQ36CyYCvoSht/NYr5rF3XeG0QC2mDGwAf/AQKwto5N60S8n3+QrAm6TsVBeFVCivopweYX3NnucDq4VJyBYD3BGp/coqEqcUwsBMe0PAfB3HoUG9WPo4AgPSUXA/76UJ4EQW/AX374TyN+Onn9WAoctsmvYXf3rA4QEBjLXdcjIBL4CgJ03RV/sq4LaGud6/CzGieMaccRvjdvBkR7Uv0VZKuWk6wOs68PnPQTAf2mVY2vWoN3DfCQTASfHudC9b6VPJbxzXUWQvwzkbyZKdqzcYhQ1VvH6AKGBgcx1O7KtHF8R8JhMhYqpgBb1UYRrnxUogNX/0hA5H+LL7hyWUa5ZwwinGw3Irk5ZfQcB8J8AYNMBLIrktkH5JBMBKZPd6FFyQb5ON8fzWO9fj5H9zASm5DEwfhDVyFwfMF2VUwMxAgMDMezqtOlCf50rkqOd/R0zwPClPthXBbVE1j91kL8lUa7qXYhYr9C8YEztR8uy830NAfCiAGBtXCGmAX3Sl5NMBKTNcpcsUNDXmwLR+5e5928tMtj6ALb9Tm3rA9hUhXVZ+bxngaJyCAr03/fpvnVVQI/aL8LV1V6r+DptnKecWGDhY6d0/IACK8erXgiIsQsIgJcFABMBftGNaFH31yUTAd997PWfUzWJzyS4aG6sKKfPhxhwTva7CSKbqG99QEQTYYGBWBsHxvcntn2Upwi4RJeKemufgR1cw4vLvI6IceC4RhkxcGCEJ/VpXp5KRjVWrRAQYwsQALYFABMBxSOTaH63NyUTAbc22r8zYMqUOhAACo8AWAqjCnEDqUrLUdS4tzrSDtcXGBjIXJcW3dsQm07iJQLSuaEOpkftPz59gecNMQ4c1ygjAMw4bx+cl5Lio1QpAsxlFHKEAMhaAGSOBEQ1knQ64Pev8/FzulmMEgwd1RACwIECwEyggfGDqWa7caqYFghJHCrKJtYvjeJriw/oIveG9lnYgTVMm+V+X4jjxrnKEr813st7FaHKNWqqSghYl5HPewiA7AUAEwEspTATfnzwzOmclEmu9DhF/KLArv2biXL2ZuLCMfthfqH4MPKt38Wx6wNqdRgvyiZYEKmfjr/FUwQY1jmQHrX/6NOT3Z7n5DzwvWNJ3xr/Y6NdaWKHopmLxhhROPrPunx83kMA8Gu3yGp1aN9waTIJssRBYsMF9x6SJMrZCyU2nC9MKEQ2HUEJPaY4ZESABQYKEhgYyNy+fYc25ikA2LqVQtHaZ2IH1TBlkmsGH4eNc9QlAlh77B/hRT2bVaASkY5dHyDGNiAA+AkAJu5q14mlw6PcJRkJuL0ltwDH+9+iwc9Wh0EAqGAKwEyglsfM9QGtRlOSA9YHsHTHlmUR8vqbzQH8bDHdcJbIxd1BFKntx6ZMdsUIgMQx2cUQoj3XbBuYjxrFRTtsJEBM2SEA+AsAJgJYfAgpcgecHOtC90UECfoj+XUKiB8g2tkLIQacK2wUwIwXC9PL4vUruW2QBS2qEDdIlF3UaNmNHpx5lZ8IMHHdtM3EDqqdUlMA+4d70MfdDTS65Vs0oMl71C2hGLWNK0VdE4rToKbv0YQ2b9DCrr60d6iXJD0dMaTk7Nd83PM1qlS9tuJCQAxuEADCBAATAb2alZfkt3Fmmhs9PWvg63j/Pa9Tv+aiHL2ZoHAUR+xCcQtNHEpxCq4PYNkNhZbRfD7bXcJrR4CJ+5XS83EOokntPvb0FLdnYhw4n2v2DPWiES3eplqxAVQuJIrK8vyrViUoUyAs6srRkVGukjg9PuXVwjlHR7vSuPbFqVxMQ8WEgBjcIACECwAmAsa3LybJ7+HSUuHxATaviBDt6M0OH0dlRADDOarpCEpUYH0AW4Mgtl0D4gZQ2u6S/ERAumGRdpnYQTWTIw3w9oG5qEN8SaoQGsmb9LMSB2GRYdSrUVHa0Ee6MKliCMvZrtk33Iu6NQmkEpFJsgsBMdhAAIgTAMUik2hh9zckEQG/7hG2NfDRucLEhm3FOntcpxz5m7Fmw/NVFVgfwIIVmZ8p9Ni4c3t6dr4QHxHwnIyFKjiIKrX52LMz3B+JceC2rmGr09kQf2BYhN3Eb0sQNKhZjlb1LCCJ87NVfi1+9unA/MQyzrHeo1x/YnCDABDfHixa4Pp+Brt/B6enuNGzc8KmAnasDRHt6IUSA86XTjCw1fps255c6wPYlkR72mvlohg+AoDI6HtYm0zsoFqdn+PxuxgHbn3NzsHeVKdagCzEby0GGtcuQ+t657fbAVrXQcvvWXhZtqVMDhEgBjcIAPECgLVhQOV4YsmjxGBvec21NT78HO8/AYIyjBw16dLOLmdvD1HgWvtEQWijoRTfdZIsQoCtPRDbPqEJfen2kXf42aKRa+EgutTeY9MXetyydAhiXm/ul5eiokMUIX9LMdAtoTh9O1Ka7VFi6u1s1xwd7Uaj25agspUSJBUCYnCAALBPADARULN2NWKjbmLwt7xGaOrgkzv8RTt6sQSB6+wjfmv8opuNpMSe0sYPqC0yMJC5bN0GNOUnAEzcbTIWyqs9NnZAjS4u9kq1dAZCX7Mh+eDwcMXJ3ywEYisH0Ya+WB8gpN32DvOmzklBmTHnpRgREPJs87kQAPYLANZ2w1r72S0AUj90p4zz/+3557Mqu/dgBAYyE5ezHtn6gNjWYyipjzT5BewJDGTGcNf6YL4iYKoD6FJ7j7y0zPMbs1MWevx8YC4KiQhzGPmbRUD50Ega2eJtSXpDQjFw5vM3DyhA9etVsXs0QAwGEADSCAAWBGpT/4J2i4DvNwsLEHTt4PuZ2d3MjhtHaXvoSuIZ1HAw1e4ozfoAewIDsTpXbdaD7qa8zkcEPKZ03+LaY2SFa3Rlpc86MQ6c7euPrRLkcPI3iwB2bFizHO0c7GO3MxSDhzNfwzLPhcfWFS0ExNQdAkAaAcBGAVhuiCOj3Oyy+5PjXOivEwX4ON5/z5k8uS6mAlQaHVCMgAhrPMzu9QH2bAk0l3nchPr/2lj2o1G+OxWmS+097voa72liHHib+qVURf5mIRASEU5zOhW2yxmKwcPZrzk8yo1GtClF/pUSBQsBMXWHAJBOADAR0Kd5Obtt/sJCT56O9+/pgt9PvUGRjXtDBGhIBDASrtR8JDXqOVX0QkEWkdBM5mKOLLRxypd+/Gwx3bee9lhZwRpdX+fdTagDZyvwzYSr1mP7+JJ0aKR9vSKhuGjh/N3DfKh944rE9pvzXR8gpt4QANIKANZea/r42i0CftsrLDbAioUxdjl7MQSBa+SfbgiIH0RsOJ/N6wvdOhgYLy40sGW7NujQkZ6k8YoNcJkuFfVWkDK19aibG7yrC3XgibXKql4AMGHCtgtCBIhLYrSxX0GqU6cqLxEg1H7Y+RAA0goAJtYiYuvStyM97BIBZ6e70fM0/rEBHqcWptqtu0IEaGwUwEzGwQ2HUJ2OE3iLgLiukySzhSXzqvIbBTByw7TFygrW5vomn/eEOPCl3Q1OQf7mkYlGtcpCBNiR7GhO17cptGq9bIWAEPsxnwsBIL0AYCKA7e4wYyz2KDRjIFu5bSYMHOXvnTsC4/DGw6hBt8k5CoEQO2IBWNerYsN+dP3b9/mIgAd0zvCmgrSprUexBUB8nAXLRlYnVplgP2YCl+LIRADiBfBrY1t2wFLRDm1VmkpH214fYOuanD6DAJBHADARwJJC5YR/dt+fGu9Kj5ML8nG8meew4EAtu7eBCNDoKIAlMcew9QG9Xl4fwLYSspDDludK8bpDnxZ87fA8GQu+rS1mVqg2fBMCze1U2Kl6/5bigU1bQASIFwGMMHYNzUVtEkOpmFVY4ezIJKvvIADkEwDBVeLom+H2ZdUUmizozFd+kjt/KQgE95B+RIKtD6jcYhSx8L8sqiBbK2Dvwr+s2imoQX8y7inBVwTcQa4AEaIh9UP3h1k5avPnLMtc1crBTisAmBiACLBPAJhtYV1fLjMKnXmRoPlzIUcIAPkEAGuXVglhdo0CsLa8eyA/X8ebeV7/YY0gAnQwCpAVWUv9eY+BTYnFm8h+K+BLAazuk7FgLRE0qN9LjPM8fsnJebPUvJY9amd9nVATIwE5tTWf79l00Ied36GKVeuLIhoIAHkFABMBC+zMGpg6y53Y8D5fB3zr0LsU3KA/RABEgF02EN++Ex3+rBxvu7Nhn08p3bejfhldYM3TF3hezcnps5S8zkr61uVmAYMwHSDNaMAhkbkYIADkFwCVqtem43bmCvjx8zyCHPGMabXtcv5S9yJxP+mnAOTCNCqpN61dEk1P+W3/42OXEwRSoT5Pv/ixV3JOAkBtUf+sSV3o+5b1/Ij1YnOqN76XByMIAPkFABsFmNH5XbtsPHmiKz09w39BIAvjWqlJL4gAjALwtoGA+AE0YWI9YoGlbPTm7f1sDRldvPTJ7DxrfXm5987siI6l+hVKsM5w/thWb9rlHLPDDN9lLxwgAJQRAGGx9YhlgbTHHq+u9hbkhFkvTq5eIu7rPD16Pm3VqW8L+u6booLsS7BIMHLf0JkCBXjSof5Ou7bKa1l2DmJmh1dlFwCRsbUpoVlr6tZnAPUeMIQatWhDEVVryvpclkRoda9X7HKO2eGG77IWARAAyggANgowqUNR+2x8rAs9OPwKbyfNhnDrte0MEYBRgCxtoG6bLrRvcwBvmxJM+qaX1q5gm2BW0ubaGp8x2ZEVC6srR4++VnwjWrJsBR05epROnz5t8+/AwYO0bsMm6j1wCAVFVZW8HJHRIbRnqH1bprLDDt/ZFgEQAMoJALYtkMVysMcWjfM8BDnrrzcFZun8+fQMcY62evrm9gxP7EPLF1QmFkFSAlIXeg9sE7QlAm6s82mdlXNg8+QRUaGSEm9s3Qb00aIllJKSYpP0sxID3x46RGMnTqHo6nUkLQ/bGXDMzsVSWeGHzyEAWC/c0X+j25awSwAwO/55Z15BDrdtr1YQARgFyLQBluBn1Nh4+uXEm4JsSAaRcJ+Mhpq2eFC3n11fnys8K6La0i+PpGTbsXsvOpWcLIj4rQXByZOnaO6CRRRTs55kZRvY5D27HWRWGOLzl0UARgCUFQUVYhrQQTvzBJye4kbPzvHPE5C2uyQxx2/u/eGoTyxa92wtJJiPEgLhKZkMHXRL+NYVv7UpvyErkprQ+g3JSLZNp252k7+lGDh85Ah17N5bsvKxWAdZ4YDPXyZxezBpUD/G4b1iR/fKlX4+C+dsT5uxa2+szyXIQQ8ZmQABoNNRgBotu9FX64MF2YsMPf7sno9tgmYxcGqCa4Yt59C38QeSEGzzth2J9dwtCVyq12w6IaRSNbvLGRIRTjsG5bLbSdrCEZ+9KCD2j/CiHk0rUInIxhACCk0RlK2UYHeIYJY35K8TBbJzqi98d+fIO8SSuqD3r5/ef0hCP1o4N5b+OlfkBVtQmNz5PhvbBJkIODPN7YktkurYoITdxFojLpGOnzghC/mbRcSevV9TYvPWdpe1dmwAHRll37YpWzjisxcFgBmPzwbmp4S4ShABComAfs3L2S1wLyzy5OtcM8+bM7MGBIBORgEGj0ygH46+I8g+HC4M2DbBKwVfMXeGdXlMm+1+z+yULY9N6vjbTaofL1shK/mbRUBycjL1GTjU7vKOavmW3U7SEkO8tk3+lrgs6fEaRVevDSEgsxBgGR33DPOx275/25uPt5N/cOZVqty0J0SAhkVA065t6fROP9424XDSxzbBF3VO+kLPK5YO2fy6TjX70v/GJ7VQhPzNIoAd+w0ZbpcICAqPoK8Ge9vtJM0Y4pizAGAYsYRTY9sVp3IxDSEEZBQC3ZsG2G3bZ6e70fM0/gsCNy6LhADQoACo2qwHfbY6jJ4bfZ2Z/M1l1+82wUvLPPfZIqpKlSraRaafrN+guABgImDA0JF2lbtN/VJ2O0lbeOKznMXAvuHe1LVJIBWPTIIQkEEIlIpqRHuH2S9wb2/JbXacOR6fnS9ELMkL1gJoYy0AS/o0e2ZNYqM7KuzN21MmfW4TvLo611xb5BQQFiGaSJu0bu8Q8jePBgwaPkp02VngoxU9CkIEODBfwtYBr1B8vcoQATKIgMGt/O227VPjXelxMv88AQe3locA0MAoQJ8hScQyP2qM+C3ro79tgjfW+bSwFgAHR7jbRaCz5s13qABgQmDIyDGi61C9SlDmsLQ1Lnifcy9eSowWdn+DIqrVhRCQUAgEVI63Ozoga+NLy7wsHWeOr1nsd4wCOOcoQGLHDnRie5kc21hDwkA/2wTv7HDJnWy1FfDLwT6iyZP1oNnKfHNv3JHHDt16ia4HEgYpS/ZZCQe2M2Nkm5JUplIChIBEQmBKxw/sHgVg7XX3QH7epJD+dXEKiBsAEeBEIwEsuyNbw/H8vCbm+Xnb6j9CRj/bBE0fefxg6YA39M0nmjhZuF9Hkr7ls48ePUbV6yeIqktweDjtHoJcAZZ24cjXe4f5UMfGwVQM6wPsFkKVqteWJCV26ix3yjC+lHwlS0c7cmw8BIATCIDA+P40dWodYimeNdSrF14XvWwTvLrCZ4Olc1/WvaAo0mS9f5a8x5KEHf16x5c7RScTYsmQLHHBa8ePCmzqX5Dq1q1qNwkqHY1Pbc9b0vM1SWz7x8/z8HasPx1/i0IT+kIEqFgEdBvQjK4e+IB3m+pAIGg/m+D3G30qW5Lbqp4FRAsAluXP0aRv/XwWMVBsVkOGhSU2eO14EcDaYF7Xt4jlvFcbsTpLeVhIZilsOXmiKz09w39B4Pw51SAAVCgA4tp1IrZYUweELqaO2t8mmDrL/YHZIWzpLz4R0Nf7vlGdAGCCoPeAIaJEQK3YAEmGS83Y4iidgGCpboe19iP/6EQIARHrA7YMkEbcXl3tzdup/nn2VaravAdEgEpEQGTj3rR6cSV6mlaIdxvqVCRoe5vgtVVey83ktGuItyiyZL1sKeL+f7nna1q7eRstWLmOVm7YSp/v3E3HjtsXUvjkyZNUJ6GJqHp93N0gSW/JjC+O0okAhuWuobmobWIoFRNBgs7SY5ejnO0ahUhj12Nd6MGRV3gTyKerwiAAHCwA2ILM8RPq02+n3uDdbjolfkt8tLtN8M66fL7JE/9ODHR4pJsoomSJeayH34W837ZzNw2ZMpvaDRr70l+noRNo1seraP+3h0Q/Y9OWrVQuNFpw3RrVKiuNo3Tg3no9iI71/QxUq3YsRgN4CqGSUY1ptwThgZltGed5WDrKbF+z6HGNOnWACHCQCGjfpyVd+LpYtm0Ess92cas2twleXOJ11kwUgeHCAwHZswPgk62fv0T6toRA+8HjaO6yNaLTC3ft3U+wAGAjGxv75oUIcBIBM6vLO1Sxan0IAR5CYEDLMpLZ9c878/ImlaOfl4UAUFgA1G7dlfZuDOTdRhAB2YoA7W0TvLU+VwiL8sVEgJhQwA2atBTVO//0i6+IEbstws/qs4GTZtHX+w8Kft6BAwdFpRDGjgBph+3NQlOu46GR7jSopT/5RTWCEMhGCJSPaUCHRrlLIgJOT3GjZ6n88wR0G9AUIkABERCW2Jc+/qgKPU4tDPJ/ORmQeEy0uE3wu4+9jjGnXCdWeDKgVh27CibkUyyT39jpgsjfLArYtMD2r/YIfubk6R8KHgUoHxpJOwfbn01NLsLDfW0LlJ1DclOrhDCIgGxEwKQORSURAMwGb67PxduhXtpflALiERxIrgiJFeIG0vAxDeh/x9/i3Sbo9Wfb67eFo7a2Cd5en+utlEmuGY1rlxFMkt37DBBMxis2bBFF/pYigC0SFLLWgImOWvGNBNevb9L7kjlKELZtwpYLlzV9fKl6reoQAjaEQFT1OpLtdDk5zoX+OlHAlqO0+dm4CfUxCiDDKEDL7m0odXdJm5iD5AWTfE443iZjofIv5tl14ndXVnpvbhtXSjBBdurRRxARM9IeMPFDuwQAEwIdh46n7buEjQR8smGj4Pqx6ID7h3tABDjJWgBrMXF8jAtN7/QeBVWJgxCwEgKLur8umV1fWOSZk8P89/tfTr5J4Yl9IAIkEgHVW3SnLz6pKChCIwSBJIJAO9sEab+LR8+mJZ4JDZ7TvG1HQQLg0JGjdpO/eSSg5+ipgrcKNm7ZVrAIGN3yLckcpTVB4b0yowIHR3pQvxZlqVRUYwiBf4RA/XpVJLXr3/bm+5fkcyKYJR9VhQCwUwBUbNiP5s+uRg/PFuGNe07tgu8FCwPtbBOsXCXwrFABENe4uSABsI7nyn8zyed0nDp/qaDnr1i9RrAAiIoOoSOj/l4oCcJWhrDlwvmLwXmoWYMIiIB/RMDG/tKlwT473Y2ep/FbEPjoXGGq0bIbRIBIETBweCLdOfIOiF/KBX723Wu8E08A/F30UgEhHwkVAFXrxAsi4I+Wr5VsBMAsDrZs38m7DCkpKVRTxFqADzsUkbS3JBfB4b78BMrK3oWpSs2auhcCbRJDJbXr21ty8yalHWtDIAAECoCkLu0p5cvSvDFGj15wj94ebJ17m2DJciHVhQqAiiMubOYAACAASURBVJVieZMvm/+fvnC55AKg+6gpdOTYcd7lmPPRAsGjAA1rlpPUUYKo+RG1nDgdH+1KLE1uQOV43QqBEpGNM6MqSoUz21L8OJlfngCWVbBp13YQATxEQJVmPWnrynBiAZVA6oqSujC807l9dKXgK846GuBWpmJkhlARcOrUKd7kO272IskFABsJmDhvCe8ysBDBUdXqCBIB5UKiaPdQpAqWiijUdJ/9IzypV7PyxKLkyRF+V+337NdcWnF7aZkXb6d56gt/CIBsBEBwg/40c3otenDmVd6YQiA4XCCcpzTDW04pAvyDw38TKgD2HzjAm3yHT58niwBgImDDZzt4l2PspKmCBADDZHJb6VZNq4kAUZa/RyM+H5SPGsdH6U4ElItpSN+OlHany90D+XkTVu8hSRABNkRAr8FN6Ma37/HGEcTvcOK3bCvn3CboHxh6TKgAWL9xM3/inb1QNgHAdgWwOX4+8QEOHT5MQVFVBYmAROQH0MU0yNKer1JMjVq6EgLj2xeTtG1TZ7nz3pZ27eD7FBjfHyLgHxHQsENHYmGTQeiqInQx7eF82wT9KoTMECoAJk2byYt0GTFPXbBMNgHARgFYiGE+AoCd075rT0ECoFxoFO3BNICkRKHW0Ydjo11pQvtixMLmqn0IX4ryRVSrS2xNhJTt8ePneXg7zcmT6+peAEQn9aL1S6Po2Xmk6dWQ+HGubYJ+5UIihQqAjt178ybdOUvXyCoAxs9ZzLssiz5eJkgAMFymtntNUicppcPFvaRfWPjNcC/q3jSASkQmaV4IzO/2pqS2nTzRlZ6e4bct8PdTbxDLUy9XiFw135eFRmYC6I/k13kLJg0RpF7q7DzbBMtUjHwuRARUq9uAN+ku/WSTrAKgw+BxdPjoMV7lOXbsOAVFVhEkApAmWHqSdQbh8unA/JRQv5KmRUCdulUlFQCsXa+u9uHt4FcsjNGdAOjcrzld3l+UN0YgfqeeFlhNyS6eql8c6B8U/rMQAVAuNJoOHznCi3Q//2q3rAKATQMwkcF3GqBtlx6CBABLEPT1ME/JHaUzkCDK6EKLerxOLI6+FMPuarzH+n4GaW17rAs9OPIKL4JjmetY+lo199alKlu9tp3pwJYKvHAB6Ts16b/Yxs6wTdAvIPSQEAHAzl27bgMv0j12/ITsAqDf+Bm8ysJEwsIlSwUJAFbXae0xDaBnMXB0tBuNaVuCylZqqDkh0DIhXFoBMMaFjPM8XnSC2URc27U+WNMCIKJRH1q5KIaepGGeX8fCRt3bBEuVrzhBqAAYP2Uab9JlBM166nL+7di1l1d5jh47RoECpwGSapeR3EnqmVCdte5fD/emzklBVFxD6wPYWgeWTlnqNvl5Z15eIoAFB2JZ7aTqaavlPgFxA2jM+DhiiZB0THyo+3/iV73bBP39g98SKgCat+vEi3BZr/vDJStlJX8mLKYtXM67PG06dRM0CsCmAfZhGkBykpCadJS635YBBSiuXmXNjAb0blZe8rY9PcWNnqXyWxB45is/TQmAtr1akWlvcZDff+QHLP7G4h6lG2qock2Af3D4T0JEQIXwGGJ76/nMvX+19xvZBUCfsdN5lYWVd/L0DwUJAIbLgi6+kjtJpQgLz5FnISNbRR8RW9fphUDZSgl0cIS0gYGYzd1cn4u34x8wvJHTi4CarbrSrg1BvOuMkQENzfXzFztsm2B71YmA0hUqfixEALBz585fyJt0B06aJbsIOMozP8CGTVsEC4BBTd+DABgjD5E6s0A5PMqNRrQpRf6VEp1aCIxtV0Jy+z45zoX+OlGAFyHeOvQusTC4ahnCF1KO0IS+tHheVWIZD0HquiR1Me2urm2CJcpWfE+oAGjRvjNvAbBiw1bZBcBnX+7iVZ7jx49T+bBKgkRAY6wDkJwgnJn4rcu+Z5gPtW9ckYo56fqAsNh6xIIhWdfL3vcXFnnydo4zptV2OgEwdFRD+vHY27zrCIEAgWBhA+raJih0O2BARAzv7YBHj5+gjkPGyyoClqzdyEsAsGmA2g2TBAmAkIhwOo4esOQEYS/BqO36jf0KEttfr8YtfzmVaV7Xt2Rp39/25uNFkHdTXqdKTXo5hQho3q0tndtVile9LBw+zuc/VK4PrNS0TdAvIGS50FGAeQv4R+KbMn+prAJg9tLVvAVAj34DBQkAhsvnA6VfLa02AkN5pJnmmNP1bQqtWs+phECt2rGyCICz090p4zy/BYFrl0SrWgDENu9O29eE8s57APJHj5+HDaSpIpugf2DgB0IFQKsOXXiT7vav9sgqAKbOX8q7LDPnzBMsAGZ3LCyLgwTpSkO6asPx8Ch3GtqqNJWOdp71AZ/05WSx8dtbcvPq0T1NK0QsaI6QOXglzq3YsB/NnVWd/jyLNL08CI1XW+M+L4gjdWwT9A8K/0WICGDTAELSA/cdJ19MgDGz+C9K/GzbdsECoE/jD2RxjmojLpRHWkGya2guapMYSsUimqh+RKBZwwhZbPzUeFd6nFyQFzF8vSlQVQKg/7BG9P3hd3mVHaT2AqkBM2FTHo7fJlg6IGS1EAHAzh0+Zjzvnve2L3fJNgowYvo83uU4cuSIYAEQX0P6/dIgW2nJVs14st51zdrVVC0CWJCjLwbnkUUEXFrmxZsQ2F56JXr22T2jUef2dHKHP+8yg/xB/hLYgGO3CZYsV7G4UAEQVqUGsUQ7fGICsHNmLpYnMJCQzIApKSmCdwIEhkXQURlWSquZtFA2aQUKW0g6s/O7FFwlTrVCoEfTCrIIAGZLdw/k50Wo5/eUoApxAx0iAmKa9qTNKyLo+XlfXmWVwOnjOcJ6ynrAy3HbBP2Dwn8VKgKmzZzNWwCcOHmSWOAeqUMDz1i0gncZmBCJqFpT8CjA5n55ZXOOIFtpyVbNeH470oMGtixDflGNVCcEWEyD/SPkSYCVNsud9wI6tsUuux661N8FNehPbCvivZTX9EAwqKP6RYdjtgmWLh8yS6gAqFonnpKTk3kT8Be790ouAD5a8Qnv5zMBUL1+gmABML39qxAA2A4pmQ2wOPwtEsJVJwJGtS0pWR2thdiP2/PwIp87R94htvhOaqK3db8eA5vStYPv8yoXevwY6lfMBhyxTdDPz8+rTHDEU6EiYPFS/vH4GQHPXbZGUhGwcdsOQQKgQZOWggVA/6T3ZXOM1o4S7/UzIrC6TyGqVqu6aoRASNX6sk13pUxypadn+G0LnDOzhqwCIL59Jzr8WTkQv/p7w3puI+W3CfoFhmwWKgDiGjcXRMCnTiVT/wkzJRMBRwSsQ2AChEUyFFrHLg2LQwBgBEAWGzg+2pWmdXyfgirHq0IIzO7ytiz1ZML22mofXg79wZlXqXLTnpKLgKik3sRiDrBth4r15kCywFq8DSi7TbBohQqFylSMzBBKkEtXrBIkAvZ+c4C6jphktwgYPJn/GgRG/uyvS8++ggVAi3qlZXOK6PHrp8efXVuzxDx9m5ejUlGNHSoEqteqLp+tj3WhB0de4UUIG5dFSiYAAuIH0ISJ9ej3U2/wejbEAYb7VWQDym4T9AsIPSRUAFSpHUfHT5wQJAJ279tvtwhYu3mboGcyAdCtzwDBAqBBzXLyOUX0rIGthQ3sGJyXmjSIdKgIYFMT2YkVe74zfuTBi4SfnS9EbKje1ty9kM869W1B331TlNczVeT0UV7xvWYtYqfcNsFSZYP8hQoAdv6IsRMEkzETAd1GThY1EtBv/AxKTkkR/MxWHbsKFgDVqwTK5hDtcaa4VrujByt6FaYqNWo6RAgwASKnbf38VV5eTvrg1vKiBUDdNl1o3+YAXs8B8aPH7ww28DS19EhFUgqXDgxLFyoCAiIq067dewQT8reHj9KoGfMFiQCWYIiFGDYP6ws5NmwqfBFgRFSorA5RTmeLezuvSGCZ+iZ1KEoBlRsoKgRYdsPtg+Xb+np6ihs9S+W3IJD14IX0+MMT+9DyBZXpcSrS9DoDqaGM/MXX/atbHisiAPwqBNUSKgDY+UJSBVuT9tJ1m6nT0Ak5CoEOg8fR1h07RZE/e2a1eg0FjwBUCJW3RwSSdl6SVqLt2P78Xs0qUIlI5dYHdGsi76jXzfW5ePXOL3xdjALiBuQoAlgAoVFj4+mXE2/yui+Ihz/xACvHY/Xn2XrE/v1+ZnCcIiKgdFDYD2JEwLKV/LPzWYuAo8eO0+I1G6nHqCk2hQCL+8+mDayvE/KeRTAUU6+DI9wxCmAxV60E8eEZLwqjbYPyUaO4aEVGA1gyo2+Ge8lm8yfHudBfJwrwImtG7NmNArTu2ZqMe0rwuhfIzPFkhjYQ3gb3r3+eKQD+MM07o4gAKFU+pLsYoqxcK44OHzliF0mz4EJ79x+kTZ9/SSs3bKWtO76i/d8esuueTCSw+5YLjRYlAHYO9pbNGYLoXiQ64JE9Hh/3fI0qVa8tuxAY0aaUrDZ/YZEnL9L+6fhbFJrQ9yURUKNlN/pqfTCve4B0hJMOMFMHZo9Ty1JGxrNMAfDXT8lPFBEA7CH+QeF3xYiA1h27Eou7L6RnrsS5Bw4cFEX+DAOEA86elEDayuLD8lOMa1+cysc0lE0IsNwFR0e7ySoCfvs6Hy8Cnz+n2r8CICShHy2cG0t/nSvC61oQmTqIDO0grh3ummZkkv/f/2XQg6vLyikiAkpWqNhUjABg14yfMk11AuDjZStEC4CVPQvI6ghBoMoSqFbw3jfci9h8fYnIJFmEAEtiJCdWZ6e7U8b5nBcE/nn2VYpt3p0Gj0ygH46+A+LHNjld2MDz86/R04e/WAgAovsXl+xRRABkjgIEhqaJEQHlwyrRuo2bVCUCeg8YIloALOteUFZHKKeTxb21Ly4+HZifGtSPkVwExNasIbvd396am5cz/yP5dV7noacprqcJ3NSH271zXV4gf/bm4Y/HHyomAEqWD323TMXI52JEQFS1OrT/wAHViACWvEhMPdg1G/vmk90Rgqi1T9Ryt/HC7m9QZLU6kgqBlb0Ly2r7p8a70uOUgiB39OphA1Y28NdPp18SAJTxnOjPC68rJgL8AkJWiCXOxi3aCsoYKNdagK927xFN/qzuXw72kdUJyk0MuL9+xAWbtx/dtiSVrZQgiRBoFB8tu+1fWuYF52/l/NEjV1+PXMk2eXi2+svk/88nD66uWaWYAHBxcXHzDwq/L1YEdOrRx+EiYPqsuXYJAGwD1A+BakUs7R3mTZ2SgokF9ika0UT0X7GIJsRCFMuNy72D+SECIAJgA//YwP0rG7IUAH9+v/cXJQWAi19AcAuxAoBd52gRICYNsLm+AWEIBCS388f95RNYm/sXoHp1q4gWAEw8TGhfTHYBkDbLnTKM+u71KdnDxLPUa2tP0kpQxvMnWQqApw9/ySAiV0VFQOnAMKOZFMUcO3bv5ZCRABacSEx5zddERYfI7vxAgPIRILD9G9uPur1JYbH1RAmB7k0DFPkN/Lg9D3qAGAXQvQ3cNU7IkvzNX/yeOqKtsgIgIKyomHTBZiJlxw7detGp5GTFFgayeAS14hvZJQBqxSrj/EBUEAFy28DhUW40vE0p8o9OFCQEhrRSJiV2yiRX+vMov5TB6MGqtweLthHfNhnGV+nJ/Ttmns/y+Nu5qecUFQDsYX4BIWssCV3M6/ZdewpOHyx2ceDcBYvsIn9Wv8a1yyjS+5Hb+eP+EBhmG9g9zIfaNQohNr+f0/qAspUa0t5hyi2CTZ7gSn98g/UAIFHxJOrM2N0/1yZL0rf84t7VHcokB7JUGTExMR7+weG/iSF+y2tqxjeibdt3yDoScOjwYWKhiS2fK+Z1uzh5Q6KanTKOIGilbWB9PwPVrhObrQhQYv7fut4nx7rQ/77klzbYmZ09yq5Pks+u3f/84aglz2f5OjNA0KZG7pb8rMjr0hVC/MpUjHwmhkwtrwmIiKGJU2fIEjb46NFjFJ/Uwm7yZ+Xt1agoRgCQCEjTNjC7y9sUHlv3BSEQUrU+jW9fjI6PdnVY3b/fzC9IUHYOFd+BZJ3FBv46G5Ul4dv64reUft0VIX3rh5QqH9LNkszteZ3Uqj19ve8byUYDjh8/TonN20hC/qxe41q/6TAHaN0zwnuMEshlA8fHuNCq3oVococPaE6Xt2XPA8C3HldXeWN3ABYG6mJh4L1Lq2zxfJaf3TXNPWLNzYq9LxUQusMe4re8Nqxyjcz8AfZmEmQ9/6atO0hG/qyMSAQE0uVLVjhPHlthmQOfpeacM8BZenooJ0YlrG3g6fmi9PzpX1mSva0v/ry1965ihG/rQaWDwu5YErm9r4Ojq1K/wcNo1+49gkYETpw4QZOmzaSIqjUlJf+I6FBiPSM4dmAAG3CsDaTN9kDIYIwEaHYk4F7acFscn+1nTx/+L8MWLyv2mb9/8FtlgiOe2Ev81teXC42mNp260cIlS+nzHV/QyZMnXxIEbDvhV7t208zZ8yimZj1Jid9cngohIbRjfH46Oc6xzg/kA/xhAy50ZpobPTxWQLMkYN0rxHt9jBRkGAvT47vXsyX7rL58dPvzEooRvq0HlQoITjITplxHll2wWr2G1LpjV2rRrjNVq9uAKoRVkoX0LetQomwQfVCqLDWuU5SOTFNuKxScPQgfNmDbBpInutLdA9gmCHGgHXFw/2yTrPg9x89/T5s0xxYvK/pZqQqhKy2JUyuvi5YunykAmAhgf6M6vkHJUz0wJYBpEdiAA22Ajcj98hW2CUIEaEMEPPh+X45En9UJd00LzitK9lk9rHRg2CWtED+rh39wxAvkbxYBfmX9ac0wjk5NcNz2KPQObfcOgYu+cLm9FdsEIQKcWwT8da5iVtzO6/MH13Y8yIqTFf3czy8mb+mgsB+0IgJKVahoUwCYhUDlqJL09eS8dGKsvpwuSBbtrSYbuLraB9sEsTjQadeF3Lu4iBfRZ3XSo98uOXYhoKXKCAwMzF06KOy2FkRA8TIB2QoAsxDomPgenZjuhSFhBw4Jq4mQUBblBdLFxV7YJggR4HQi4Nn5d+j54/tZcTvPzzPox4O1y1jysENfa0EE+AeH8yL/f0TA5aJ+ZeKurMo1+8xUt2cgAOUJAJgD8/NzPOjJ6YJORwIYwnfuIXx72u9e2gCeJJ/9ab8e7bzYoaRv/fB3Y2J8SgeF3XLWkYDiZQL5CIB7H5QqM8jPz8/LXP9bm/IbLi3zPnBqPNYHgJRBykrbwFm2TfA4tgnaQ0q4VilB4kuPfruYPbPz/PbXlHEXzBykmmOmCAgMv+lsIqB0UI69/4yiJcstf9fP79WswP5+Q67QCws8byrtAPE8kK7ebYClFL53ENsEQeRKEbm45zw4G8+T3nM+7e53637Piosc+jnrHZcODLvhTCKguH92c//ljrxfwj+IL6g31nn3TP3Q/aHenTLqD2GipA2cHOdKv+zCNkGIAHHkrARuD258mTOz8zzjz+8PKp8amC8J/iMCrjuDCCgdGGZ76L9k2VvvlyzblG+dLc+j/S4eV1Z6rUmZ7PpcSSeIZ4F09W4Ddz7FNkElyAzPECY0HqeWJ8p4zpPecz7t8R9X1LMTwJL8zK//FgGhx9UuAor5V7AWAA+L+pUZ+3pgYG5zXcQe72z1eefiYq/TLNe53h0z6g8bUMoGrq3FNkEQtDCClhuvexfm5czqAs7IePaYne0mlpsUu65khZD+ZSpGPlOjEPALCLEm/w3v+/m9LTU4tz7JXds41+NnpRwgngOy1bsNfLfEi56nIZug3MSG++csNJ6kFqfnT/4UQO/8Tn18Y5Of1Fwly/38AwM/8AsM+15NIsCfLfzzK2cWAKff8ysbJUvlLW56bbXP2LPT3Z7o3Tmj/hAoStjA+bke9OQMtgmCpHMmaTkxumucyY/RBZ5198LMXhb0ov6XfgEhy8tWjMxwtBAoUzGSMmP+lyz7U9FSZTu4uLgoNpTyv00ueS+v8P4ieYJrhhJOEM8A2erZBs5Od6e/TmCboJwEh3tnLTCepH4gQeAf28rg3sW5q9XP+lYl9KsQXNU/OOyBo0QAI/9i/hWefuBXdkbRoiH5rYqn2Ntb6/KUvbDI8zs9O2fUHeJECRtg2wTvf/sKAgYhcqDiNvBH2mTb7C3Bpw8urTiuGGFJ+SAWL8CvQuhhpUUAS/ZT3D/gm/dLlS8mZX3sudeNdT6t02a731PCEeIZIFy92gAL1PXrnnyKEwB6x1n3jrWOzZNz79CzR39IQPW2b/Hgxrab9nCPw68tVSE4unRQmEkJIeAfFP5ncf+AJIdX2kYBaIyL25XV3gtPT0FYYb0SFOqtgDgb60I/bMsDEYCRAEVs4I9zY20zt0SfPvzxyD0bdOJ8H5UODg/2Dww/K4cQKFMxMqNUhZB1gYGBnmpH5sdP8xa+uMzrCAtqAkJQgBCQzEiXdnbjEx8io357plrveauhfk/TStGzR3clovqXb/P43m2683Wb39TOaYLKV7Zi9HulA0LXlwmO+MteMcCIv3RA2MlS5UNUM9zPF4ybG32iTfM9bkMEQATABuSxge+WYpugGohSq2X488a2l1lbgk8ynj2i24cmUfKkvJQ22+M+X05xuvNKlg9uUzowbJd/cMQPZUOinvMSBBUjyT8o/NdSFUJXli0bXtjpKm1V4Otrc/U/N9P9L5CAPCQAXPWNq3GeBz09g1gBWiVhR9Xrz/NNJaD6l29xPXkdnZ393r+jdmemuT2zogxtvi1aq5Z32YoRUaWDQgf5BYauLRUQeqR0QNiR0gHhn5cOClvsHxQ+vExwWKWYmBgPrSFg3OTidXmlz8aUSdg2CMLWN2HL0f7nZrjTo5PYJugostTac5+df5ue3Lv1Mnvb8UnayV00rFMlOjjC/V/yZ7+F05Pd1B0OWGtk7Mj63Nzg/cHFxV6pCCsMEpSDCPV8z5TJbnT/ELYJao2MHVGfu+nz7aD6Fy/95cdrNKR7HFWJqUi7h3i9QP7s95oy2RUCwJGk7Ihn31yXO/78XI/f9OywUXeIIKltgG0T/G0vtgk6gjS18sz7yVUkSfjz9MkjWjS1J4VFhlNIRDht7Z/nJfLPFACTIAAcwcGqeOa1NT5Tzkxzeyq1I8T9QK66tYGxLvTjdmwT1AohK1mPhykczRxSm25ePv1iN17Au2fPntC2NVOpVvVwYmveyodG0ooeBW2SPwSAKmjYsYX4da1L/kvLvfecmoBtg7olLWxlzNJBirWJG+tzKbJPXEmCwrPk3fbZv03Jf0m7S8tqtGX5ePrj19u86P/Xn27QnPGdqEqVsMx7mBe8z+xQJFvbZuvCHMtAeLoqELi9PneF9AWeV8U6PFyHXj9s4EUbuLTMizLOY4cAhEPOwmH15HdfIG4zgVcIjaTmiZVo5uj2tHLuQNq6chLt+3wxfbP9Y1o0vRcN7FqfGsVFUVB4xEvXD2v+Trbkz36vyRMhAFRBwGopxI31Ph1TZ7k/gDN/0ZkDD+AhxgZMH3nQ07MQARABWYuA5I2vU0DYywRuFgFijp0blsiR/Jk9YwRALcyronKwsMJXV3ovPT3Z7bkYp4drQJawgf9s4NxMd3p0CimFIQJeFgE/HChEMTEhL/XexZC++ZrGtcvQkVH8pnRZankVUQ+KoiYErm/N/dp3S72Onxz3nzODYwcWsAHhNnB6ihs9OIxtghAB/4mAx2c5SqpXTlLyr1k1kPYP9+DV+2e/47RZ7tqNBKgmMnXmstxY71PV9JHHj3D8wh0/MANmZhtgC21/34dtghABHGUYORrYurik5B8VHUI7B3vzJn9ml8aPPH5yZm5C2RVE4Poan2FnZ7g/Mjs0HEFusAFhNsCCcP20A9sE9S4CRnYuJin5R1cKoe0Dcwkif/bbvbDQ87KCFIJHOTsC11a4+Fxe4f0ZWz0K5y/M+QMv4GW2gZsbsE1QryJgXE9pyT8mpiJ9MchHMPkzW7z4sVeys3MSyu8ABL7f4F38wmJP04mxcOpmp44jbEGIDVxe7k0Z5/+bE9YrIeqp3pP6Skv+VSsHCx72t7RRFgPGAfSBR2oFgZvrcyUZZ3v8YWlUeA0ihA3ws4H0BZ707By2CepBBEzqVVTSYf/YKkG0a4iwOX/r3+XV1d4faYWLUA8HInBttfesM1MRVtj6B4b3/IhQzzilfuhOj5OxTVCrIoAt+JvY/X1Jyb9G1UDaM/Tl5D5Cf0fXN+Rq6EDawKO1hMCtTfkNl5Z77mdJUYQaIs4HUerZBtg2wT+PYJug1kTAozMc9WtVQlLyrxUbQF8P87Tbx7Lt3Xd2uOTWEgehLipA4Nb6XCHpCzxv6Nmho+4QNEJtIHmCK/3xTX7kEDBpY13EjwcKUaO65SUl/7rVKtC+4faTP7PNczPd/1IBXaAIWkXg+lrv7qkfuj8U6ghxPshTrzbAtgn+78u8EAFOLgJOb35N8gh/9auXFxTkx/o3dGCEB3070v3fkYP0BZ7Xtco9qJdKEKD9Lh6XV3mtTpnsirDCyLr3r/Oxdk54/6Lou7UJ2wSddTpg44y3bSbnMYfqFXNsULMcHRjxH3kL/b0w8o+rXp4+6lzo39/glRXeu1VCEyiG1hG4vT7XW98t8UpBWOEXHb3QHzLO1w9+V1Zim6AziYBHKQYa2Unalf5MLLSs5/dCz12oD2ChgdnoAbtXxwb/JQm6usZnpNZ5B/VTGQK3Psld2zjX42ehRozz9UN8aOv/2jp9IbYJOoMIOLaiENWrXkHS+X5G2IObvkvHR/9nD0J/G4z8LcsVGhlGx0a7EuuIXV2Xp4jK6AHF0QsC11b7jGWZqIQaNM4X7wyAnXNilzbLnR6nYJugGoXA/eMGGt3pAyofGikp+QeGRdDcToX/Ha4X89tl5M8WDVpPOazsWYDOz/X4VS9cg3qqFIH/bXLJe2m5947kCQgrLOYHjmuck9DFtNuZqW7057ECWByoosWB+xa+StWrBr1EsNaEK/R9dHQIpgMLoQAAIABJREFUbeybzy7y/yYL8mdl6dv4A7qy3Hu7SmkBxdIbAjc35PW/sMjzohjHiGv0Q4J6b+vkia50dz+2CTp6JOC3wxwNaF2cyoVESU7+bK5+t50Bftg2wTrVArIsW+WYinRjXe56euMZ1FflCNxY79MybbbHPb07etQfoiYrG2Bztz/vxDZBR4iAh6d9ad6w9ykyOjRLchXa27c8v0N8STo8ys2unv++YZ5UJzZr8mfPY+V3cXFxUzkdoHh6ReDaau8Fp6e4PcvKCeJzdRDkwRHu9NVgb9raP0/mHwtNyhYYoX3kb5/bW3JjOkCh6YB7JziaM+g92YifjSSMbvmW3b8bRv61cyB/JgD6ty6O+X+9kquz1PvHT/MWvrTU+zDCCstPJnwI+/gYF1rT6xUa0eJtSqpdhoLDw232gpgzC48KpaZ1/Glki7dpVc8CdGikfb0aPuXT4zlXV3kTizPviN6wHp7560EDfdj3XYqIkqfHz8iY/Y4Wd+XsJv+vhnhTzaqBNn+TlqMM7PWW8a9OcxYeQDl1jsCNTT6Rpvket/Xo4NVQZxZ8ZFLb16laFfGLnQLDIzL3H7PVx/ZsaVIDHmorw4VFnvQsFdkEpRQkFz810MQu8hI/I2KWyvfT/nnsJv/N/fJSVHQIL/JvWKt8Bo3B8L/OadX5qn/tk1x9WexqtTlgrZaH9fintX+N2L5h6x6EPe9jKlXMHBmwJ6qZVjEXW6+0OR705DS2CdojAh6m+NL6yW9Rs/plqFyo9Iv7rH8z3RKK2RXcx2wry7oXzHI0zvqZ7P2Mnu+edz7vjxIDARcXF+MmF6+rK3w2pEzCtkGzA5Dj+NmA3NSgRjlJid/aGYVFhmXOe1rGJpejLnq555lpbvTwOLYJChEBT88a6Nulr1L/tiUpJML2lJa13dr7nk0nSDHkz+x6evtXBcUfYNMNe+caQkEmQMCpEbi5wfuDi0u8zrHEKXpx8ErVk83ZK+UMmTNlDnFqu9eIjTgoVUetPidzm+ABbBPMSgQ8TzXQpW0crR79JvVpXjxzCN5eQhdyfYu6pWmvnVv8mO2y3wqLECjk2ezc7s1K/enUjh+FBwKWCNzckDuORbTSqkNXul7zOxeigDBpI5rxdVJs0SDbRaB0nbX2PLZN8Jdd2CbIREDGeY4uf87R6rFvUe/mJRQnfLPts543m06TwtaOjHKj9vElBZM/K8uyEW8usfSfeA0ENIHAtdU+k89MQ1hhexzMkm6cInOfZqdo68h2D0g1PGoPFlq49s6n2t4myMidhUe+d6gAXdjK0Z75r9KKMW/ThJ4fUPfmftSwTgVZV+/bsl9bn8XVKE87BuaShPxZdL+EmmVFkX/dGgHPsfhPE3SHSthC4Ne1LvlZestTCCss2NmwlchZbeuz5dTk/qxHYjFsHZRgSuTaGp9/twn+lVaT7p3rQvdSu9G91B50L7UX3UvtTfdS+/xfe+cBXlWV/e2QdkORUUedUUYHScDkpvcqhI4KAgoobeiC9AACoZfQg3SQDgkkISLSe++EBFCa1CQ0HWbUIRQFhPX/Vmau3yUmuWefcuuP5+E5J/e0vd+zz1pr7732WlRwuh8VnB5ABacHUsHpQVRwejDdOTOECs4MoztnRlDB2VFUcGY03Tk7lgrOJtGds+PpzrmJVHBuEt05N4UKzk+lgvPTqOD8DCr4biYVfDeLCi7MoYIL86jgwnwquLiQCi4uooJLS6jg0jIquJRCBZdX0N3LK+nulTS6eyWD7l7NpLtXV9Pdq1/R3dyv6W7eOrqXt4Hu5W+ie/mb6d61LXTv+i66f+soPbj9Lf360xV6ePd7ijDT3L1om+fcALxkVq24GJsGeVA9BStxZg9848vi5CZ+AwG7InAzvVzw+XluV+yhF2eOOnDY0Jrx4bJ6FaJCUeR8XnaYmVBB2JgxBzNbesaF+Tp6fGMcET0le/t3K/+s1bVbbuN1aoVRhsJY/sZtjP1ylMQi+KhRAHr/dqXlUBmTBPLSPDp/O83lnvGHhP0/OtpxYhARxWzOc4Oj4gpXCiB2wB/fm5S2fHxcefrx7Jf2pvd/r8/BbalW1Xa519//oyqqjV6xsx9HCFSSaZADc6WPfm2ZSYGJE0DA3gjwnNfV5bqFJyY4P5EiMB3tnM2DPCzm9CdiSLRtpKdDIxBiWKR9nppeme7/8M3vytIed1bOG2o1BgA7sa4dUE61ESsemWvV0E9W/eKMggJ1aebzG+b+7U2zoT5CBPK+KvfqxYXuR9hDWkSI2vu5XT94S5aAEVHeap3LS6hgBEhrv+eX1aTH9/9ljzr/mTpNSGxj8fbL0fzUdlzN6PscxcdHyKpbv4+q0IaBZQuv5RU9myf/eaaQsMTJIGCvBPLTPWqfm+36vb0rdin1Y8c/c0Q8U8sA4Pu0LjQCkFegtPebt7knPX3y+BlFaa9/NHonVpaSVKNNstMsD8/zsrzS3ofoMQ67zVNfomVkZT+1819/L0ujesHUr+1bWPdvr8oM9ZJPIHeFR+KpZJdfRT9Oezq/bSNfYSEjKpS0OJ+HRZWmTLWn92hcl6vrOtmrrv9DvQ7vSLNY++3S9C3aNljdmBUcGrtDYx9ZdWIHwZV9Kv6u/LlNTO782tO1E1+tL19K4koQsGMCuUudPC4v0a3JHud4YYVZWGihnM11T55vhRHw7HTA2UXR9PS3h39QlPb6Q48O9c3ehhvWDf6DojU2wOTuczptXjkg5/vh9L+bB+meUf5cjstLdWvtWHyjaiCgDoEbGbpqF+a7nT3mQGGFW7zrL0vYyBFQWl3zMRsBSDNcKPhPTq1Ej+5+b6+6/g/1+uH6BbM6r3IPO7nTXzXJZMn35WyZcr6Tdu/ri00o9O3nLg84b4o6EhJ3AQEHIJCfUbb5mRmuP8u14m3luj1DXW1u7r8k4fjRu/4wAkY50b9Pp/9BSdrzD0N7fyBLYZbUjkr6nSNTjmj7Ou0d5vqHHrbS733rYJ1sL38ub2KrysXmz+D8KPnpHm0dQGSjiiCgPoHcFN3nJyc5P1b6gVvr9XO7vWQW4VmSUFX7dx4JUCvamrW+s1LLNdqZHj/40Z71/TN1W5s6SfP2W6NGBI1vX0m19fxF3x8760XGykuzzaMFs7q+XKJBcnGx2071pSLuCAIOROB6ZsUXLy122318rP2tPe/RrKrmAlRtJW/qfgNbvlmiQCwqfO3t7zMLwp5RkPb8x8XTBzTNVMnz8KyctVpuumWQjth/xVR7Lul49eqRtKqUCINnZ7n+m/Y4uTqQqEZVQUA7AtfTy0aen+uWb09KwxrD/pYk8KT+ztHOFnR/0SGNgGs7B9uzzv+9bg/u/UwNG8TIVp6ltSV2pJvd9WVN5vhZdnBEP84GqCRvwfv1gmhbKdkyT0x0/i0/012vnTTEnUHAQQnkpem6f/u5y31bNwQ4K1lpglDJseha9anvZ4k0MXkaLUtZQVu2bqOjx47Rps1baOHipTRq3ATq0qMP1XynsSZliIqLJk6YYuvvSLT8t3MW/q4k7XWHY/5/3PRt1dtN0/qBtFBjw5GjbSp1uu3cxLvUVS+F8/4rdb0dVDyj2iCgPQEeWrua4r48x4bDCk/s8JrqQjSieh0aNjqJDh06RCdOnDD5PycnhxYtXU7N27RXvSy8TEvtwCyiCtnc51/fmWiver+wXns2LKK4Gur2/NlvJKX3nzQ1FrnXz9+bkiybPLLFwYZMtanLi912aC8B8QQQAAGnm+llX7+w0D3bFsMKc0x9Jb38otf26jeQ9u3fb1Lpl2QYfL1uPXXr3Y9CYuNVK1evZl4mBaYpgWpLxy992cIuDYAnvz2mKcPbq7ZipXqNSBrcqjLxKJjW75ejbDZ7J0BRm+YQw6kSjJQL890uQSyDAAiYmcD1tPINzs5yva21MFHr/uwpH6li7vQBicNkK/6iBgFPFzRu0VqRwDQ2TqZ3eUVzIa/We1F6nzPzQ+zOADi6axU1bSgeDte4DfA+h8ft2NiHFvd4wSwrRXYNcaPezb0UZ+/r28Kz2PX9RdvK2dmu/+SAZmYWfXgcCICAgUBuqseoU1OcHxb9OK3t73Uqzv/37j9INeVvMAaOHz9OQ0aOocCo6ooNgbCYWPpaxcxs1vYujctzPMmDHt65bhdGwLXLJ4kj/PHQd1FlLvI3TwVN6PAa7R6q/vp9Y/aG/cMjy9C49pWI/VBEyln03Frx4ZKnJk5Pdym4lfbcSwY5hC0IgICFCNza4FTuyhLd+uwk6w0rrFb43669Eojn8Q2KW+1t2qpMim/QSJEgZcFar1YY7Rvm4hAjARczmtq0AXC/4CeaNPQfxIZbUaUo9e+YuChKaOFJq/uVN+s7X9jjxcK2JrWcxZ3HBg+PHOwfLq29ch6Taxk6TwuJOzwWBECgOAK8DOe7L9wuWGNYYU5ZWpzwEfktplYDOnT4sGbK32BMHDh4kNp/0l1xeXs2q2pWZWDoEVpi+/OF9TZnBDx9+oTS54+g+Jryes5sMHBSKw5updXa/ZLe5doB5RSt6Td8d7wsd3mv5yW305OTnR/x8uTi5A9+AwEQsAIC+WkebU5Pd71TkvCwxO8c4MQgdORux0+eqrnyNxgB2dnZ1K1XgqIyc7rjVQkVJAtXS7wXtZ55ctob9NvDuzZjBPA8/weNxOf569QMI54j53l9SySE4mkFfn6QjJS9xt8d9/p7CfT6uZ18M9XllxuZ5YOsQMShCCAAAqYIXE3RzT4xyfk3tYS8kvuM/sffFClTHpbPysoymwHAhgBPNfAqAWPBKbrfuF5QsTHTlbC01mvPLoykx/dvW7URcP3KN0Lz/CHRsYU9bQ7Naw4P/pLeLSeeSmpfiaIVzvNz+60ZH0HLBHr9XKbT01zu5mV6vGlK5uA4CICAFRFgR52Li3QHLB1W+LOP31SkSGfMmWdW5W8YCWAjoHuf/orKzhnXShLs9vb7qRme9MuPF63OCBCZ52cFyb1jju4odV5cq/fIzx/T7m/EGQFFjc/izudlqqK+KWdmuv74w5oKr1iRWENRQAAERAjkZ3rEnZvjekMrQWXqvp9+WE22AIut3YB4SN6glM29LTQC+g6QXX7O6sZZEE0xspfjOZNforvXD1uFEcDz/BkLR5Y6z8/e820a+VJSu0pWs3pj7zCXwiA87FxYnCIX/S1eRq+f2+P5Oa7Xb2c6VRCRNTgXBEDASgnkrijbl+fyzK1s2FlKVGgZzu/So7fFlL/B2GAjgMthKJPolr2szc3cks/LGqujG3tG0JPHv1jMEChpnp+H0TmXPS+d+7JfBc1i8Mvhz4bisDZvKF7SZ2ifPNfPzqiivX4O73t5iW4zjXJytlJRhmKBAAjIIXA208n9yjKP9Jzx5ls2yHHPDUJJdDtt1hyLGwBsCBw5cpTeadJcVj3YIZCVjRylYMvXfDPTi/5zZbtZjQBez9+zQ4Pf1/Pz8Hn7xj6Fa/O/6l/eKn0ydg11o8RWlVUNltW6oS+t7i++LJHDjeeuLJsgR7bgGhAAARshwE49Fxa4n2JrX2slU7dWmCzFycbCjp07rcIAYCNg85atFFGjjqy6sBHEMdq1Zm2N9+eQwfe/P6GpIXBs33rq3v4dio+PpI5NvGlSx1cLh/StmfmORHdi/xglMfuLGtRNGwRKCuNbXDvh1UM308sF24gIQzFBAASUEriWUa4xO/oUJxDU+o3nIIsKKil/123Y1GqUv2E6YP6iJbLqwvWd1uUvDmkAGNoRrxT418ml9OTxA1WMgYePHtLuDUsoeUBdmtLpVeKIk4ZnWfOW4+x3auJdGC5Yyncg5Zx36oTQgu5/llf/0U50caF7FgcVUypPcD0IgIANEshd4TH+1GTnR1oIzvfqhMhSmn0GDLY6A4ANgc+GDJdVHx6OdiSHwJLaUs7EF+jyV63pn8fn0v0fThE9fSLZIHh45xrdPrGYLq/+mA6Osx2Dih37OENfg9qhstpOSUYAr1rg/BNHR8obXWKfoGtpHh1sUGShyCAAAmoS+HGFU8XLS3Rbj6scVlhuTvKxEyerZgAcy8oi/m/oySvZHs/Opg9btZMlyIe3eUNeL82Opw+yJ1Sk88tq0qUvP6LcDZ/QtR0D6eaB8XRz/zjK29yTONwwjx6c/PxvNseO5+F5+Z2aw/xsDLAxyfEJ5EYh5KXBl5botqPXr6YExb1AwA4IcMSv7+a5XS6pByf6OzthldSDKe33GbPnKlLYO/fso/GzF1LPEROp48DR1GnQaOozejIlzZhPazZuUZRXYNv2HRQaV0u4Xiy4LRFFTvSd4Xx5PWrmdmiEM8345BXi+fjS2recYxGxMYUrBZTEKDgzw/Xnaxm6enYgqlAFEAABrQjkpXt0/Haayz2lyqBHs6qyBOHiZSmyDYA5y9Ko06AxhYqflX9x/xPGJNPKr9bJfsaIseNl1cuRggMpbTu2dD2v9GCnPo79IEe5l3YNRyXs91EV2jnETfYoCEcG5QihWskL3BcEQMDOCPBa4KspuvknJjo/kSuMB7aUFwkwc/UaWcp57rK0YhV+cUYA/zZ2xnw6fOSo8LOOHTtGtd9rIizs69UKddgVAXLbkLVet6Z/eUps9Xeqo2ClS2mKn5eQdvugGm0epJOt+Hm4//Ii3X6k8LUz4YzqgIC5CFxNK/+Xi4vcj2SNKSMsiOTmAtiybbuwUl67aauQ8jcYBTxNsGmb+JLDJctShA0AFvgcatZalRrKVfrwP2fj44A99VV26DM2BDhgUf+PqtB6hSsbzs9zvZ6XXjbGXHICzwEBELBjAjdWedQ8N9v1exElITcb4KFDh4QNgMSJM2QZAGwIdB2SRBu37RB+ZptOXYWNgA8bBMAAsCHHRk4GNKLt68TL7YwVtdr77DfAXv1K/US+/dzlQX6arpcdiyJUDQRAwFIE8leWHfRNssuvUgyBLz79syyhmZV1XEgZy+39G0YBePtJYhKt3yI28rB123YKia0pXMeMhOdgBFixEcDD+yPbvk4N6wYLv1sRwyAyNob6tPAkfp6U76m0c3ImlHlyZZl7Ku1xcrWUbMBzQQAEHIBA7lInjytLdV9ljys9rDAHPhERiIZz9+7dJ2QATF+UIrv3b2wEdBs6jvYeOCj07EHDRgrXsWNjH8UCvzRlgGOlD+UX5cNL6pb0fIH6tvAsTJtraIdabd+vF0w8OqbEo99Qh6wxTnRxgXvOzfSyrzuA6EEVQQAErIXA9dW6qhfmu58tKaww92zkCNGNmzYLKeH+SVNVMQDYGBiePIdyck5Ifv6u3XsoOCZeqJ5BUXG0caAHjAALjgKwVz1HaOSlqrzETk47FbmG4wHwqpjMBPVyQ5yd5Xr7elr5BtYiD1AOEAABBySQn162Ga8xNvRKDNvdQ11lCdb0VV9KVsCHjhxVTfkbRgOWZnwl+fkcWOjTPv2E68m9TQMnbMV67HJ5fT2gHI36x+uF6/TZy15Egcs99906IYX5CTgioNxyF73u1BTnh7krPUY6oKhBlUEABKyVwNUUXfLJSc6PjQVW7ZrhwoJ24ZJlkhXwjt17VTcA2B9g974DksuwbsNG4Tpyj1A0XasxV+ybNhoOjyxDy3o9TwktPKlWvHg7lKv0+d12/eAtSutbUTWlz++bp9wuL9GtQxQ/a5WAKBcIODiB3K+ff/7SYrddvAaZhRYnPxEVpCKpgNdv3a66AcAjAUMnzxKKGNiqfRfhes7q+rKqCgJGgRNxil32pmc/C3ayE217cs8PiY6jto18aXbXl1WZ23/mXY52ou++cDt/a7W7t4OLF1QfBEDAFghcyygXfn6uW97Ydn8TFsIiuQBWrd2oiQHARsCilZmSRwFS09KF69nufT0MABX8AHh9Psec+KBBILF/hVwlLnodTyNwvguO8KhVsqfT013/cy2tbEtb+OZRRhAAARB4hsDoblXSRAXrgMRhkhVvpoYGQJfEsUKrAt778GMh5RMaE6t+b1EFhfpM79MK78dD+8t7PV8YIlfOFJNoeyx6fuN6QTSufSXanuiumQHHU2m5Kbppz3xM+AMEQAAEbImAV/DbLxcVoKb+bta6vWQDQKspAIND4OylKyWXZer0WUIGAHPgIWNrV7jWUj6eU/+k6VsUGRstzNlUmzN1nNP5ckAgrVdvFGbrW+y2+3pmxRdt6TtHWUEABECgWAJ+4bG/mBKwxscjqteRPP++bdcezaYA2AjgUME5OTmSjACOXxAYVV1IOfEyNGtRsNZYDo6Mx8v1GtXTNiiPcfsz7NeMD6dBLSurEqhHClueMrueXjay2I8IP4IACICALRLwDY2+aBCqUrdSYwHsP3hYUwOAjYDVG6THJWjRtoOQARCGaYBiDaAtg3SFyleLDHultcG46pGFAYHU9uAvzQD49nOX+7krdN1s8dtGmUEABECgVAK+IVHppQnd4o7NmjtfUq+bg/ZwBD/DkL0W2zHTv5BUFo4JMGXaDCEDgOs+p9tLxSrB0pSGvR47OtKp0KEv2IzOfDyl8OmH1WhpzxfoyEjxpFdy30XOBOcnucvdlyB8b6niAwdBAARsmYBPcGTb4pR8ab/1GzxUstIdMXWOpgZAp0Gj6eDhI5LKs3vPXuFpAIQG/u+a/q2DdYVe9aW1C7WOsQNmxybexPkqDo1wNqsBVhi+d6H7seuZZSvZ8neNsoMACICASQJ6fXwFUcHd9OO2khQu97rZUU+Lnr/xPReuWCW5PM1atxMaBeDAMQeHm1cJye21anXd3G4vUVSceZz7WjX0s9jqi3OzXX/IT9PVNfnR4AQQAAEQsBcCfmExBSJGQFhcLZKaFXD1+s2aGwAJY5Il5wiYmDxNyABgLvMcdBqAE+Lw8LtI21ByLhsZ2zRcvleSgXQq2eXXvFSPIfbyPaMeIAACICCZgD4kar2o4F6yPFVSrzvreLbmfgA8GrBjj7QshZwmWLSuHDq2JOVhr7+zh/+HDQKEWYmyNT5/5ievmJXz/8L3ruEMmpI/FpwIAiAAAvZEQB8YGWcsiKXsc5IdHuKX8n/aguWajwKsXL1OUlm4vNG16gsptrq1wsyqmCxtVLCzXdtGeiFGUtpMaeeYc8klZ8jkTJk3MnTV7Ok7Rl1AAARAQBYBv/Doe6UJ6KLHouLrSZ4G0DoeAI8ATJ0vPUlRy/adhZRbYOTbmoWTtbSyL+753c047M/tKvbtKOIUwMWVRe3fzsxw/YkzZMr6SHARCIAACNgjAX1w1KaiSt7U38tSVkjudQ+aMF3TUQC+v5TRCD5n6MgxQgYAc+DMdWorI2u838CWbwqzMdVOTB1nb3+tWZyc7Pw4L1U3xR6/XdQJBEAABBQR8A4Or2FKUBc93qPvAMlKd/mqNZoaABxvQKoBwCmNi9bF1N+cq15rJWXp+ye1ryTMxRQ3U8e19q84nlSGLi9228GZMBV9ILgYBEAABOyZgF947H1TAtv4eHTN+nT8+HFJivfI0WPUZfBYTY0AqWGBd+7aLazo2r9v32GBV/cvb9ZsfdyOatSI0HRq5fxct6s308sF2/M3i7qBAAiAgCoEfEKitxkreCn7y1KlTwNMnLNIUwNAakAgHimIq/uukBEQXyPCrkcAmr1jXo9/bltLer6gCdNvp7ncy0vz6KzKR4GbgAAIgIAjEPAJiqwrRekbn9OmY1dJIwCsdNkZkCP3GQfxUXN/1779ksvSqn0XIQOA67zDAmvUzTEtwFkPjd+pOfZ7NfdSXfmfmOj85Opy3UIa5eTsCN8r6ggCIAACqhLwC499IKIAOMPehk3SE/LMXZammQGwZ/9ByQZAt14JwkpvYfcXVVda5lDwpT3jwHBn4tENkXeu9NzaNcNVjfaXNaYMXVzkfvhqWvm/qPox4GYgAAIg4EgE9CFRO0UFvIgz4PHsbPps/DRNjICjx7IkGwADEocJK72hrf9udwbAkNZ/F+Yg2j6Mzw+MeptW9PmTahzPzXG9cW2VR3VH+kZRVxAAARDQhIA+OLy2scCWsh8SG0+caEeqFz5PBXQePEZVI4AdDKU+n88blTRBWPFxnPrSetO2dmzzIB2FRscKc5DSJko6p//HVVRh+M1Ulwe5K8r21eQjwE1BAARAwFEJ+IZFf1+SAC/p98QRo4UU8PzUDFUNgL6jpwg9f8q0mcKKj/PR25qSL628yZ3+KsygpPcv5ff6tUOJQwyXViZTx05Ocn58NUU3H2l6HVU6od4gAAKaEvAJiuwuRaAbn8ORAQ8fkZaWl3vgvGRPzeBAU+cvFTIA5i1YLKz8ePj66Mj/psc1pahs4figlpWFGRi/c5H9oKg4WpXwnGzlf3Ky86OrKe7Lb21wKqdp48fNQQAEQMDRCfhFxNwVEfB87rhJyUJKeOeeffRJYpIqIwGZazcKPTs1LV2W8ts91FW2ErM2o6BjE29ZDETbBZ+f2Eqe/8SpKc4P2bMfCXscXSKh/iAAAmYjoA+OTBYV9JHx9WjvXmlZ+Qzz9Ru2bqeuQ5QZARwFkAMNGe4pZfvV12tlKb8NA8vajQHAS/FE37Gc89+rG0KHR5YR4vZNssuvV5frZmGo32yfPB4EAiAAAv8lEB8f7+ofHvtIVOB379NfSBGzst64bQd1HTJO9kjAvOXpws9ckZYhS/ll9JU/jG1tIwDrPitHnOhI9B2bOj8kOpberxdEbGBM7fxX2iYQP4Gd+66m6JKxlh+SCARAAAQsSEAfErHKlLAvepzjAmSuXiOskLfs2E3syCcaGKj78AkksvzPMDowb8EiWYpvcQ9totdZyjho3dBXFgfDew+JjqNG9YKpZ7OqxE6FX/arINzb5/S85+a43sxbWXaABZs7Hg0CIAACIGAgUC009CX/iLinBmEvdduoectCJz+DspW6ZUU+SSBcMA/9b9m5W9jY4PJMnjpdluKb+ckrQkPZllLsUp+7a6gbtWkkzQgIjoqjhnWDqUezqjQguIF0AAALNklEQVS506u0KqECHRohNrRvXC6O3Hd5kW7/tfRyYYY2hy0IgAAIgICVENCHRB2QqviNz5s6fZYsxczKec3GLTRsyqxSRwMSxiTT5u27ZD9j+JhxsgyACR1esysDwKCQORNg3VphFB0XTbzagb32360TQt0/rEaTOr5KGQnP0SGFS/gMzzo73fU/uallp8Oj30o+chQDBEAABIoj4BMQ5mes2KXuR9eqT/v2H5CtoNkQ4IBBs5asoFGfz6XeoybTgHGfU9LMBZT65deyRhiMRyL6fpYoywAY1uYNuzQADMqZt7zUUUnP3vhehv2cCWWeXJzvfvraqnJNimtn+A0EQAAEQMAKCfiGRp+XqviNz+NEQVJT9BorZ3Psd/q0lywDIKGFp90bAAalrXSbPa7M0+++cLuYt9JjCJbxWeGHjSKBAAiAgCkC+oCoyICIOFkKc8TY8YpGAbQyBt5t2kJWfbo0fQsGwKiSgyFlJ5V5en6eW27eCo+xtzOdKphqWzgOAiAAAiBg5QT0IZFbjXv3Uvd5VcDy1JVWZQTs2btXlvLnOrPDnNKesb1dnzO+zNPzc93y81J1U/I3/ukFK2/KKB4IgAAIgIAIAb0+voJ/eOxDqYrf+Dz2B9ixc6fVGAFzvlgg2wDo3MTb4Q2ArDFOdGaG68+Xlui256d5tEOwHpEvCeeCAAiAgA0S8AmOGmSs2EX232/eirKypKfr1Wron+/bve8A2QZAXwf1AfhmqssvFxa6Z+et9Bh2K+25l2yw+aLIIAACIAACSgj4hkVfF1H8xud2693PKpwC4xs0km0AOMIqgJzxZZ6cnen6L16jfzXFI+laRgU/JW0G14IACIAACNgBASUOgWwMcO/bkisD1m/cJFv5c/nHd32Dsie50LHRJTvC2dIcPzvtnZnh+tPFRe5Hc1N0n+dnesTZQTNFFUAABEAABLQg4BMSvc24Zy+6z/kCLGUEdOnRR5EB8FZAKHn6BFBIqC91/7gyze3/Cm1KqkiHJnvQ8clulD1OWb57LYwHXo737TSXe+yod2mR7mDucvfF+Wm6XjfTywUj5r4WXwjuCQIgAAJ2SkCJQ6DBWLDEdMDXa9cTr0owlEHOtpp/SKEBwEZASf/ZOGjZ0IuGdny90ED4auQLtGtC+UIj4dgU9/8aCpNcKXuCMx1PKkMcC19U8XPP/eRk50es2M/Ocr393Ty3yzxHf2Wpbtvl5e4puakeE6+leXS4lqHztNNmiGqBAAiAAAhYgoB3UGSiHAVqfE23XgmUnZ1tttUBLdt3VqT8uexV/YJLVPwlGQRSfg8M9qP4t32oUd1q9F7talQv/i2q+bY3VY/xoehon1vv1q7a9ccVThURUMcSrR3PBAEQAAEQeIaAEodAgyHQuuMntHfvPs2NALnpfw3lNGy99EGaGAAlGAkPvPT+o18LDS33DHj8AQIgAAIgAAKWJPBWQMSb/uGxjw3KUe42rs67tDQlVTMjgGMQKPH8N65XCYpaA6PAf1UVvf4NS75fPBsEQAAEQAAESiSgDwlvY6wglewnDBxCx44dU9UQ2L1nL9Vp2FTx0D/Xyz8iTgNF/wdfghNv6gPeLhE4DoAACIAACICAtRDwCY1MU6L4ja99p0lzWrN2nSpGAGcjbPD/7md8fyX7vqHR2hkA3gH/9PT27+Lk5ORsLe8V5QABEAABEAABkwR8Q6NzlSjXote2bNeZlqWukL1ccMnyVKrfuJlqyp/L5x0YroUB8MhTH5BcpUron0xCxgkgAAIgAAIgYG0EAgJiXvELj/21qCJX+neDxs1o2sw5kqcG2Nmv6cdtVVX8hjqovwLAf2MV78Bq1vYuUR4QAAEQAAEQECLgExT5bkBE3FODwlRzG1GjTqFi75HwGY2fPLUwwyBPFcxbsJhGJU2grr0S6L0PPtJE8XM91Jz/99IHnPf0DWggBBcngwAIgAAIgIA1E9AHR8xUU/Fby730IVFqDP//XMUnoG9oaKibNb9DlA0EQAAEQAAEZBHwDY3+xloUt1rlMIQAlrkM8Imnt/8X1aqFIouerBaFi0AABEAABGyCAIcK9guP+Ukt5WsN9/HSB8ocAfDf86avb6BNvDgUEgRAAARAAASUEvD1jX7RLyzmR2tQ3krL4BceI0f553r5BjRTyhHXgwAIgAAIgIDNEfifEfBvpQrY0td7B0lf/lfFJ+Cep0/A0MqVK3vY3AtDgUEABEAABEBALQJBQUHP+4XF/MvSSlzu8wu9/6UN/z+t4uOfWq1aYCW12OE+IAACIAACIGDTBLwiIyvaqhHgHRhmevjf2z/LyycgyqZfEgoPAiAAAiAAAloQ+J8RcFtuT9wS1/mFx5pQ/v63PL0D2jk5OZXRghnuCQIgAAIgAAJ2QYBXB/iGxfxgCWUu55mlLP371UvvP0Gv11ewixeDSoAACIAACICA1gTYCNCHRt+Qo5DNeY1fWEme/4FfV63qX0VrTrg/CIAACIAACNglAX1IxKqAyDjNQvcqNRaq+YcUHf4/XUUfUNsuXwYqBQIgAAIgAALmJOATFPGeX3jsA6XKWu3r9SGRvyt/L5+AH718/Hs4OTV3MScbPAsEQAAEQAAE7JpAoV9ASFSW2kpc7v18///Q/2NPb/+Zb/j7v2DXLwCVAwEQAAEQAAFLEvAOjuzvHxH3m1zFrcZ1/uGxxCF/vXwCt3vpA30tyQPPBgEQAAEQAAGHIeAXGurpGxZ9XQ1lLnqPwnC/vkEcvvd9hwGOioIACIAACICANRHwDYmc7h8e+6uoEpd7vm9Y9G9e+qCRer3e3Zo4oCwgAAIgAAIg4HAE4uPjXf1Co5L9I+I0dRLUB0fmePqFv+5wgFFhEAABEAABELBmAqGhoW5+YTGj/MJjVc0n4BcWc9s7MPwDa647ygYCIAACIAACIODk5OQbGFlTHxJ1xD8iTub0QNwTv7CYAz7hMdUBFARAAARAAARAwAYJBERUf1MfGj3YLyx6j1947PfsM+AfEff0f34AT/0j4h75R8Te8wuLuaUPidqrD4nsEBBQr7wNVhVFBgEQAAEQAAEQMEWgeXME7DHFCMdBAARAAARAAARAAARAAARAAARAAARAAARAAARAAARAAARAAARAAARAAARAAARAAARAAARAAARAAARAAARAAARAAARAAARAAARAAARAAARAAARAAARAAARAAARAAARAAARAAARAAARAAARAAARAAARAAARAAARAAARAAARAAARAAARAAARAAARAAARAAARAAARAAARAAARAAARAAARAAARAAARAAARAAARAAARAAARAAARAAARAAARAAARAAARAAARAAARAAARAAARAAARAAARAAARAAARAAARAAARAAARAAARAAARAAARAAARAAARAAARAAARAAARAAARAAARAAARAAARAAARAAARAAARAAARAAARAAARAAARAAARAAARAAARAAARAAARAAARAAARAAARAAARAAARAAARAAARAAARAAARAAARAAARAAARAAARAAARAAARAAARAAARAAARAAARAAARAAARAAARAAARAAARAAARAAARAAARAAARAAARAAARAAARAAARAAARAAARAAARAAARAAARAAARAAARAAARAAARAAARAAARAAARAAARAAARAAARAAARAAARAAARAAARAAARAAARAAARAAARAAARAAARAAARAAARAAARAAARAAARAAARAAARAAARAAARAAARAAARAAARAAARAAARAAARAAARAAARAAARAAARAAARAAARAAARAAARAAARAAARAAARAAARAAARAAARAAARAAARAAAQ0J/B/kxqFMvg9lhwAAAAASUVORK5CYII=;" vertex="1" parent="nPLDPghtRgDBbKn_ZtEC-9">
          <mxGeometry x="24" y="100" width="182" height="182" as="geometry" />
        </mxCell>
        <mxCell id="nPLDPghtRgDBbKn_ZtEC-3" value="Atributos (CaracterÃ­sticas)" style="text;strokeColor=none;fillColor=none;html=1;fontSize=20;fontStyle=1;verticalAlign=middle;align=center;" vertex="1" parent="nPLDPghtRgDBbKn_ZtEC-9">
          <mxGeometry x="210" y="70" width="232" height="30" as="geometry" />
        </mxCell>
        <mxCell id="nPLDPghtRgDBbKn_ZtEC-4" value="MÃ©todos (Comportamento)" style="text;strokeColor=none;fillColor=none;html=1;fontSize=20;fontStyle=1;verticalAlign=middle;align=center;" vertex="1" parent="nPLDPghtRgDBbKn_ZtEC-9">
          <mxGeometry x="210" y="153" width="232" height="30" as="geometry" />
        </mxCell>
        <mxCell id="nPLDPghtRgDBbKn_ZtEC-5" value="- Cor&lt;br style=&quot;font-size: 20px;&quot;&gt;- Modelo" style="text;whiteSpace=wrap;html=1;fontSize=20;" vertex="1" parent="nPLDPghtRgDBbKn_ZtEC-9">
          <mxGeometry x="230" y="90" width="110" height="50" as="geometry" />
        </mxCell>
        <UserObject label="- Ligar" link="void ligar() {&#xa;        System.out.println(&quot;Carro ligado&quot;);&#xa;    }" id="nPLDPghtRgDBbKn_ZtEC-7">
          <mxCell style="text;whiteSpace=wrap;html=1;fontSize=19;" vertex="1" parent="nPLDPghtRgDBbKn_ZtEC-9">
            <mxGeometry x="230" y="176" width="60" height="30" as="geometry" />
          </mxCell>
        </UserObject>
        <mxCell id="nPLDPghtRgDBbKn_ZtEC-51" value="&lt;h2&gt;&lt;font style=&quot;font-size: 21px;&quot;&gt;Criando um objeto &#39;Meu Carro&#39; da classe &#39;Carro&#39;&lt;/font&gt;&lt;/h2&gt;" style="whiteSpace=wrap;html=1;shape=mxgraph.basic.roundRectCallout;dx=30;dy=15;size=5;boundedLbl=1;fillColor=#f5f5f5;gradientColor=#b3b3b3;strokeColor=#666666;" vertex="1" parent="nPLDPghtRgDBbKn_ZtEC-9">
          <mxGeometry x="490" y="153" width="210" height="160" as="geometry" />
        </mxCell>
        <mxCell id="nPLDPghtRgDBbKn_ZtEC-47" value="" style="group" vertex="1" connectable="0" parent="nPLDPghtRgDBbKn_ZtEC-9">
          <mxGeometry x="170" y="360" width="560" height="320" as="geometry" />
        </mxCell>
        <mxCell id="nPLDPghtRgDBbKn_ZtEC-45" value="" style="rounded=0;whiteSpace=wrap;html=1;fillColor=#e6d0de;gradientColor=#d5739d;strokeColor=#996185;" vertex="1" parent="nPLDPghtRgDBbKn_ZtEC-47">
          <mxGeometry x="30" width="530" height="320" as="geometry" />
        </mxCell>
        <mxCell id="nPLDPghtRgDBbKn_ZtEC-11" value="" style="shape=image;verticalLabelPosition=bottom;labelBackgroundColor=default;verticalAlign=top;aspect=fixed;imageAspect=0;image=data:image/png,iVBORw0KGgoAAAANSUhEUgAAAgAAAAIACAYAAAD0eNT6AAAACXBIWXMAAA7DAAAOwwHHb6hkAAAAGXRFWHRTb2Z0d2FyZQB3d3cuaW5rc2NhcGUub3Jnm+48GgAAIABJREFUeJzs3Xm8XVV9///X2uecOw/JHZLczHMCCRlkFEHBEVTUOmHr0FpHtCpaFb/VKs5jIaBArUWtfu2vX7RYKzJYkIKQBCKQeZ5zc4dzxzPPe/3+OAmTCbnD3mftvc/n+XjwsOVB9n4nOfesz15rr/UBIYQQrmtHn9+OfrQd/bNO9AzTeYQQQgjhonb0rHb0z9rRdjtan/gn2YG+fj66znQ+IYQQQjhoNrq+HX1dOzr+rIH/+f/sb0O/zXRWUZ2U6QBCCBE0HeirgJs0LBjjL/mDDZ8cQW11M5cQzyYFgBBCOKQTvbYE6xS8dAK/3AZ+EYG/70MNOJ1NiOeTAkAIISapGd1eA18EPgqEJnm5EeDbQ3AjqPzk0wlxalIACCHEhOlIG3xEwZeBVocvvseCTw2g7nb4ukIAUgAIIcSEtKNfCdwEnO3yre4HPj6E2uXyfUSVkQJACCHGoQO91IYbFLyugrctALfZ8MURVKyC9xUBJgWAEEKMwRT0lBB8DvgkUGMoxpCGrw7DD0CVDGUQASEFgBBCvCBttcO7gO8C00ynOeFJC64dQP3RdBDhX1IACCHEaXSgL7fhRgWrTWc5jbtK8LFR1GHTQYT/SAEghBDP04aeo+DrwLtNZxmDNPB9C742gEqaDiP8QwoAIYQ4YTq6sQSf0XAd4Ldz+o8D/zAEPwelTYcR3icFgBBCoFUbvFXB94C5ptNM0uMaPjGM2mg6iPA2KQCEEFWtA32eLu/nv9h0FgfZwC8s+OwAqs90GOFNUgAIIapSB3qmDV9S8H7AMp3HJSkF35sC39yPypkOI7xFCgAhRJXRNW1wjYKvAs2m01TIfg3/MIz6pekgwjukABBCVI0O9FV2uVvfQtNZDHngRNvhbaaDCPOkABBCBF47+izgRuA1prN4QFHDjwvw+QRq0HQYYY4UAEKIwGpBt0XgSzjTpjdohjV8ZRhuAVU0HUZUnhQAQogA0pEOeC/wdQ0dptN43G4NnxxG3Ws6iKgsKQCEEIFyok3vOmCF6Sw+c1cIro2iDpgOIipDCgAhRCB0opfo8hP/20xn8bECcJuGfxxGxU2HEe6SAkAI4WvPatN7LVBrOk9A9Cq4fhD+FZRtOoxwhxQAQgiferpN73eA6abTBNQTNlw7gnrEdBDhPCkAhBC+04F+2Yn9/GtMZ6kCWsGvivCZUdQR02GEc6QAEEL4Rht6toJvUH7yl++vykor+G4dfLsblTEdRkye/AAJITxvJrohD5/V8Fmg3nSeKtcNfF7aDvufFABCCA97uk3vd4F5ptOI53jIgmsHUJtNBxETIwWAEMKTOtDnAjdpeInpLOK0bOAXIfhMFNVvOowYHykAhBCe0oHusuH6gLfpDZpR4FtTYZ20HfYPKQCEEB6hI23wEQVfAVpMpxETsk/D56XtsD9IASCEMK4DfZUud+tbZDqLcMT9Gq4dRu0wHUScnhQAQghj2tHLFdyo4QrTWYTjChp+Im2HvUsKACFExT2rTe9HgLDpPMJVJ9sO/wBUyXQY8QwpAIQQFaTDHfC3Gr4GdJpOIypq14m2w/eZDiLKpAAQQlREO/oVlNf5zzGdRRh1Vxg+0Y86aDpItZMCQAjhqk70Yg3fkDa94lnywD8r+MIgKmE6TLWSAkAI4Yrp6MYSfEaXW/VKm15xKj0Kvixth82QAkAI4TCt2uHdwLeBGabTCF/4k4ZPDKPWmw5STaQAEEI4ph19AXATcJHpLMJ3tIJfleDTI6ijpsNUAykAhBCT1o6eBXwTadMrJi+t4LtN8K3DqKzpMEEmP6hCiAmbiW7IwceALwBNpvOIQDkGfGEI9TPTQYJKCgAhxIScOL73ZmC+6Swi0B4swSdHUVtMBwkaKQCEEOPSgX6RDesUXGo6i6gaNvCLMHy6HxU1HSYopAAQQoxJM7q9Br4IfBQImc4jqtIo8K0huBFU3nQYv5MCQAhxBk+36f0y0Go6jRDAXgWfGkT9znQQP5MCQAhxWu3oV1Le1ne26SxCnML9J84P2Gk6iB9JASCE+DMd6GU23KDgtaazCHEGBeA2G744goqZDuMnUgAIIZ7Wip4ahuuATwI1pvMIMQ5DGr4qbYfHTgoAIQSgrfbyIT7fQ9r0Cn97yoJrB1APmw7idVIACFHlOtCXA+s0rDKdRQgH3VWEj8dQh0wH8SopAISoUlPRcy34GuXGPUIEUQa4WcHXpe3wn5MCQIgq86w2vdcBdabzCFEBx4F/GIKfg9Kmw3iFFABCVA1p0yuq3qYT2wY3mA7iBVIACFEF2tHnU97P/2LTWYQwTAP/14LPDqD6TIcxSQoAIQKsAz1Tw7eQNr1CPF9Kwfeque2wfCEIEUCz0fUZ+DjweaDZdB4hPGy/hn8YRv3SdJBKkwJAiIDpQF8F3KRhgeksQvjIH2z45Ahqq+kglSIFgBAB0YleWyq36X2p6SxC+FRRw49r4At9qAHTYdwmBYAQPidteoVw3Ajw7aC3HZYCQAjfkja9QrhsjwWfGkDdbTqIG6QAEMKHTrTpXQesMJ1FiCpwP/DxIdQu00GcJAWAED7SgV56ok3v60xnEaLKFIDbNPzjMCpuOowTpAAQwgemoKeE4HNIm14hjFIwaMPXgtB2WAoAITzt6Ta93wWmmU4jhHjakyfaDv/RdJCJkgJACI/qQF9ml7f1rTadRQhxWneV4GOjqMOmg4yXFABCeEwbeo6CryNteoXwizTwfQu+NoBKmg4zVlIACOERM9ENefistOkVwrd81XZYCgAhjNOqDd6q4HvAXNNphBCT9viJtsMbTQd5IVIACGFQB/o8XW7Te7HpLEIIR9nAL0LwmSiq33SYU5ECQAgDOtAzbfiSgvcDluk8QgjXpBR8bwp8cz8qZzrMs0kBIERF6Zo2uEbBV4AW02mEEBWzT8PnvdR2WAoAISqkA33ViW19C01nEUIY84AN146gtpsOIgWAEC5rR58F3Ai8xnQWIYQnFDX8uACfT6AGTYWQAkAIl7Sg2yLwJaRNrxDi1IY1fGUYbgFVrPTNpQAQwnE60gYfVeXBf4rpNEIIb1OwFbh2EPVghe8rhHDKiTa9NwIrTWcRQvhDIVIaTrWmd5QGW15ayfuGK3kzIYKqE71Ew9c1vM10FiGEP9iWTaolcyxfU5wNzKv0/aUAEGISOtFNGj5tl1v11prOI4TwPq002fp8Md2UK4GeYyqHFABCTEi5Ta8N3wGmm04jhPCHfG2BVFO2YIfsCIbHYCkAhBindvSFlI/vvdB0FiGEPxTDJdLNWQqRIkDEdB6QAkCIMWtDz1bwDeBdyAu0Qogx0JYm3ZglW583HeXPSAEgxBnMRDfk4GPAF4Am03mEEP6QbciRbsyhPdoZWAoAIU6r3KY3B9/FwBu6Qgh/KtQUSTVlKIVt01FekBQAQpxCB/pcYJ2GS0xnEUL4Qylkk27OkK+p+KF+EyIFgBDP0oHusuF6De9Dju8VQoyBQ+v8FZ8ukAJACODE8b0f0fAVJW16hRBjlK3Pk2nMYluTXOdXZJ1JNHZSAIiq14G+SpeP711kOosQwh/K6/xZSuGSMxfUUgAIUTHt6OUKbtBwpeksQgh/KIVs0k1Z8rUFpy894PQFz0QKAFF1WtFTw3A95Sl/+RkQQpyRVppMQ45sQw7tyikgqseNq74Q+fITVUSHO+BvNXwN6DSdRgjhD7m6POkmB9b5X4jW3e5d/NSkABBVoR39csrb+s4xnUUI4Q/FSIlUU4ZixKF1/hdiqZ3u3+S5pAAQgdaJXqzhG9KmVwgxVrZVXufP1Tm+zn962t5RuZuVyXnmIpCmoxtL8BktbXqFEGN0ok0vmcof35si2joFVEVPEJIZABEwWrXDu4vwbWCG6TRCCH840aYXO2Tk+N4NlR78QQoAESDt6Asot+m9yHQWIYQ/PK9NrxmKB03cVgoA4Xvt6FnAN5E2vUKIMfJUm15V+o2R25q4qRBOmI2uz8DHkTa9QoixUpCpz5lY5z+dfUSnLDVxY5kBEL7Ugb4qAzcD801nEUL4g+PH9zpBqZ+ZurUUAMJXOtAvssv7+S81nUUI4Q+lsE2qKUPBe216bSz756ZuLgWA8IVmdHsNfFHDR5W06RVCjIFWmkxjjkx9zqsL3r+md+oRUzeXAkB4XLlNr4IvA62m0wgh/KEix/dOmvVPJu8uBYDwrHb0Kylv6zvbdBYhhD94cp3/1P6HaMsGkwGkABCe04FeZsMNwGtNZxFC+IOR43snTqPUP5oOIQWA8IwTbXqv0/BJBTWm8wghvO/kOn+23q02vS7Q3EG09THTMfzyxyUCTVvt5UN8vgtMM51GCOEP5XX+HLZl5PjeicoQtpfT03bUdBCZARBGdaAvp7ytb5XpLEIIfyiGS6SaK9Sm13H6O14Y/EFmAIQhbeg5Cr4OvNt0FiGEP9iWfWK63wPH905MNyq7nP4ZKdNBQGYARIU9q03vdUCd6TxCCB9QkK3PkfbO8b0To9RnvTL4g8wAiIrRqg3equCfgDmm0wgh/CFfWyDdlKVkpk2vkzYQbX0JeKeCkRkA4bp29PnAOuBi01mEEP7g4eN7J8LGUp/w0uAPUgAIF3WgZ9rwJeD9gGU6jxDC+zzVptcpip/S17rJdIznkyUA4bhnten9PNBsOo8Qwh+y9XnSjVm0p4/vHbcEdmQZg429poM8n8wACEd1oK/Klo/vXWA6ixDCH3x0fO9EfM2Lgz/IDIBwSCd6TQluUvBS01mEEP5QCpWP783X+uL43ok4SEvr2exXOdNBTkVmAMSktKDbIvAlW9r0CiHGSCtNpiFHtsFHx/dOhNKf8urgDzIDICbs6Ta91wNTTKcRQviDP9r0OuIPRKe8wnSIFyIzAGLcTrTpXQesMJ1FCOEPxUiJVJNfj+8dtxLKvtZ0iDORAkCMWQd6qS4f5PN601mEEP7gsza9zlD6NvrbtpmOcSayBCDOaAp6Sgg+B1wL1JrOI4TwvmfW+fP+Pr53vBQjhKyl9LQMmo5yJjIDIF6AtOkVQoxfvrZAqimL7f/je8fPVl+k3/uDP8gMgDiNDvRlNqxTsNp0FiGEP5Tb9GYpRgJxfO8E6J1Ep6wB5Yv1DpkBEM/Rhp6t4Bsa3qWkQBRCjIFtaTJBO753QqxP+WXwBykAxAkz0Q15+Ky06RVCjEe2IQBteh2hfkO09T7TKcZDGrQIXnp57s052KvLjXtk8BdCnFG+tsBoe4JUU1YGfwDNZ0xHGC+Z4q1yt60fnGWr8J4jW0KZO7/a0DFyXGpCIcTplUI2qebAtOl1TrTV8lq73zORb/sqV1Lh7wCN81aXOj7+/xL2az+ZobbBV59hIUQFaKVJNWcYbU/I4B8QMgNQxX7waPzFyrIf5Xmfg8SgxYO31/LEf9egq3AXjxDiubL1eTKNVXF878T5cAZACoAqdb3WVsfG2AYFF5zuv+nZFeLuG+s5uk16/AhRjQLeptdZUgAIv7h148h7tVY/PtN/pzXseDDC72+uY7RfVoyEqAZV0KbXeVIACD+4/ZGB5qwV3oNSXWP9NYWM4pF/r+GPP6ujWO1bfYUIqKpp0+sGHxYA8khXhTKhyOfHM/gDROo1l78vxyfuSLDmSqkAhAiaXF2e0fYEmUYZ/KuF/DVXmVs3jS7URXYyyaY+h54Ic8+6Ovr2y/sBQvhZlbXpdY/MAAiv0yX+CQc6+i04t8g1/5bkLV9M0zjVV595IQTlNr3JljSxqUkZ/KuUzABUkdseG325bfOA09fNJhV//FktG/6jlqK8MySEp2mlT2zrk+N7HeXDGQApAKrEHXfo0MCc2FPAOW7dY+ioxT0317P3UWkxIYQXVXWbXrdJASC86pb1sb9D6e9X4l4HNoW558Z6oodkhUkILyiGS6SbsxSqtk1vBUgBILzo1j+OTtVh9gIdlbpnqQib7qzhDz+qI5uUj5kQJmhLk5Y2vZXhwwJAHtGqgB3WX6aCgz9AKAwXvT3Ptb9K8OKrc1jySROiorINOUbaEzL4i9OSR7OAu2VD4iwobQEiJnP07g1x9411HNks7wcI4aby8b0ZSmFZ568oH84ASAEQcLduHL1Xa15jOsdJex8N87sb6hnpkSkBIZxUCtmkmzPkpVOfGVIACC/5wcaRNyqt/st0jucr5hQb7qjh4Z/WkkvLR1CIydBKk2nMkanPyTe6SVIACK+4Y4euGYjHtgFLTWc5nfiAxf231bLl3hq0r35shPCGXF2edJO06fUEHxYAMg8bUAPx2LV4ePAHaOm0efMXM3zw9iRzVspJZEKMVaGmyGhbkmRLRgZ/MWEyAxBAtz2amGZbpb1Aq+ksY6U1bL03wn231JMcko+lEKdS11lgykUxdjxm9J1ecSo+nAGQV7IDyA6Vvon2z+APoBSsvrLA2ZcVpe2wEM9j1WrmvHqUOVeMMnA4DFIACAfIo1bA3LZ+ZK2t1J/w+fLOcLfF/bfVsf0P8kUnqpiCzhelWPi2IWrbym/39++LsP7fWgwHE39GZgCEaTbWTaB9PfgDtM22efvX05z3pzD33iRth0X1aZ6fY9HVQ7QsypqOIgJKCoAAuWV97C9R+lLTOZy08LwiH/5pkid/W8P9P6wjPSqTViLYaqaUmP/6EaZfGkfJx124SAqAgLhh/bF6lP6m6RxusEJw3pvyrHhFgf+9vZbHflWLLZsGRMBYEc2sV8SY+9pRQnVyip9wnxQAAVGrmq4D5pnO4ab6Zs2V12Y5/8157rmpnn3r5eMrgqFtVZrF7xikrkNO8ROVIxNMAXDzxqHZIR3aDTSazlJJBzaFufuGegYO+/6VB1GlGufkWfyOQVqXjH2dX14C9Ch5CVCYENKh71Flgz/AovOLfOTnCTbdWcMD/1JHLiX1rPCHSGOJuVeNMvOyGErqV2GIFAA+d8v6+MVgv910DlNOth0+59UFHv5pLY/9shZblk+FR1khTddlcea9YYRwvXxQhVlSe/rY9VpbKHsdspRD45Ty+wEf+nGSeWtkHVV4z9SzMqz9x+MsunpIBn/hCTID4GMdG2N/C5xvOoeXdC0r8b7bUuW2w/9Uz0iv1LjCrPrpBRa9bYi2VWnTUYR4DikAfOr2Rwaas1p/RTYKn9rSlxRZcG6Sjb+s4aGf1JLPyJ+TqKxwg82cK0aZ/coYKuyrd8NElZACwKeyVuSLKLpM5/CySJ3m0nfnWP2aAvf/s7QdFpWhFEy7KMHCtw4TaZYDK4R3yWORD9386OiikMUOoNZ0Fj/p3hninhvrObZdjhUW7mhdlmHR1UM0zXavk5VsA/Qo2QYoKiFkqRtBy+A/TrPPLvH+HybZel+Ee39QT2pY6l/hjNq2IvPfNMz0C5PyWCV8QwoAn/nB+tFXgL7KdA6/UtZz2w4//G91lAqmUwm/smo0c15TbtNrRXz18CeEFAB+cv2DOqxUbJ3pHEEQqddc/r4cq15d4IF/lrbDYpxOtOld8LYh6tpk26nwJykAfKSjLv4RYKXpHEHSPueZtsP33FhH/0F5P0C8sOZ5ORZePUTrYmnTK/xNVqt84l/Xx9pySu8F2k1nCSq7BE/+toYHflhHStoOi+epaS0x/yrzbXrlJUCPkpcAhVtySn8VGfxddbLt8NkvL/DQj6XtsCizwpqul8WZ/8YRadMrAkUec3zgnzcmzi7p0hakYKuowSMW96yrZ99G+WOvVm2r0iy+eoi6Tu+8KSozAB4lMwDCDSW7dCNK/q4qrWOezbtvPHGs8I31jByXY4WrRUNXgYVvH6JthRzfK4JLBhWPu2XDyJuBV5vOUc2WvqTIwgsS/OnX0nY46CKNNnOvGpE2vaIqyDeZh92xQ9cMxGPbgSWms4iyxKDiwdvreOK/a9CyHBwYytJMvyTBgjeNEGny9osfsgTgUbIEIJw0GIv9PUoGfy9p7tC84boM570xz9031nN0q2wb9Lspy8vH9zbOcu/4XiG8SGYAPGrdxuT0iC7uBaTU9yitYceDEX7//TpG+2S+2G/qpxWY/xfDdJ6bMh1lXGQGwKNkBkA4JaxL30YGf09TCla+vMCyi4s88osa/vjzWoo5qam9LlRrM/vVMeZeOSptekVVk28rD7p14+i5WvM4II+VPhKPWtJ22MOebtP7lmEiLd5e538hMgPgUT6cAZABxmO01kprtQ75u/Gdlmk2b/5ihvfekmLGEv8OMEHUvCDHms8dZ9l7B3w9+AvhJFkC8JjbHou/E/QlpnOIiZu/tsg1P5W2w15QO7XI/L+QNr1CnIoUAB7ywz/1NBQK+uvyPeV/J9sOL7u0yB9/Vsv6/6iVtsMVZNVoZr08xtzXjRKqlf2aQpyKFAAeUirU/x8Fc03nEM6pa9K86iNZXvT6PPfcXM/eR+VHzm1tq9Is/stB6tqlTa8QL0QeNj3ilseH5lAK7QYaTGcR7jmwKcw96+qIStthxzXNzbHoHcFv0ysvAXqUD18ClMcRryiGbkDJ4B90i84vcs2/Jdl0Zw1/+FEd2aTU4JP1dJveS+JyfK8Q4yAFgAd8f0P8JWC/xXQOURmhMFz09jyrrjjRdviXtdiyTD1uVkjTdZm06RViouTxw7DrtbY6N8YeB841nUWYMXC43HZ4/2NSj4+VF9v0VoosAXiULAGI8ercEPsASgb/atY53+Y96060Hb6hnpEemcc+nYYZJ9r0rpQ2vUJMlhQABt28cagFzfWmcwhveE7b4R/WkUvLBN1J4QabeW8YYeZlcZTlq4csITxLCgCDQjp8PegZpnMI7whHyu8HrHh5kQdvr636tsPK0nS9LMG8NwwTaaziPwghXCCPGIbcsj62GKW3A7Wmswjv6tkVKrcd3lZ92walTe+pyTsAHiXvAIgxU/omZPAXZzDzrBLv+2Gy3Hb45jpG+4P/fkDdtAILfNimVwi/kQLAgB9sHH0VmteaziH84em2wy8u8si/1/DHn9VRDOBDsVWrmfPqUWnTK0SFyBJAhV3/oA531sY3o/QK01mEP8X6LR74YS2b76kxHcUZCqZflGDBW4apkU59ZyRLAB4lSwDiTDrrRj8GSgZ/MWGt08tth9e+rsA96+ro2+/f9wOaF+RYdPUQLQuDfXyvEF4kMwAV9K/rY21ZpfcpaDOdRQSDtim3Hf5+PakR//w4104pMv/N0qZ3ImQGwFssZceXLx88uPOhJS+SGQBxWjlLf0NpGfyFc062HV56SZFHfl7Lhv+opejhw/GsiGbWK6RNr/A/pbQ9d+5oatXqvpbamuKanQ8tMR1p3KQAqJCbHxtZjc37TecQwVTf7P22w9KmVwTFtGlJ1qzpsVpacs2ms0yG974lAipsq3Ua/LtYK3yhfa7Nu76XKrcdvrGe6CHz2wab5uZYfPUQLUtknV/4W1NTjpUr+5k9O2Y6iiOkAKiAWzaOvlVrLjOdQ1SPRecXueZnCaNthyONJeZeNcrMy2LSplf4Wjhss3TpAMuXD2JZwVm6kgLAZT95UNeldew7pnOI6vN02+HXFHjoJ5VrO3yyTe+8N4wQrg/Ol6WoPkrB3LkjnHNOH3V1wVu6kgLAZam6+KcVLDCdQ1SvhlbNlddmWfPaAnffWMeRze792E89K8OidwzR0BXAk4pEVWmbmmbN2l7a2oLbeVIKABfdtn5wlo2+znQOIQC6lpZ4320n2g7/Uz0jvc7Ny9fPKLDobUO0nRPcL0tRHerri6xc2cu8eaOmo7hOCgAX2Sr0LaDJdA4hnm3pS4osPC/JhjtqePintZNqOxxusJlzxSizXhnDkuN7hY+FQprFiwc566wo4XB1LF1JAeCSWzfGLtJav9N0DiFOJVyrufTdOVZfUeD+22rZcm8Nehzjt1Iw7aIEC986TKRZju8V/tbVFWfN2l4aG6pr6UoKABdordWtG2PrkDPOhMe1dJaPFb7wbXnuvqGeY9vPvFN1yrIMC68eoml2dX1ZiuCZMjXDmtU9dHRU59KVFAAuuG3j6HtAXWg6hxBjNeusEu//lyRb741w3y31JIf+vHatbSsy/03DTL8oaSChEM6prSmy/OwoixcNo/x1eq+jpABw2C0PRps01jegej9Uwp+UKh8rfPZlz207fLJN75wrRrEi8rkW/mVZmoWLhlhxdj+RSHWs878QKQAcpupq/o9GzzSdQ4iJitRrLn9fjtWvKXDXj6Hj5cPUtMo6v/C3adOSrFnbS0uznEh5khQADvr+Y6MLtM2nTOcQwglNM4rMeF0Mq0aelIR/NTfnWL2qlxldCdNRPEcKAAdZNt8D6kznEMIJW/dkZPAXvlVTU2LZsgGWLB3EquJ1/hciBYBDbtk4cjmaN5vOIYQTEpkio7ZMlQr/UZZmwbwRVqzsp7Y2eMf3OkkKAAfccYcODejYOtM5hHCCBvb0pkzHEGLcpnUmWb2ml9ZWKV7HQgoABwzMjX8IzSrTOYRwQv9ojtGUPDkJ/2hqyrNyZV9g2vRWihQAk3TrH0enaq2/bDqHEE6wbdjfV52Hogj/Odmmd9nyQUIBatNbKVIATJIOqS+B7jCdQwgnHBrMkC3IF6nwvnnzRjjnnH7q6gqmo/iWFACTcMuGxFlQ+ojpHEI4IVuwOTogT//C26ZOzbBmTQ/t7fJZnSwpACaldAMQMZ1CCCfs601Rkod/4VHV1Ka3UqQAmKBbNgxfBVxhOocQToilC0Rj0txHeE81tumtFCkAJuCOHbpmIB77nukcQjhCw+7etHSvEJ7T1RVnzZpeGhulOHWDFAATMJCIfRxYajqHEE7oHsmSSMu2P+EdU6ZkWLO6l45OOY/CTVIAjNNtjyam2br0BdM5hHBCsaQ5GM2YjiEEUD6+96yz+6u+TW+lSAEwTtoqfR1oNZ1DCCcciqbJy7Y/YdgzbXqjRCLSebJSpAAYh9vWj6y14b2mcwjhhHS+xLGhnOkYospNm5ZkzZoeWlrks1hpUgCMg22pdWgGY3q8AAAgAElEQVRCpnMI4YS9vWlsLdOswozm5hyrVvXR1RU3HaVqSQEwRrdsGL0azUtN5xDCCcPJAoNxebNaVF6kpsRyadPrCVIAjMEN64/VA98ynUMIJ2itpdufqDilYO7cEVat6pM2vR4hBcAY1KqWz4KebzqHEE7oHs6RysqLVqJyOjtTrFndQ+sUadPrJVIAnMHNG4dmo/VnTOcQwgkF2fYnKqihvsCKlX1yfK9HSQFwBiFC3wEaTecQwgkH+tIUirLtT7grFNIsWxaVNr0eJwXAC/jBo/EXo+13mM4hhBNS2RLHR2SrlXDX7NkxVq3upaFe2vR6nRQAp3G91hYbY+sAZTqLEE7Y05tCy7Y/4ZKpbeXje9vb5QVTv5AC4DQ6Noz+jVLqAtM5hHBCfyzPcFKeyITz6uuLnHV2PwvmD6PkcclXpAA4hdsfGWjOwtdM5xDCCbbWHOhLm44hAsZSmoWLh1i5ol/a9PqUFACnkA1FvgB0mc4hhBOODGRJ52Xbn3COtOkNBikAnufWTaMLdZFPmM4hhBPyBZsjg7LtTzijpTnL6tV9TJ+RMB1FOEAKgOfRBXUDSteaziGEE/b2pymW5MU/MTk1kRJnrZA2vUEjBcCz3PbY6MttW7/RdA4hnBDPFOkblW1/YuIsSzN/3ggrzumntkaO7w0aKQBOuOMOHRqwY+tM5xDCCRrY05Mu/x9CTIC06Q0+KQBOGJgdvwY4x3QOIZzQN5ojlpZtf2L8mppyrFzZz+zZMdNRhMukAABu/ePoVK30l0znEMIJJVuzX7r9iXEKh22WLh1g+fJBLDm+typIAQDosP4KqA7TOYRwwqFohlxR5v7F2Jxs03vOOX3U1ck6fzWp+gLgnzcmzi7p0odM5xDCCZm8zdFBabkqxqazM8Xq1T1MkTa9VanqCwCb0g1AxHQOIZywry+FLef9izOobyiwcoW06a12VV0A/GDjyBu15jWmcwjhhJFkgWhMTmYTp/d0m95lA4RCUihWu6otAO7YoWsG4rHvmM4hhBM0sKdPXvwTpzd7doxVq3ppaJDdIaKsaguAwXjsk8BS0zmEcMLxoSzJjJz3L/7c1KkZVq/uoaNDGkKJ56rKAmDdxuR0rYv/x3QOIZxQtDUHo3Lev3iuuroCZ6+ISpveCrBt1W86w0RUZQEQ1sVvAq2mcwjhhAN9afJF2bctyixLs3DRECvO7icSkc+FmzQUu4+2HnviydnzTWeZiKorAG5bP7LWhr82nUMIJ6RzJbqH5ahWUdbVFWf16l6amuRlULf19zdlnnxyVn0qVbPAdJaJqqoCQGutbt0Qvwm0ZTqLEE7Y25tGy7a/qtfckmP1ql5mSJte142O1uktW2aqgYHGetNZJquqCoDbNsT/EqUvNZ1DCCcMJvIMJuRJr5o93aZ34TDKkkLQTflCiF07prP/QJvSOhgvVVRNAXDD+mP1WulvmM4hhBO01uzrkbe6q5WyNAvmjbBiZT+1tXJ8r5tsW3HwQDs7dk2jkA+ZjuOoqikAaqymz6GZZzqHEE44OpQjlZdtf9WoKZzmVa/qp6VZju91WzTaxObNM4nHa01HcUVVFAA3bxyarbT6tOkcQjghX7Q51C9P/9VG5Uqo3jgtsQw0m04TbIlELVu3zqC3t8V0FFdVRQEQ0qHvAQ2mcwjhhAP9aYq2rPdWC2XbqGgK1Z8EeeHTVYV8iN17Otm3rx3bDv674oEvAG5ZH78Y7LebziGEExLZEj2y7a86aFCjaazjCSjKco+btIajR6eydesMcrnAD4tPC/Tv9HqtLTbEbgKC8cqmqHp7e5LIM2DwqVQeqycOKdnl4baBgUY2b5lJbLTOdJSKC3QB0Lkx9j4U55nOIYQT+mN5RlLyxnegFWys3hhqJINUeu7KpCNs3zGDI0emmI5iTGALgNsfGWjOwldM5xDCCbYN+6XbX3BpjYqmsPoTIO93uKpUUuzZM409uzsoVcE6/wsJbAGQtSJfBGaYziGEEw4Ppsnk5Vz3IFLxLKo7jsrL7I7burtb2bq1i3Q6YjqKJwSyALj50dFFKD5mOocQTsgVbI4MSLe/wMkUsI7HUElZ53fbyEg9m7d0MTTYaDqKpwSyAAhbep1GBfPkBlF19vWlKcnDf3CUNKovjjWYlm19LstmI+zcMY1Dh9vkj/oUAlcA3Lph9JUaXm86hxBOiKUL9I/Ktr9A0KCGUli9CaSic5etFQf3t7Nj53QKhepe538hgSoArn9QhzWxG03nEMIRGvb2pOVl8CBI5MrT/VlZ53dbb28Lmzd3kUrVmI7ieYEqADrrRz+KVitN5xDCCT2jOWIZGTD8TGWLWD0xiMssjtsS8Vq2bO2ir0/OSR6rwBQA/7o+1pbT+h9N5xDCCUVbc0DO+/ctVbJR0SRqIAky2++qp9v0HmxD23Lm23gEpgDIK/01oN10DiGccDiaIVeQkcOP1Ega63gcivL35yZtKw4dmcqObdPJ5QMzlFVUIP7UfvD40Apd4gOmcwjhhEy+xNFBafXqO8k8oeMxyBRMJwm8oLfprZRAFACqFLqRgPxehNjXm8aWPUu+ofIlVF8cNSxnNbgtmaxl+/bpdHe3mo4SCL4fNG/ZMPJm4FWmcwjhhOFkgWhcDobxg6fb9EaTcnyvy4pFi717O9m9u6Mq2vRWiq8LgDt26JqBeOxbpnMI4QQN7O2V8/49T4OKZVA9cVRe2vS66WSb3m3bZpDN+nq48iRf/4lG47FPK1hiOocQTugeypLMyoDiaekCVvcoKi3r/G4bHm5g8+YuhocbTEcJLN8WAOs2JqcrXbzOdA4hnFAoaQ5FZQ3Zq1ShhOqNS5veCpA2vZXj2wIgQuk7QIvpHEI44WB/hrxsG/Oek216owkoycjvplJJsX9/B7t2TaNYlHX+SvBlAXDrxtFztdbvMp1DCCekciW6h2Xbn9dIm97K6e1tYfNTXaTScnxvJfmuANBaq1s3xteBlhJRBMKenhRatv15R7pA6HgcUh46vleBbqlDtzWga8MoW0MihxpIonw8czQ6Us/mLTMZHJR1fhN8VwDc8lj8XQp9iekcQjhhIF5gOCkvlHmCV9v0NkSwZ09BN0Se/lf6xL+nvQEODqPS/to6msuH2b1zGvsPtKG1HN9riq8KgB/+qaehUNBfM51DCCfYWrOvT7b9GefVNr2RELqrGbvt9E/HOmzBwjbUrn5fvKNg24qDB6RNr1f4qgAoFhr+QcFc0zmEcMLRwSzpnGz7MyqRKx/f66U2vUphdzaipzdD6MxPxzpsYXc0YfUnKhBu4qLRJjY/1UU8UWc6ijjBNwXALY8PzaHEJ03nEMIJ+aLN4QHZ9meKyhVRx+OouLdevtStdehZreia0Ph+YXMN9LuTabISiRNtenulTa/X+KYAoBi6AYW8KSICYX9fmqIPpmwDp2RjRZOoaMpb6/z1YexZreimCTa3sby3jp7Ph9i1U9r0epkvCoBbNg5fguYtpnMI4YREtkjPqIfeMK8SnmzTG1LYXS3ojsbJXSfnnSWMp9v0bp9OLueLIaZqef5v53qtLTbG1gFSQopA2NOTktPkKkgl81jdMch6a7eF7mzEnt4M4cm/DOeVToTRgSa2bO4iFpN1fj/wfAHQuSH2ARTnms4hhBP6YjlGU955Wguyp9v0euz4Xt1cW17nr3Pm61cNpVAJszNKyWQN27fPkDa9PuPpAuDaG5+aguLLpnMI4QTbhv29adMxgs/WJ9b5PdamtzaMPbMF3erQ07HWWH2J8vsMhpxs07tndwcladPrO54uAIb2HbouNzQUXvyyFUfqmurnmc4jxGQcHsiQLXho/TloTrTptXri4KU2vUqV9/N3NIFDY6SKZVHHY0bbER85MpVt26aTzUbO/B8LT/Lsuvo7/u43MyOl0j4ov/k/dU5HYdGLl+fCdTVNhqMJMW65gs36vSOeOmcmUDIFQt0xSHnsRLyQRWlxO9Q7NEhmiljHY6ikuSn/kZF6Nm+eydCQbMp6jmirBcpDU05n5tkZgEixdP2zt/2NHBuMPNmzPtJ11hxmrVpQssLWODfKCmHO3r60DP4uUIUS9CfKx/d6kN3V7Mjgr0o29CWwBsxN92cyYbZv75I2vQHiyRmA93z0zqXaZgenKVBqGmqZu3Yh7Qu7UJ78HQjxjNF0gScOxL30Hpr/2aCGU6ieeLkxjhdZitI5XZP+llUDqfIpf4a2L0qb3jGSGQBn2CW+rtTps+XTOfY/uou+3ceZf8ESmjrlzVPhURr29qRl8HeQimexjsfA48co67rIpAZ/lciV1/kNHlPc29vC5s1dpFLSpjeIPPf8/K5rfrNMUdrJGF+XUQo6Fsxg7rmLiNRP8BQtIVxyfCTHru6k6RiBoLKF8vG9hre8jVldhNLyznH/MpUroXrjqFFze/tHR+vZvKWLwYFJHlBUTWQGYPIsSp/W43hXVmsYONjH0NEoM1fMY+bKuVgheT1AmFe0NQf7vbk27StFG3Vynd9Lx/eegc6Xyh36xtDQBygvZfQlsAaTYOh9kaeP75U2vVXBU3/D7/7wndNQHAEmvFG2rrmeOS9aRPu8aQ4mE2L89vWmOTLojRPa/MoaTENfHOWl43vHwZ7Viu4881O0Gk5j9SSgaGZZ45k2vdMoFOQBakJkBmCSlP4YqEmdkpFNZNj30HaiXVOZd/5SGqbIFJaovEy+xLEhb3Wa8xOVzJXX+TP+PjXR6oljN0TQjadeQ1epfPncAoPbF6VNb/XyzAzABz/424ZMqHAE6HDqmkoppi3pYs7ahYRr5SUWUTlbDscZSHjr7HlfyBWxehNG178dpxR6WhN2ZwOEQ6A1KlNERZOomLljihOJWrZunUFvb4uZAEEjMwATlwkX/xLt3OAPoLWmf28PQ4ejzF69gOnLZ6Nk36Bw2XCyIIP/eJ08vrc/6at1/jHRGtWfINSfQFsKpbXR3gSFfIjdezrZt7cDW9b5q5pnCgC0/hu3Ll3MFzm8aR/9e44z77zFTJntaJ0hxNO01uztNXdYix+pkXT57X6frvOPh8kzC7SGo0ensnXrDGnTKwCPLAH81Yd+tSRkWXuoUJ7WrjbmX7CE+lZ5P0A469hghj3S8GdMVDqP6o6j0h47vjeABgYa2bx5prTpdZMsAUxMSFl/TQWLkVjvMFt/u4kZy2Yye80iQhF561VMXqGkOTggL/6dUaGE1eu9Nr1BlE5H2LFjRuCO722eAlM7oLYOTu76jo/AUBRy8iM4ZsZnAK6//nrrQP/qQ6Dnmrh/pC7CrHPmy/sBYtJ296Toljf/T8/Wzxxr69XjewMiSG166xth2Wo4aw3MWQTTusr/7nSScTiwC3Y+AdufgNHBCgX14QyA8RHv3R++8+UoHjCdo7GtmfkXLKV5mhwrLMYvmS3y2P44OmgvsDlExbNY3TFvtekNqO7uVrZu6SKd8W+b3vpGOP9lcN6lsGAZTLT1m9awbRPc90s4vNfZjH/GhwWA+SUApd7khXnA1HCCHfc+wdTZ7cy/cBm1jbJWJsZuX19aBv9TyRSwumMor7XpDaCR4fLxvUND/n23af4SuOQKOPcSqHHgK1gpWHVB+Z89W+HXP4FjByd/3aAwPwNwzX8eBLXAdI5ns8IWXcvnMHPVfEJheT9AvLCBeJ4tRxKmY3hLoVQ+vncoE7xtfR6TyYTZtXM6hw63+faPeuY8uPJqeNFL3L2PtmHTQ3DnTyEx6vDFfTgDYLQAeM81v1qlsbaYzPBCpO2wOBNbazbui5H2eGe6itGghjzepjcgbK04uL+d7Tum+7ZNb9dcuOqdsOpCKvodm0nBPXfAQ3dB0anDJn1YABhdAtDKusoDs/+n9XTb4T3HmXf+Epql7bB4niODWRn8T1DxLKo7hpJ1ftf5vU1vpAZe/RZ49VshbGAUqm+EN78XLnkN/Pb/wpOPVj6DFxieAbhzg4aLTGYYM6XoXDCduecuJlLvzx864ax80Wb93lGKJQ9XsZWQK2Idj6HiPmnT62PxRB1btsygv6/ZdJQJW7IS/uojMG2W6STP2LMVfvUj6Dk6iYv4cAbAWAHwzo/d3WIVs8OArxbZQ+EQXSvmMuuceSjLn9Nuwhk7u5P0jFTvoKdKdrl97YCcfOi2fCHErh3+btNbVw9v/xBceLnpJKdWKsLD98Dd/wHp5AQu4MMCwNgSgCplL8Zngz9AqViie8shhg71M3vtQmk7XKUSmSI9o9U7+FuDaVRfHKrg+F6TbFtx+MhUdmybTi5vftPWRM2YDe+/rrzm71WhMFx+FVxwOdzzH/DQ3WAHfDXLXAGg9Us8sAlhwjLxdLnt8IypzLtA2g5XEw3s6U15YfdqxalErnxuf1aaHbktGm1i8+aZxOO1pqNMyoWXwzs+7My2PicUSppUtkQyV6RY1BRtTUkDWlNfE6I2rHj1O0NcekWY//wx7HjCdGL3GBuB333NnQ8Cl5m6v5NOth2evWYRkTr/Hr4hxqZ3NMeOYxOZI/QvlSuheuPBatPrUclkLdu3T6e7298vHYfC5YH/4leZzVG0NUOJPIPxAsOpArnC2GatwpairSlCOlrDfT+pJXr8DL/Ah0sARgqAD37wh5FMqHMUaDBxf7eEayPMXiXHCgeZbcP6vSNkx/gl4nfKtlHRFCqalON7XfZ0m9597dg+P763rr485X/WWjP311ozEC/QPZxlJFWc9CFdNWGLbG8dd/9LHYXMab7bpQAYm3d/6FfnYVmbTNy7EupaG5l//mKmzGw3HUU47EA0w6H+Kuj2p0GNprGOJ6AY8IVQw0626d22bQbZrH/X+U9qbYNrvlA+t7/S8gWbYyM5eoazY37SH49cyuKpXzfRu/sUM70+LACMfNq0ZZ3jdOWhFCxfACsWQ+dUTSQC+bzieFSz/yjsPawoVeihLRtLsfv+LUyd3c6885dS11xfmRsLV2ULNkcHgj/4q1QedTyGSss6v9sGBhrZsmUmo6MeWSCfpOmz4WPXw9TOyt63UNIcGcxwbDDj6vd8baPNRe+Kc/hPtWz9XRMln/+ImCo3z3LyYucshb96Lcya/vzi65n/P5XWPPIU/M8GRXTIybuf3kj3ELHex5i+VNoOB8G+3lTFikgjCjZWb0za9FZAJh1he8Da9E6bBZ/4ankGoFJsrTk6mOVwNEOxgktU88/L0dRus/7nLZR83ObCyBLAe6658y4Nr3PiWm98Bbz5FXrMx0iWSvDwn+CO3ytSFXyYq2moZdaqBUxf0lXZMy+FI2LpAn86EA/muKg1KipteiuhVFLs2TONPXs6KZWC8z0wbRZc+7XKDv4jqSK7jydJGTyJc+hImPU/a6GYU75cAjDzDoBDDYBe+WJ4zxsm9uc9God/vVOxdc9kU4xPY3szC85fQtO04FT+gafh8QMx4hmnDg33jvLxvXFUPni/N6/p7m5l69Yu0ulg7RSq9OBfKNrs60vTO5LzREHeu6uGjb9olgJgLD74wd82ZEKFBDCp11xndMA3PqEndY601vC/j8MvfqfIV3AtRylomzuNuectlrbDPtA9nGX38YCddpcuYPXEUEkfz1/6xMhIPVu2zGRwMFCbngCY0gGf+Xb5fythJFVk+9E4uaK3xtnN/93Iobum+64AqPg7ABmrsJBJDv4Af/GKyQ3+UB6IL78QZs+AG/4NUhXa4qw1DB2JMnJ8kJkr5jFz5VyskLwf4EXFkuZgNEB730sa1RfHGkxLm16XZbMRdu6Y5us2vS+krgE+8oXKDP4aOBRNc6g/44mn/uc757UpVl6x/+zf/h07TGcZDwObTe1Jt4BoaoDzVzqRpWzJPM0XPgRtLc5dcyzsok33lkNs/vVGBg/0BvJLwu8ORdPkg7DnX4MaTBHa2V8+u18+bK6xtWL/vg7uu28pBw8Fc/APheED18GsSS/knlm+aPPUoTgHPTr4Q/nPI1xjfdd0jvGqfAFghbome4lzz5780//zzZqu+cKHNdMq+BLLSSfbDu/6nydJD1fXCXNels6XODYUgPP+EzmsPVGs7hjB3sZgXm9vC/fdu5TNW7ooFPx9mM/pKAXv/jgsX+P+vVLZEpsOxBhO+mK/3ZVv+tG+y0yHGI/Kf0I1ky4Ali1w59WFjqnw93+taTC0LB/vG2Xr7zZx4JGdFLKyNmvanp40to8f31S2iHVwmNCBIVRWXvJzUyJeyyOPzOfRR+eRSgW7Xfir3gLnv8z9+wwnC2w6GCOT90/RqrT1FdMZxsNEiTrpAmDWNPe+lLumwbXvcX6GYcy0ZuBgH5t/vZHj24+gbf98+INkOFlgKOHPIkyVbKzeONbeKCqeNR0n0PKFEFs2z+T39y+hr6/ZdBzXLT0Hrvor9+9zfCTHU4cTFEu+K8AvfcuPDq4yHWKsDBQAesZkr9Ax1Ykcp7d8Abzr9WY/eKVCkWNPHmDLfz/OaPeg0SzVRmtd7vbnQ2okjbUriupPgtSOrtG24uChNu67Zyn79rej7eDs6T+d1jb4m0+B5fL7yt3DWXZ3Jyd9fr8pts27TGcYKwMFgJr0q3Z1FZhhe/mFcMmLzH8As/E0u/+wlV3/s5nMqD8HJb85NpQjlfXZ+ffJPKE9A1hHRqEoI7+botEm7n9gMU8+MYtc3v9n949FOAwf+Jz7e/2PDJa33Jr/5p0EZb/zbXdoX2zrMjEDMOkVdrcr0JPe+XqY6pFZvVjvMFvv2sSRTXspyqEtrimUNIei/jnvX+VLWEdHCO0fhIwvXpTyrWSyho0b5/LwwwuIxarr/I7XvxMWLHP3HocHMuzz6czbc6mZpfiBi0ynGAtfFgCVOsK3sR7e+xfeqUW1bdO7q5vNv95A365jvp0i87L9fWkKPlh3VLaN1ZfA2h1FDQfonAIPKhYtdu6czu9/v4Tu7lbTcSpu4Vnwije5e48jA1n29/mn8D4T21YvNZ1hLEwsAUy6NV4iVbn1tjVnwYtXe2tAKOYKHN60j213bSIRHTUdJzBS2RI9Ix7f9qdBjWawdg+g+uTsfjdpDUeOTOXee5eyc+c0bDuY2/peSG0dvOcTYLn4W+8bzbG/LwhP/s9QcKnpDGNh4hM96RmAZKayX3rvfD3URrz3RZseSbLj3ifZ84ct5JLytvdk7elNeXtWJV3A2j+IdXgE8j57R8FnhkcaePDBRWzaNJtsNlhn94/H2z4AnZPet3V6w8kCO7p9vuZ/ahdff732fMVoImDtZC8wOOxEjLFraSo3HvKqke4htvxmI8eePECpIAPDRERjec8eNqIKJVT3KKG9A6iUP7cm+kUmE2bTpjn84YFFDA8H7+z+8VhxLrz4le5dP5EusuVIwttF98S17ug6ONt0iDMxsQQw6fn7/ccqv+XmdS+DukmXLu6xSzbHtx9hy39toH9vjxz1Og621t5cf7TLx/dau6Pls/uFa8pteju5775lHDkinTojNfD2D7p3/VzB5qkjCUoBXsIqoReZznAmnp+iOJX9Ryt/z6YGeKUP3uvMZ/Ic2rib7Xc/QWIgZjqOLxwZyJL22JS6imfLA393DHzwUqKf9fa28Pv7lrJt2wyKRV9+JTruirdBx6RPbDk1rTXbjiXIB3y7qm1ZC01nOBNfbmLt7oNsvjLnATzblZdq7luvKHhzpvg5kkNxdt77BG1zpzHvvCXUNHp4+sKgfMHmyKB33qJX2QLW8QQk5J0Ot42O1LM5oG16J2PaTHjFX7h3/T09aUZTwd/KrGxbCgA3lGzYexhWLa3sfZsbYe1yeHxbZe87UdJ2+Mz29qe9cdxo0Ub1J6RNbwXk8yF27ZzO/gNtaB38E/zG6+oPQ8Sl9x57R3N0D1dHcass5fKZtZPnywIAYOOWyhcAABev1Ty+zV9fGifbDkf39zB3zUI6Frn4Wq+PxNJF+k1v+9OghlJYvQnp1Ocy21YcPNDOjp3TKBSkED6VlefD8tXuXDuZKbGrO1jb/V6I1qrRdIYz8e2C16ZtkCtUfiBevbQ8E+BH+VS57fDO3z9FeqS62w5rYG+v4e1HiRwhadNbEdFoE/f/z+ITbXpl8D8VZcFV73Tn2rbWbO9O+Lq75ngptOdHCt8WALmC4skdlf8whUJwwTn+/hDH+0bYeld1tx3uG80RS5tZh1S5Z9r0Im16XZVI1PLIo/N5+OEFxBPVdXzveF30cpi9wJ1r7+tNk/Rbf41JstFNpjOciW+XAAAefUrx4jWVH4xXLIYHNlb8ts460XZ4pHuQrpXz6DprDlbIt/XguJRszX4TZ46XbKxoEhVNyTq/y/L5EHv2dLJvbwe2rPOfUSQCr/1Ld649nCzQPVQd6/7PpTxf8fi6ANi2Dw51w4IKH7ewZG5l7+emYr7cdnhwfy/zzlvMlNkdpiO57lA0Q65Y2QFYjaRRx+OogG99Mk1rOHp0Klu3ziCX8/XXW0VdeiW0ufCjX7Q1O7qTFVlqU0BrrUVLxKIxoggrUEqRLWkSeZuhXKmiB2gq8PzhHb7+CdEafvMHxbXvqeyXeWszdEyFwZGK3tZVmRNth1u72ph3/hIapnh++WpCMnmbo4OVexpRyRxWdxyyPtg76nPRgSa2bO6quk59kxUKw+VvdOfa+3vT5AruFr0K6KgLMaPRInyKc+Yaw4rGcIjpDSF6UkWimQoV4Up5/o1HXxcAAE/thsPHYf6syt53yVzN4EjwphZjvcNsu2sTM5bNZNbqhYRrfP8ReY59vanKvIhUKGH1xlEjGYJ40LmXJJM1bN8+oyo79TnhwsvdefqPZ4p0j7hbbLfWWMxqDFEbOvN3sQJmNYYJWyV6Uu5PBWitpQBwm9bw6/vhk39d2ftO6wje4H/SybbDAwf7mb1qPtOXz0ZN/gRn40aSBaJxl196tHV5nb8/Kev8LisWLfbu7WTP7g5KVdipzwnKgle5cOiP1rq85c+lHwGlFF0NFtPqQ4z3m2l6fYhUQRPLuznvUFEAACAASURBVDsTYIHnj2L1fQEA8NRuxdY9mlXLKnfP5noN4/7o+cvJtsMDB/qYd/5SWqb79wlLA3vcbDmqQcUyWD1x6dRXAUeOTGXbtulV3anPCWtfDNNcmD3tHs6RcGmHS1gpFrSEaIpMvOib3RQiPmy7OjmnwcCh9eMTmLL59jsV6Qq+aNrcFOzB/9lSwwl23veEr9sOHx/Kksy4MzCrdIGQtOmtiJGRemnT66DL3+D8NfMFmwMuNdcKK8WS1vCkBn+AGkvRWuPu8Kc0x1y9gQMCMQMAMBKHO+5V/M2bKjPt2twQ/BmA5xvpHiLWu5Gus+Ywc9V8QmF/HKhSKGkORl04779Qeub4XuGqTCbM9u1d0qnPQV1zYOFy5697MJqh6EKXv5CCxa0h6sLOfO+21VmMurgMoEP6iGsXd0jFZwC2P7zmeCEXceX9+Qcfh+373LjyqVTX4H/SM22HNzJ4oNcXy9yHomlnO4+dbNO7S9r0uk3a9Lrn0iudv2Y6V+K4C8drhyxY3BqhPuzckNUUsVz9FtehULeLl3dExQuAozvmz3rgp6+duvPRVZQKIUfLL63hR79SjCScvOqpZfM+GPlclE+XjxXecc+fPN12OJ0rcWzIuS8kFc8S2tOP1R1DBbiXuRf09rbw+99Lm1431NTC+S9z/rr7+9NoF54K5jaGaXDoyf+kkIKIe5OY3f/13gWjrl3dIUZ+qmzb4vDWRfzvv7/aOrZzvqMduUbicMNPlet9AoY8/1dbGcnBctvhA4/spJAx3FjnFPb2OvSFlCtiHRjCOjgMOVnnd9PoaD3/+9BCHn10HqlUhXt+V4lzL4UGhw+qjWWKDMSc32XTWR9iSq07Q1Wt5doQuNmtCzvJaFmdS9ex7aG1rP/Pyxjua3fsukd64If/z91dWL0D1bkEcCpaw8DBPp769Qa6txxC29447W4wkWcwMckvpKKNOh4jtCuKSnivwAmSfD7Els0zeeCBRQwOBPMgKq+44DLnr3mgL+34W/UNYcWsRvce08dwfMDEKL3FpSs7yhPzarGBKWz89Ut56vcXkEk0OHLNP+2A/+93yrUiYO9hd67rZyfbDm/5zWMMHYmazaI1+3omtz5vDaaxdkexBjx/noev2bZi/74O7rlnGfv2tzs6Iyj+XPMUWLzC2Wsm0kWGk86edqmA+c1hV9fp3TreRGv1lDtXdpandgH0HphF9MgMFq7dy6K1+7BCk5tqvfdRSKYV73urxsk+N9EhOG52fPO0bCLDvoe2E+2ayrzzlxo5VvjYYI7UBLfkqWQO63gMMtKpz23RaBObN88kHq81HaVqvOhicHrm+/Cg87tspjdYYzrhbzLc6sJdUqEn3bmyszxVAACUiiH2bTqLY7vms+zCncxaOrmzFB55CrJ5xUfeoQk79Lt9+An3ZhaCJNY7wrbfPs60JV3MWbuQcG1l1nPzRZtDAxN4+s8VsXoTqFEXtgyK50gkatm6dQa9vS2mo1SdtS9x9nqZfImow2v/EUsxvd79bcZufI1rOPrbD8w/5MKlHee5AuCkbLKeLQ+cy7Fd8zj7kq20tE/8TfM/7YBv36645h2atkkeZhdPwu/XT+4alTC1BV50tmbBbJjSBPkixBKKo72abftUxRoZaa3p39vD0OEos1cvqMixwgf60xRLY//RVraNiqbk+N4KKORD7JY2vcY0T4HFZzt7zSMDWccH0lmNIawKHD9edOHnXWkecPyiLvFsAXDScE8Hj/7ycmYuPcZZL95OTf3EXsTacxj+YZ3iPW+Ai9dO7C9da7j9PyHr4XfB6ms1V18JLz2XU8x46Kf/92A3/GGjYv0WKFZgpruYL3J40z769vYw/7zFTJnl3Eufz5bIlugZHvtfkLTprQxp0+sNZ60tn//vlEJJ0+Pwvv/6sHLtrf9n00BuHA8KY2bp/3X+ou6oeAnejj4CzJ3Ir43UFli0di/zV+3HmsQRAuet+P/bu+/wuMor8ePf986oy6q23HCVu2RjB4MBQ8AJJIQA2ewu5BeSWBDAIoTEpLAhbeNsKtnNbmAhlZQN6Y6xiU0oAYMDGDsUd9myXCRbsnqdkWY05b6/P8YC27io3DLlfJ7Hz5MnzLz3WNbMPfct58BHrtMUD6GuiNbwmw2Kv8Xx0//oQrjvNk3JEO6trZ2KPz2l2brT2V+FwvOKmXrhLDJGZVk67uuHuunsPXdGo3pDsbr9vTY3BxK0tuawfccEurukTa/bKu6Bi5ZZN97R9iDVx6zdJDsl10NRpv3T/8GoZm+n9W26lTInPXbHzLgvAgQJlgAMyCnwM/fSXZRMaRr2GF4vXLFYc9XFioljz54FdnTDL9YqdlYP+3K2y8rQ/MenFGOLh5fRbt2p+L/Hwe9gYTtlGIybPYHzFpbisaAiR3N3P7uO+M/+ImnT65i+vjT27BknFfzihFLwrV9AfpF1Y75S00Vv0Lq6GGkGlBWlO3Jj6uw3qfVZPv1ZtXZFqcVnLOyTkHNxvV25vPbXSxh9Xgtzl+5iVFHPkMeIROC5LYrntsC08xTnz9ZMnQhjixRpaZq+IBxrVuyo1ry6RzkyTT4SN183/Js/wJIFmtlT4WdrFLv2WxfX2Qy0HW6va2XigmmMnTl+2OdyTBMOnK0BialRrb0YzT6QCn62ipXvLZE2vXFm/CRrb/7dfWFLb/4AozOH3t53uPpsWPZTmtWWD2qjhEwABrTVl/Dy6mVMLj/MzMV7ScsY3nTO4Xo4XH/ir92Z/nd8GjcaLn/HyG9qBXnwuQrNr9YpXnjVgsAGKdTXz+Et+2ipaWDqhbMYVTL0nZq1bX0EztDYQ/UEUfU9qFCcZ3FJoL4+n507xtMXkE598WbW+daO1zCEvTaDoZRidJZzCWOPDeXco7DG8kFtlNAJALxVVvhY9SRmXLiPKeWHUCq1nvCWXaQtO9drGHDrBzWFeYq1Du9l7W2PtR0umlzC5MUzyMgZ3Jpxf9ikrvU0R/cCYYyGbpRf1vnt1tmRxfYd42lvlwp+8WrKDOvGipqxJTcr5XgVXgd2/kNs/T9o/QbA/Y9Xlu6yelA7JXwCMCDUn07VSwuo3zeFeUt3UjShze2QHHNhubXjKQUfvEqTkQF/+KuzMyBaQ3tdC50NbUwom8KE8ikY56jiVNPUd1JBDxU1oel4m1451merQMDL3qqxHK4tkh91nJtUat1Y7f6Q5UV08tOd+67p6rfh1I/SCTX9D0mUAAzoactny+OXUzK1iXlLd5Cdl9ztWovyYrv/7XDt5dDVHauo6LSBssItNceYvGg6xdPHn3Z7QHdfmOaut55EVFsv6liPdOqzmakVhw4Us3vPWOnUlwDSM2DsROvGs7rwD0B+uv07/wd0n2G5cEQUf7B+UHslXQIwoKV2HG1HSphcfphZF1XhTUvO9d+J4+wd/8Pv17R0KN7Ya+91zmSg7XBTdQNTL5pF7ugTKsdp2H8s1oDEGwxj1nahgtYf6xEna2zMY/v28dKpL4GcN9268r+m1iNvsnWKTK8iw6H7f2/YpC9i8QOCUq+svb10t7WD2i+pU/eB/QGbfn81VrcdjhejC+x90lUK7vyQZpLNica5+Nt62P3kQNvh2JfPsa5+gsEIaXUd6H2tcvO3WY8vkxdfmiptehPQhBEdvD5Zhz88pEqbg5Ftc83/E7UE7Cj6pX9mw6C2S9oZgBP198baDtfvi5UVzi9xqA6uAzIzFHYfaM/MgJUf1Xz5AegPu5hEaU3roSY6jrQybu4kmgMZRA52uBdPiugPedmzeyyHDxcmZRKdCopKrBurzWd9op3pdeb3KmRqusOWf1/6vKFgwq3/Q5LPAJyqs7mIl9dcGWs77Lem7bDbrOxyeDYlxfCv18THl380EqV2dys+ufnbyjQVhw4X8cxTMzl0qEhu/gmseKx1Y3XakABke535ImsNmGjrd6v+dvUny85RgSw+pcQMwKkaD06k5cg4pi+0pu2wm5ys3PeeSzSv7YLqWndvBBqDKNaWEBYnkza9yaXYohmA/ogedpvts8kw7P9O6Y9q2iwuXARoDP2w1YM6JaVmAE4UDcfaDm/63dU07Ldwgcxhvl7ndrsrBbf9C6S7nDaGyUYnQIGmROT3Z7Bly2T+/vdpcvNPIkVjrBmn0+LNfwOcmMls6I1aXgRUaTasvX1Gwm3+G5CyCcCAwPG2w1v/chk97SPsFewCX6+zN8Jxo+F9Vzh6yZNoDEwlT/9Wi0QMqqrG8swzM6ivT7zPgTi73Lxzv2YwOnrt2Whr9wSAL6xtOfqn4XuWD+qglE8ABrQ3jOHl1cvYsfECQoHEefJp63L+mtcs1WS71NgtTI708LGQ1nD4cBFPPjmbqqoSTKndn3Q83tgfK3QHrD9OrbC34Lqp4ajfjmPgesvaytKXbBjYMfJpP4HWiobqyWz6/dUc2jYrIb4MO7qhY+i9kEYkJwves9T527DGIKqkpaxVOjqyef75Ul5/fSL9/Sm5HSglpFv0PGNqTZ8NFfQ09p5jqu+N0G992V9M0/i25YM6LP7vcC4I96exb0sZL/7x3bQecfkA/CAcPOL8Na+5LJYIOCmikuPkhtsCfWm8+uokNm4spaNDfqbJzqoEwB+M2rGDHoCoTeN29pu0B+0498+rj1dO22DHwE6SBOAsertyefWJS/jH+qX4O0e5Hc4Z1dQ5f83sTHj3xc7NAmgMIrLzf0SiUUVV1Vieeno2dXUFbocjHJJmUc0mX8C+01L9VlfmI7br/6jfnpi1yReToeucJACD0FZfwkt/ehdVLy8gEoq/Nqf7DrmzI/7yC9Rp6/PbISIb/0akvj6fp5+OrfNHo3KCIpVELFr+9vfblwBYnVuETc3BnogtMwsa/fS6O0sd7pVqD1n4G6Q32w7vn8SMxfHVdrj2GDS2wHgLq30NxthiTekkxQGblyA0EEXW/oejszOLHTsm0NYmU/2pKhS0ZpxgyL5+Kr6wyehMa55HIyYc6LZn3R/QhtZfsmNgN8gMwBCFgrG2wy+vuZLOxmK3w3nT5h3uXPfShfYnQabKRMuv6pAEg2m89tp5bNw4Q27+Ka7fsgTAvs96T8gkYsEh/YjW1HSHCdpz80crfv9Y5cw3bBncBfKtOkw9rQW8su6dvPbkJfT53P+C3bwNV/qxL1lgfxGPKIlzLNNtpqk4UDOap5+eRW1toSu/EyK+RCOxPyMVDNu3BGBqaB3hZr1ARLO/y76bP+AzML9g1+BukCWAEWqpHUdb/Rimzj/IzAuq8bjUdri1U1Fdq5kzzdnrjsqByRPgcL0948fK/krnucFobMxjx47x+P3y8xIn6+tVwVH5etjraFETwvbdWAFoCUQpzDDIHEZnwM5+kyP+iOWV/k6k4atr75hp0zedO2QGwAJmxMOhbbPY9PurXC0rvGGTO5u7Ztj4V5bNf+fm68ngpeNteuXmL06xH2Vcn5unN49kkHDUlqN0JzE1HO6JEB7CpSIm1Poi1PrsvfkDO7uOHUnYmv9nIgmAhYK9sbLCm9dcSVdzkePX31kN+104EmhnAiDT/2cWCnnYsX0Czzw7k6am+D2mKlzRheY+8vIX0Jy3QRnUjGSwqM131wHBqGZ/dwjfObKAsAnH+qJUdYbptKE40SlMpYzKF1Ytc2d610ayBGCDrpZCNj92BRNnH2HOxXvIyLZoF84gPL5Rce+tzi78zpyssaOYp4kXjcfycROdNhUHDxVTtaeEUFh+PuIkJujforyfp2VUC60D/7euGcln1KkEACAUje3iz/EaFGQYZHkVBrENfsGoxhcy8Ye1YyXBNerhtXdM2+LQ5RwlCYCNGqon03Ro4vG2w/sxPPZPo+3aH2vXO3uqcx/Y4gLweCBq8R4hKfv7di2tuezYPp7ubvnZiFNoXkDpe2gpfNuZIEOpbSO5h5v2f3W9TW/EpDfiwoVPti+qM+9zOwi7yBKAzQbaDv/9j1fReHCiI9f8zXrrb8ZnoxTk2nAQwtTxV3TJLX5/eqxN76ZpcvMXJ9McBV1Ba/67TnfzB8jsy98MDHsq0kzN4yRhw+Rj6ysn9LkdiF0kAXBIX3cO2565iK1/uQxfu0W9Oc+g7hg86XCPqlEWJwBaeTCVTFC91aZ3prTpFafqA/11cvJn0VL4azhzZbJbl6kg8MpwL2Sk4J1CKbVqzZ2lr7kdh51S8J/VXe0NY3jpz+9i16ZFtrYdXvucorHFtuHfZlSOtU8IsvkP6uoKeeqpWdKmV5xKo1iN15xLS+EqatWgnuw1auNwL+hVqfX7p2CzJ3/a/W7HYbfU+leNE9pUHK2ayqbfX03trlK0af0GunAYfrZGObZ2Z1r8dzBJ3en/trZsnntuBq++eh7BYOr+HMRpKF4D43KaC27iWNGQinAbXv07YFjfCEYq7TVVqj2sPB9dfZNycCHVHZIAuCjcn0bVSwt48Y/vpuXIWMvHP3AE/vyMM7UB+kNWjqaIpmACEAh4efXVSbzwQimdnVL/QJxIN6KopDl/CS15Lw9nhLsuLDikNS8M571eI2UaSEXAvGn9HVMPux2IE2SRNQ74u0bx2hOXUjK1iXlLd5Kd12vZ2Bs2wZgixbKL7N3E095t3VgmXuw4VhivolHFgQOj2bu3hEhEcnJxkhBK/5iw+VU6intGOphCPQL6XUN9X5rXwGPEKgImuS+svWPGsJdKEo0kAHGkpXYcbUdKmFx+mFkXVuFNt6buxKPrYUIJzJ5qyXBv4+uN/bFKKk3/NzbmsX3beHr7pIKfOIXWGzDUSpoLD1k15Jj8vDWt3d2HUEwfyvsUkJnuoTeY1LPif1i7ovS/3Q7CSfK4EWcG2g5v+v3VHK2aitYjfxKOROCBRxVHmy0I8DT211m8/q+SPwHo6szihRdKefnlKXLzFydT7EOr99FaeD3NBZbd/AFuKlMhrfjicN6bnZa8twsFWyM66za343Ba8v6LJrj+vkx2bVrE5jVX0mFB22F/H3zrx8qWUsFv7LFyeUEl9QzAQPne5zaWSptecaoOlL6H5vz5tOY/ZddFPnlx/mqFHvI+guzMpN0JuD+sI9cl83n/M5EEIM51txawZd072fbMRQRG2Ha4Lwjf+7liZ7VFwR0f87U91o1n4kEn4fq/qRXV1WN48sk51BwotmRmRySNCPBTvMZsmgsfAGVrzXmllI5q/QlgSDe8guykTMxbo4Z+//rK2W1uB+IGx7+FitF1gHst8xKYxxtl+qL9lC6swfAOfy3O44Gbr9VcdUmsit9I/Olp2PCCdb9GUTIJqeRqbNPSksv2bePp8UkFP/E2z6HMe2gu2u30hX+4uftmrfRvB/v6UMTkxb2djtXgd0CPxrhi3Ypp290OxC2SACSgzNwAs5dUMXHWkI4Bv03ZDLjjXzVFwywwd+gofOMnytKyw2FyiKjkmBr3+TLYsXM8TY3JldAIS9Sg+TKtBavdDOLhLV0/RlM52NdvqenGH0yKpnjdJvrax1fMGFGb5EQnCUACKxjbybylOygY2znsMbIz4f9dq7n8AvAMYUGooQW++4ii2zfsS59WSOUlfBXAUMhDdfUYavaPxpSpfnEyP+jvk1fwHQ6ofreD0Vqrh7d0PaBQnxrM62sa+6hrC9gdlt26TG1c83jltK1uB+I2SQASnFKaCbOOMveS3aRnDf/7ZPwYzfsuh0sWKjLSzjzJpzW8+Lritxs0gX7rf32CqihhWwBrDUeOFLJz5zj6++WErThJrE0vaffSkmvTeZzh0VqrH27p/k/gc+d6bW8wyis1XQ5EZZsubaj3rrt9+j/cDiQeSAKQJDxpEaYvrBlx2+HMDJg/UzOvFCaOhVHZsV+Rzh6oroOtO6DJtu0yioAqJhGLALW25rB9+wTp1CdOZytKraQ5P66fOB/e3H0Nip+DnnC2122t6caXkMsA+himce3aO6eftmNiKpIEIMlk5/uZvaSK8aUNbocyZBoPQVXkdhhD4vens2vXeBoa7O3wKBJSPegv01Lw6Nk69cWTB//uG+NJi/4v8KEzveZoe5DqYxZW/nLGTtOrr3v84zOOuh1IPJEEIEmNPq+FuUt3MapoxNVDHWOSRr8qcDuMQYlEDPbvH0P1vtFEpVOfOFkfiv/FDH2T1hK/28EMx0OvdC9R6AeAJaf+N1NrXtnfRSCUMHWB/+bV3Li6stTCguXJQRKAJGYYJlPmH2LGBftIywi7Hc45RVUGIeL/Sbq+Pp+dO8bTF0jKc9FiJLTegJe7aSy0oeSWs1ZpbYx5peujKPU94KRuZQ2d/eytj//cRqP+t+tY3WdfWLUsEdcsbJc0CcC4Ujj/GsgfDcFeqNsJVX+H8KA6ZSe39IwQMy7cx5TyQ6g4nomMkkVI5bodxhl1dmaxfft42ttz3A5FxJ830OZKWotecjsQqz38fEsumWmfB3UfxI7oaK3ZeqAbf/z2BujScPu6FaVr3A4kniVFAvDeT8B77np7URt/J7z8O3jh/6A/5Yo8vl1uoY+5S3cxZlJcbUJ+U1jlECH+agAEAl72Vo3lcG0ROn7zJ+GONpT+Js0FD0Fy94//8ZbumVH0t9DcCLETAf842BWPHQJf19r80LrKmQfdDiTeJXwCcOEH4MPfOvtrelrhqR/C1jWg4++X1XElU5soW7qTLAvbDlshrEYRIX520UejKrbOXz1G2vSKU4VR+kdWtelNJA9t7nq3UvwAKK/vCLKvIW6+R0JaqfvT8gPfXH1TWcjtYBJBQicAhgFf2wijRg/u9Ud2wdrvQp0cAsEwzFjb4Yuq8KbFx/JYPBUBamzMY/v28fT2Sqc+cQqtN6DUPbQUpOwT5qrntbckq/vjWvOt6obe0Uc73F1rVbBZYa5Ys2KmhZ1Jkl9CJwClF8Infzm092gNbzwBG/4bulusiCKxZeQEmbV4L+fNrXN9f0BI5RPF3RtuV1cm23dMoK1V1vnF21Sj1WdozX/S7UDixSObu4v6DfNr1Q19dx9tD7oxTdaqNV9b2Dj9J6tWKZnfHaKETgCurIAb7h3ee8NB2PgL2PhzCLtekNN9+WM6mXfZTgrHdbgWg5sJQCjkYW/VWA4cLJJOfeJkik7QX6e54GG7O/Ulqv95xTf30DHf+vqOQKlD3YK6NPr7aeH+H6z+ZFn8H0eIUwmdAFz3WXjXx0c2Rlcz/PUBeH09ssELGF/awJxLd5OV6/yuyX4KMJWzR+tMU3HoYDF7qkoIhxOzBLGwTQT4BYbnKzSNanU7mETw2bWNX23oDNwXimi7dvM2a6V+Gg57/ueJu6YMvwmKABI8AfjnL8FlN1sxEhx8LbY/4Ng+a8ZLZG+2HV5Ug+FxbmNzvyrExLka+i0tuWzfPoGenvjYd2Aljxcyju+nDAUhIs+tQ7XxeJveXW4Hkmhu/MnB/Iih70Wru4BCSwZV/B2tf+Qt6H9MNvhZRxKAE2gTXn8C1v8X+NqtGzdRZeUGmGVB2+HBcqoRkK/neJvepsRv05uZBbMWwPQ5UDIRxk2E4nHgPSGP0iZ0tUN7C9Qfhqo3YP8uCMvX6OkcQPMlt9v0JoMbH96TG0nLXAHcDCwChrJHIAg8j1JP6Ih6Yt0nptXaEWOqkwTgNAI+eO4R2PQoROVLkqIJbcy7bCd5xfZW0rQ7AQiHPOyrHkNNTTFmApfvzS+Ci66EsgtiN37PMCZNwiHYthmeWQONzuR38a4X9H+RXfBdapWUD7PY9T+pHu1VnqvQxjtAj0ep80CP0gqNpgsIodmPoXYbWu/0+NN3r/7spITvOxzvJAE4i7Y6WPc9qNpk3zUShVVth8/GrgQgGdr0KgPmLYKl74X5i8Gw6MekNez6B6z/DRxLzURAg/4NOu3faM1tcjsYIZwkCcAg7H8F1t0PTQfsv1a8S8sIU7poP1PPP4BhWHvqxo4EoLU1h+07JtDdFT8FhoZCGbD4Mrj2w1By1iatI2NG4aWnYcPvoNdn33XiiuZVlLGSlrxX3A5FCDdIAjBI0Qi8uhb++mCsxHCqyynwM+/SXYyZYt1Dk5UJQKAvjd17xlFXlxjdBU9nzvnwT7fApOnOXbPPD397DDY+ntQbBxtAfymR2vQKYQdJAIaorxue+RG89DswpeyEpW2HrUgAolFFdXVJQrfpHXcefPgumFHmXgyNR2HNz2HvNvdisEEAxYOJ3KZXCCtJAjBMzYfg8fth38vuXD+evFlW+MK9eNOH33Z4pAlAorfp9Xjh3R+A99988i5+N+3bAX/+WSwhSGhab8DDp2gqrHU7FCHihSQAI1S1CdZ+G9ob3I0jHqRnhpixePhth4ebAHR2ZLF953ja2xK3fO+02fCxT8PY89yO5O0iEXhhPTy1GgJx0/dl0LYdb9P7otuBCBFvJAGwQCQMr/wptj+gP/G+IC2XN7qLeUt3UTShbUjvG2oCEAymUbWnJKHb9CoFV14XW+uPl6f+M+n1wZN/hE1PJMTyVztKfyMV2vQKMVySAFiopwWe+pG0HR5QMrWJeUt3kJ03uLLCg00ATK04dKCYPVVjCYcTc50fIDMbPno3LFrqdiRv0VoTCJkEwyZRUxPVGtOEdK8iM91DhtegqU7x50fgQHz2XYu16Q3pf6ezyN7CFUIkOEkAbHB0D6z7Dhze7nYk7jO8UabOP8iMC6rP2XZ4MAlAsrTpnTgNKr8ExSXuxhGOajp8Idp8YfzBCL39JuY5plNyM70U5njpOpLGE4+k0d4aN82TnsXwrKRpVJXbgQiRCCQBsInWsOOZWFnhzka3o3FfZk6A2Refvazw2RKAZCrfO+d8uP0LkOXSloWIqWnq7Ke5u5+uvih6BOsnmWkGgYZM/varLHpHfhBkuKox1edoy3/CtQiESECSANgsFIDnfwnP/Rwi0naY/JLjbYfHvr3t8OkSgHDYoGrPOA4cKkKbcfOkOWwXvxtuvmt45XtHyh+MUt8epKmrn4hp7aaJUJ/BtsdzvgdJ+AAAFuFJREFUOLbHwZkZRScm91OS/z/sUVK0W4ghkgTAIV1NsU2Cr/3F7Ujiw8TZR5hz8R4yst8qu35SAqDhcF0Ru3eOpT8U57vjBun9N8O1H3L+uv5ghMMtAVq6Q7a3am/Ync62x3MJB2z9ajFB/xbl/TzNo1rsvJAQyUwSAIcd+Aes+y4c2+92JO7zpEWZvvCttsMDCUB3ZyZbX52cVG16b/gYvPdfnb1mIBTlYHOApu5+bL/zn6C7ycPLv8yjv9eGDZqa51HmPbQU7bR+cCFSiyQALhhoO/yX/wT/22fCU052fi+zl+whe2KInTsnUXs0ccv3ns71H4VrbnTuelprjrb3c7C5l6hLp1F8rR5e+nkeQb9FSYDmKEp/hZbCX1szoBDC/ubrp8hkVbWCxcDokY4193KYPN+CoBymFEyYDRcffyI8ujshzlXbJtyfTtPBiew6UkinP3me+sH5m393X5htdT6auvpdrY2QkaMpKQ1zZFvGSPdu+NGsIif/IzRkvW5VfEIIcPwQdSfqyXaYr+EeoMvp68eTrFFw3Wfg3rUw951uRyOsdu2HnLv5m1pT09jLq4d66A3GR92b/PFRyq8ZXA2I09AoVuM1y2gt+A61KnjutwghhsKlKioq3IF6IAylwINAfHxjuWTMVLjjh3Dnz2BcqdvRCCtcelVs058TAiGT1w/2UNcWdHStfzCmLwkyfs4Q+0MoXgPjMpoLbuJY0ZnPjQohRsTVMmo9qI521EpgPvC0m7HEg1mXwOfWwAe/CJm5bkcjhqvsglg3Pye09ITYWtNFdyBOe/cqOP96Px7vYDITdQxFJc35S2jJ22x7bEKkuLioo9qO2tuOukbBDQoOux2PmzxeuPwj8OWn4J0fBSMu/oXEYE0qhdv+DQybd9dooLY1wK46n+Vn+q2WlW8ybclZi2CEUPpBzNAcmgt+CiqFd8QI4Zy4ur20oda3wZzj+wN8bsfjppwC+Kf74DN/hOmL3Y5GDMaoArjzy5CRae91TK3ZU+/nQFNfvM34n9HsKwJ4M04TrdYbUMyhuXAlbWNS+jMvhNPiKgGIUaEO1AMqlgj8FEjpp4GJc+HuX8HtD0PxRLejEWdieOC2e6Gg2N7rhKOabYd9NHUmVlnJ9GyTyQtPiFmzF9Q1tBZeT3NBSs/6CeGWOEwAYtpQxzpQlQqWACm/HjjvCvi3v8RODWQkbtv7pPVPy2Fmub3XCEVMXj/UTWfvEDfVxYlJsQSgA6XvoTV/Pi35Kb/vRwg3xW0CMKAN9Vo7XKbhJiCldwSnZcC7boP71sPiG2L1BIT7FiyBd33A3muEIiZvHOrBHydH/IajaFKEKz4euIbmwgdAJe5fRIgkEfcJQIzSHajVXpin4OtASp8Jzi+Bm78N9/wepp7vdjSprbgEKu6xNxnrD8eO+fn7E/+eWTyt9xq3YxBCxCRIAhDTjOptQ63SMAt41O143DapHD71G7j5OzBqxHUVxVApAz62EjKz7btGf9jk9cM99IYS/+YPoA11hdsxCCFiEioBGNCBOtqOWo6HW3s7aHQ7HjcpBYuvhy9ugGUfB4+D3VhT3dUftHfdPxLVbK/10ZcET/5v0lxy45+c7BkshDiThEwABvzsG+pXLZdznoYKIKXbgmbmwvWfhS+sg4XvdTua5Dd+Mlz7YfvGN7Vm5xEfvmCcFvgZvuxQZ/Yit4MQQiR4AgCwSinzlnL1azPMbOB+IOR2TG4aPRmWfx8+8XOYMMvtaJKTxwu3fg7S0uwZXwNVDb10+BNzt/+5eIgudDsGIUQSJAADbl2kuirK1X14mK8UT7gdj9tmLoHPrIabvgY5hW5Hk1yWXQ8Tp9o3/sGmvoQ75z8UGkM6XggRB5ImARhQMVftX16mrsPgag1VbsfjJo8HLr4RvvhErKywx/Hmz8mncDRc+//sG7+1J0Rda8C+C8QBpfR0t2MQQiRhAjCgYp56tj/IQjT3KEW32/G4KTsvVlb43sel7fBI3XiHfaV+/f1Rdh/1J0x53+EytZIEQIg4kLQJAEDlYhWumK8e0AalSvEgKrXbDpdMfavt8Fj5Ch6yssVw/sX2jB0xNTtrfUTjvLGPFZTSY9yOQQiR5AnAgIq5qn15mVoJXIjm727H47ZZl8DnH5O2w0NhGPDBW+wZWwN7jvroS5Kz/oMgv3VCxIGUSAAGVJSpbRXz1RUKbgBq3Y7HTQNth7/0pLQdHoyl74Hxk+wZu6EjSGtPcu74PwPpZiFEHEjJr/3l5Wp9Vg/zgPtI8bbDuYWx/QH3/AGmX+B2NPEpPRPe9yF7xg6EotQ09tkzePxKW/GT12w6RCmEGKyUTAAAbrpUBSrK1f1EmIviUUj6vVdndd48uPv/Ym2Hi6Tt8Emu+gDkF1k/rtaa3Uf8KbHuf6pQerGcSRHCZdJP7rhf7dZLleIBNCn/HBwOwt9+As//AqIOLkt3FfmIek3nLjgIOaPgP34GmVnWj32oOcChFmee/g0Fo9IMctMUGYbCMCBiQl/EpLPfJOzsjz26dkWp19ErCiHeJmVnAE51S7l6+fA8LkJzG9DkdjxuSsuEa1fGGg2NnuJ2NO668jp7bv69wSiHHTjv71EwMcdDeWE60/O8lGR5yM8wGJVmUJhhMDHHS1lROhOyPU4+DaTcmocQ8UgSgBOsUsqsmK9+oaLMQEvb4cnzYy2Hp6Roy+H0THjntdaPq4F9x3rR2r6pfwWUZBnMK0ynJMuD5yyfdAWMzfYwPc/rTBKg6HXiMkKIs5ME4DSWn696K+arVYZiPvAXt+NxU3YeVP4klgykmsvfC7l51o/b2NlPZ699u/7TDcXM/DQm5njxDuETnpduMDHHgaV5ndobb4WIF5IAnMXHytSBinL1AaV4t1Lscjset2Tmwm3/CwXj3I7EOR4vXHmD9eOGo9rWXf+j0g1mF3rJSRves/yYLA9ZQ8kahueo3RcQQpybJACDsLxMbZzUwjtQfArocDseN4waDbf8T+r0E7jgcigabf24NU29hKP27LgrzDAozfPiVSObyB+bZfPXglKSAAgRByQBGKRly1Skokw95DWZoRQPAknXqP1cJs+HK291OwpnXH6N9WP6g1EaO+zp8leQbjAl15qNfPnpBsYIk4iz0rrOvsGFEIMlCcAQfWSB6lxeplYqg0VonnU7Hqe99xNQdJ7bUdhrwhSYPsf6cQ8099lSbCIv3WBqnhdl0U3bUJA7zCWEwVBaZgCEiAeSAAzT8nlqd8V8dTUGVwN73Y7HKd4MeM+dbkdhr8vea/2YXb0R2npClo+b6VFMG2X97v1sr30JQNSg2rbBhRCDJgnACFXMU892Z7CIFCorfMH1MHqy21HYIz0TLrrS+nFrmqzf+GcoxbQ8L4YN9+pMj20JgE439U67BhdCDJ4kABb49EzVX1Gu7k9LY3oqtB32eODif3E7CnucvwSyLG5V09oTorvP+mN/k3IN227UXjuyCgCtDq+uLO22Z3AhxFBIAmChm2ertuVlaqWhuAh4ye147LT4+uTsIPiOpdaPWWtDxb/CDIOiDDuPZNhTpEgpvc2WgYUQQ5aEX+Hu+9g89cbyMt6pFB8B6t2Oxw55JTCp3O0orJWZDXPfYe2Ynf4w3X3WHhjxKMXEHHtL6Zs29QYw0dvtGVkIMVSSANhEKaWXl6nfBYPMJrY/wO92TFabZvHN0m3nL4E0i5vU1rZZ//Q/LttDms2fXLt6Axmm8XebhhZCDJEkADarXKz6KsrV/V6DcjR/cjseKyXbDMAii6f//YEoHT5r1/4zPYoxdhfqAWzqUNwXCEW32jKyEGLIJAFwyEfmqbqK+epDSnExmi1ux2OFPBsq5bnF64XZFvc7qGsLWL6SPt6hrn1BG6oVatj85Kdn2lMJSQgxZJIAOGx5mdp6uJylClYALW7HMxI5hW5HYJ3SebEjgFYJR0yau60995/hURRkOPORDdhT53KjLaMKIYZFEgAXrFLKXF6ufpalKD3edjghn4q89u5Dc9Qci1seN3WHMC1u9zsm07lGDIGo9WsABqlXOVOIeCYJgItuKlP+ivlqlWkwH1jtdjypbM5Ca8er7whaOp7XUBRnOvNxDZsQsXoTgOboY3dMf83aQYUQIyEJQBy4dZ6qqShXN2nFVWh2ux1PqsnJhUnTrRuvqzdCb9DaWlDFmYYtFf9OpydkwxkAxWqUsmdroRBiWCQBiCO3lKnnJrexSCsqgTa340kVk2eCsvCT0Nhp7dM/xLr9OaXLhgRAGfoxywcVQoyIJABxZtkyFbmlTP00rJidqm2HnTa51LqxtNa0Wnz0L81QZNnYnOdEptb4rE8AGhbUl75i9aBCiJGRBCBO3V6mOpaXqZWmyXwFT7kdTzKzcvq/szdCKGLtDTQ/XTly9A+gJ6ztKAL8p1WrlF21hYQQwyQJQJy7dYHat7xcvU/BDQoOuR1PMpo8w7qxrD76B5Dv4PR/W8D6+7SB+XPLBxVCjJgkAAlieblan6mYi+YeoMfteJJFZjYUlVg0mIY2n/UJQLZD0//BqMYftjYBULB5zYqZeywdVAhhCUkAEshNZSpUMV89YBjMUfBT7CvZnjKKx4Ky6P7aHQjTb/ENNM1Q9rXmPUVLIGr59L9WPGLxkEIIi0gCkIA+Nk81Li9XldrkIuBlt+NJZMVjrBurw2/t5j+ALI8zN/+wCZ39lueTPb0ZOUnV/0KIZCIJQAK7ZYF6fXkZlyvFTUCd2/EkoqKx1o3V2Wv9gQ2ndv839UUtbwCkUf/3zPJxvdaOKoSwiiQACe542+HVwSDzjpcVtv4QehIrsmgGwNSarj7rZwA8DnxCA1GTdosLFwERw+D7Vg8qhLCOJABJonKx6quYr1Z5osxE8SjYcZor+eRZ1NCoqzeCaUsBPXtpoN5v/do/mj88dvt0mZUSIo5JApBkPnq+qq8oU8tNzbuAHW7HE+8yMqwZp7vPnnpNHqt2KJ5BZ7+JP2x9rqiVIU//QsQ5SQCS1K3z1QuHy3iHhgoSvO2wnaxqAewPJl7Bxv4oNNiwb0HDX9etmLbd8oGFEJaSBCCJrVLKvKVc/doMMxu4nwRtO2ynDIsSAJ/1a+iADV35jtNAnS+MxUULAbQyzW9aPqoQwnKSAKSAWxepropydR8eFgAb3I4nnqSnj3yMqKnpC9mTAIS1PQlAQ2+U3ogNY2vWrr1zptT9FyIBSAKQQirmqv0V5ep6DK4GpDobELXgvu0PRmzbcmnDwQLagyZtAVsSlgiG5yt2DCyEsJ4kACmoYp56Nhhk0fGywl1ux+OmkAWLIn02tM99c+yISdTC4bv6TY76IzblK/qXa++YuteWoYUQlpMEIEVVLlbhivnqgbCiVCkeRGHPHHac6w9YMIbF5X9PpIEei8bvDpnU2nHkLyZgevmGPUMLIewgCUCKe7PtMCxGscnteJzWb8EMQNDGBACsqdHfGjA53BNB27SnQCvuf/zjM47aMrgQwhaSAAgAbi1T2yvK1JUKbkBx2O14nNLn0yO+ewdsXAIA6IvoYdfpNzXU+iLU99o17Q9ATYHXuN++4YUQdpAEQJxkeblanwVzju8P8Lkdj6203jB7oRrxjStk5SL9GdT7I/QNcdd+X0SzvztsR5OfE2mUvvNXt06TEtRCJBhJAMTbDLQdjniTtO2wZi+oa2gtvL5knN4y0uHMqP1Vl6MaDnSH6R7EbEN/VHPEH6G6K0zAjqN+J9Do36y9Y8ZGWy8ihLCF1+0ARPy6bY46BlT+crd+xIAfAJe6HdMIdaD0f9BS8BCoKIDGW8MI9z9GbSrW87braDjUE2FUmkFxpkFOmiLNUGitCZngC2m6wyY+m5ckTtChonzeqYsJIawlCYA4p1vL1ata68sereJfTZPvK8Ukt2MaojDwS7zGlzmW13bifxiTl3uwtae7D8ge7uAO3f/f5Aub+GzeeDg4+pNrPzFDykwLkaBkCUAMykDbYcNkbjTEN6PhhDk2+CzKfActBZWn3vwhttwBbB7JBUynM4B4oPnN2hUz/uB2GEKI4ZMEQAzJ8vNV78ffob4a6mduYw1vuB3PWdSguYmWgqtpLtp9thdqeH4kF1KG3U174059KOr9tNtBCCFGRpYAxLDcebGqAS4YjV4G/EDDArdjOs4P+vvkFXyHA2pwp/xN43mM4U+pe1RsjSFFmErr5U/cNaXT7UCEECMjMwBiRNpQz7fBItxvO2yCfhS8M2gpXDXomz/QdumorUDdcC/s9aTOx0gr9a3HKmeMaMZECBEfUuebS9hIme2oX0dgDrG2wyFnL88mtL6AlsLltOQ2D/Xtq5QyQf9quJf3pMgKgIa/LmyYtsrtOIQQ1pAEQFimG9XZjrpPwQINf3XgkvWgK2jOX0Zr4faRDBRV5iMM8zxgelpKfIxqVSi0fNUqFQ/HD4QQFkiJby7hrDZUdQfq/cDVQJUNl+gD/XXSfbNoKfw1qBFvw//0xcX1GtYN573ZGUn/MfJj6OvX3j233e1AhBDWSfpvLuGedtSz7bBQwz1AtwVDahSr8eh5tBSuon6SBb383mKafEEPY/kiK81jZRjxxkRRsfb2GWc9SSGESDySAAibqXAH6oEQlAIPMtyye4rX0eY7aS64icbCYW/YO5tPLy04qNA/Her7sjOSNwHQWq1ce0fpY27HIYSwniQAwhE+VHs7aqUBF2p4cfDv1I0oKmnOv4jWopfsi/D41QzPKqB+KO/Jy/KSlPsAtf72usrpD7kdhhDCHpIACEe1orZ1oN6p4Aag9iwvDaP0g0TMOTQX/BSc2Xx295K8dqXUjUNZCvB6FLmZSTcL8Nu1K0q/4nYQQgj7SAIgXNGGWp8F84D7AD+AVsTW9LXeAMyluXAlHcU9Tsd218X5Wwz0F4fynoLcdLvCccOfx+jOW1Ej31wphIhfSTlzKRJLMXoi8J2uYv+8qGF+ldb8J92OCeCHr3R9QcN3B/PaNl+I7bU+u0Nywh86jx352AurlkXcDkQIYS9JAIQ4i4c2d92rFPdzjs+K1poX93URiiT0MXm5+QuRQmQJQIizuPvSgv9EcQ3QcLbXKaUYW5DhUFQ2UPqR849N/4jc/IVIHTIDIMQgPLS1p1iZ5sPAh870Gl8wwtYaK8odOEqj1VfXVk7/ltuBCCGcJQmAEEPw8JbOZWj1A87Q/XB7nY+2HmdbIYxAP3Db2hWlv3U7ECGE8yQBEGKIVmltjHml66Mo9Z9AyYn/zReMsvVAF8T//vkWZeh/fuz2GS+7HYgQwh2SAAgxTD98savQ9PIF4DMK3jwHuPuon6auQXcjdoF6IerxfuQvt00+5nYkQgj3SAIgxAg9tLVnlopG/xul3g8Qjmq21nQRDMfdiQANfM9bMP3Lq29SwyvJLIRIGpIACGGRH77SdZWJfkCh5nX2hnnjUE/crAQoOIzWtz1WOeN5t2MRQsQHOQYohEXuuqTg2bS0goUofU9hTlr3jHE5bocEENFKfz+ss8rl5i+EOJHMAAhhg9ixwei/17YG7z7Q1OdWov2q0uadj1XOfMOl6wsh4pgkAELY6EebOxfVNAf/XNsWmK61UwsCeq9Sxr8/dvu0NVLPXwhxJpIACOGAzz/ecO+xzvC3AqFomm0X0VRj6G9780t/K5v8hBDnIgmAEA75zJ+OFtV2hb6iYIUGqzYIhIHHtcmP11VO3yhP/EKIwZIEQAiHffChvcWkp38SuBMYP4whAhqeR7PBwLPuscqpjRaHKIRIAZIACOEWrdUHf3J4AQZXA5dpzWRl6PFoxhL7bPYAIa3VUYXeo9G7wNgeJfOl9ZUT+twNXgiR6P4/fnp5CiMlUCUAAAAASUVORK5CYII=;" vertex="1" parent="nPLDPghtRgDBbKn_ZtEC-47">
          <mxGeometry x="86.5" y="90" width="177" height="177" as="geometry" />
        </mxCell>
        <mxCell id="nPLDPghtRgDBbKn_ZtEC-13" value="&lt;h1 style=&quot;&quot;&gt;&lt;font style=&quot;font-size: 28px;&quot;&gt;Objeto &#39;Meu Carro&#39;&lt;/font&gt;&lt;/h1&gt;" style="text;html=1;align=center;verticalAlign=middle;whiteSpace=wrap;rounded=0;fontSize=31;" vertex="1" parent="nPLDPghtRgDBbKn_ZtEC-47">
          <mxGeometry y="30" width="350" height="30" as="geometry" />
        </mxCell>
        <mxCell id="nPLDPghtRgDBbKn_ZtEC-14" value="&lt;h1&gt;&lt;font style=&quot;font-size: 20px;&quot;&gt;Classe&lt;/font&gt;&lt;/h1&gt;" style="text;html=1;align=center;verticalAlign=middle;resizable=0;points=[];autosize=1;strokeColor=none;fillColor=none;" vertex="1" parent="nPLDPghtRgDBbKn_ZtEC-47">
          <mxGeometry x="300" y="40" width="80" height="70" as="geometry" />
        </mxCell>
        <mxCell id="nPLDPghtRgDBbKn_ZtEC-15" value="&lt;font style=&quot;font-size: 20px;&quot;&gt;- Carro&lt;/font&gt;" style="text;html=1;align=center;verticalAlign=middle;resizable=0;points=[];autosize=1;strokeColor=none;fillColor=none;" vertex="1" parent="nPLDPghtRgDBbKn_ZtEC-47">
          <mxGeometry x="320" y="90" width="80" height="40" as="geometry" />
        </mxCell>
        <mxCell id="nPLDPghtRgDBbKn_ZtEC-33" value="- Cor = Azul&lt;br style=&quot;font-size: 20px;&quot;&gt;- Modelo = Celta" style="text;whiteSpace=wrap;html=1;fontSize=20;" vertex="1" parent="nPLDPghtRgDBbKn_ZtEC-47">
          <mxGeometry x="330" y="170" width="140" height="50" as="geometry" />
        </mxCell>
        <mxCell id="nPLDPghtRgDBbKn_ZtEC-34" value="&lt;h1&gt;&lt;font style=&quot;font-size: 20px;&quot;&gt;Atributos (CaracterÃ­sticas)&lt;/font&gt;&lt;/h1&gt;" style="text;html=1;align=center;verticalAlign=middle;resizable=0;points=[];autosize=1;strokeColor=none;fillColor=none;" vertex="1" parent="nPLDPghtRgDBbKn_ZtEC-47">
          <mxGeometry x="300" y="120" width="250" height="70" as="geometry" />
        </mxCell>
        <mxCell id="nPLDPghtRgDBbKn_ZtEC-43" value="&lt;h1&gt;&lt;font style=&quot;font-size: 20px;&quot;&gt;MÃ©todos (Comportamentos)&lt;/font&gt;&lt;/h1&gt;" style="text;html=1;align=center;verticalAlign=middle;resizable=0;points=[];autosize=1;strokeColor=none;fillColor=none;" vertex="1" parent="nPLDPghtRgDBbKn_ZtEC-47">
          <mxGeometry x="300" y="210" width="260" height="70" as="geometry" />
        </mxCell>
        <mxCell id="nPLDPghtRgDBbKn_ZtEC-44" value="&lt;font style=&quot;font-size: 20px;&quot;&gt;- Ligar&lt;/font&gt;" style="text;html=1;align=center;verticalAlign=middle;resizable=0;points=[];autosize=1;strokeColor=none;fillColor=none;" vertex="1" parent="nPLDPghtRgDBbKn_ZtEC-47">
          <mxGeometry x="320" y="260" width="80" height="40" as="geometry" />
        </mxCell>
        <mxCell id="nPLDPghtRgDBbKn_ZtEC-50" style="edgeStyle=orthogonalEdgeStyle;rounded=0;orthogonalLoop=1;jettySize=auto;html=1;exitX=0.5;exitY=1;exitDx=0;exitDy=0;entryX=0.5;entryY=0;entryDx=0;entryDy=0;" edge="1" parent="nPLDPghtRgDBbKn_ZtEC-9" source="nPLDPghtRgDBbKn_ZtEC-8" target="nPLDPghtRgDBbKn_ZtEC-45">
          <mxGeometry relative="1" as="geometry" />
        </mxCell>
      </root>
    </mxGraphModel>
  </diagram>
</mxfile>
